<svg xmlns="http://www.w3.org/2000/svg" width="694.667" height="792" viewBox="0 0 694.667 792"><defs><style>.a{fill:#eee;}.b{fill:#fff;}.c{fill:#8494ab;}.d{fill:#625ca8;}.e{fill:#0c0c40;}.f,.l{fill:#f9f9f9;}.g{fill:#52ade1;}.h{fill:#d2498b;}.i{fill:#111b34;}.j{fill:#ef8b67;}.k{fill:#f4bca3;}.l{opacity:0.55;}.m{fill:#932646;}.n{fill:#4d6486;}.o{fill:#c8ced9;}.p{fill:#cecde9;}</style></defs><g transform="translate(19.667 12.667)"><path class="a" d="M169.256,821.095,166.519,50c0-4.547,11.184-12.667,14.572-12.667L341.747,43c22.572,18.234,49.367,83.516,56.635,115.634,12.391,54.767,39.612,92.795,53.443,102.966,36.125,26.56,76.833,20.145,115.97,32.491,42.378,13.379,81.908,47.8,100.551,98.748,18.038,49.253,12.784,90.554,23.26,141.235,10.639,51.472,48.811,91.433,85.067,110.062,38.417,19.75,75.573,34.578,82.595,90.378,3.617,28.713,2.057,66.324-4.163,94.817H175.41C172.006,829.333,169.256,825.642,169.256,821.095Z" transform="translate(-186.186 -50)"/><g transform="translate(43.719 165.996)"><path class="b" d="M737.384,125.72V337.73H453.18V125.72ZM466.611,323.967H723.93V139.5H466.611Z" transform="translate(-453.18 -125.72)"/><rect class="b" width="6.627" height="197.297" transform="translate(138.777 7.356)"/><rect class="b" width="274.749" height="6.627" transform="translate(4.727 102.702)"/></g><ellipse class="c" cx="254.778" cy="17.077" rx="254.778" ry="17.077" transform="translate(68.284 683.081)"/><path class="c" d="M300.71,356.57c0,5.368,22.445,9.72,50.125,9.72s50.125-4.352,50.125-9.72-22.445-9.72-50.125-9.72S300.71,351.2,300.71,356.57Z" transform="translate(263.788 304.618)"/><g transform="translate(310.824 150.931)"><path class="d" d="M435.094,161.663h27l21.738,24.654-10.692-24.654h19.617a2.89,2.89,0,0,0,2.894-2.894V121.634a2.89,2.89,0,0,0-2.894-2.894H435.094a2.89,2.89,0,0,0-2.894,2.894v37.135A2.89,2.89,0,0,0,435.094,161.663Z" transform="translate(-432.2 -118.74)"/><g transform="translate(17.209 25.582)"><path class="b" d="M439.99,136.9h7V130.32h-7Z" transform="translate(-417.965 -130.32)"/><path class="b" d="M444.97,136.9h7V130.32h-7Z" transform="translate(-433.946 -130.32)"/><path class="b" d="M449.96,136.9h7V130.32h-7Z" transform="translate(-449.96 -130.32)"/></g></g><g transform="translate(102.238 215.166)"><g transform="translate(0 15.972)"><g transform="translate(60.883)"><path class="e" d="M395.159,355.688H690.718a12.341,12.341,0,0,0,12.349-12.349V168.929a12.341,12.341,0,0,0-12.349-12.349H395.159a12.341,12.341,0,0,0-12.349,12.349v174.41A12.327,12.327,0,0,0,395.159,355.688Z" transform="translate(-382.81 -156.58)"/><rect class="f" width="283.099" height="156.494" transform="translate(18.888 13.564)"/><g transform="translate(38.66 37.842)"><rect class="g" width="91.546" height="115.957" transform="translate(0)"/><rect class="h" width="74.293" height="11.554" transform="translate(8.616 10.913)"/><rect class="d" width="74.293" height="11.554" transform="translate(8.616 32.342)"/><rect class="b" width="74.293" height="11.554" transform="translate(8.616 53.748)"/><rect class="b" width="74.293" height="11.554" transform="translate(8.616 75.154)"/><rect class="b" width="74.293" height="11.554" transform="translate(8.616 96.561)"/></g><path class="i" d="M427.612,181.833s-15.088.088-17.187,9.919-.243,20.876-2.806,27.791-10.582,26.222,6.605,27.3,19.993-3.822,24.19-4c4.219-.177,10.515,9.963,22.975,4.153s7.025-18.844,1.635-20.434c-5.368-1.568-3.292-10.869-1.988-13.962,2.7-6.429,4.683-26.222-13.674-32.054C432.538,175.869,427.612,181.833,427.612,181.833Z" transform="translate(-194.439 -129.764)"/><path class="j" d="M438.345,196.32c1.127,13.233,2.01,28.917,7.467,40.1-.619,5.368-3.579,15.574-17.386,15.2-11.708-.309-15.177-7.621-16.127-13.078,5.479-9.3,8.792-21.8,9.543-34.109C427.211,204.427,434.634,198.993,438.345,196.32Z" transform="translate(-190.703 -108.529)"/><path class="k" d="M440.061,182.405s-18.932.906-22.842,4.816-3.733,11.863-4.816,23.527,6.075,24.521,12.393,26.222,23.682-9.168,26.09-27.283S447.351,181.787,440.061,182.405Z" transform="translate(-196.306 -125.388)"/><g transform="translate(58.409 72.952)"><path class="k" d="M524.9,226.953S515.619,216.658,512.04,211c-3.535-5.589-16.767-23.969-19.529-21.1-2.739,2.872,8.66,18.093,8.66,18.093s-11.046-19.75-14.912-17.585c-3.822,2.143,10.25,19.507,10.25,19.507s-11.974-16.7-14.028-14.359c-2.032,2.32.4,6.009,10.25,18.2,0,0-8.461-10.493-10.493-7.2s7.6,12.57,10.979,14.6c3.424,2.077,19.993,10.891,24.455,15.2C517.652,236.386,525.6,232.3,524.9,226.953Z" transform="translate(-481.82 -189.603)"/><path class="j" d="M487.444,200.14c.972-2.518,4.882-2.3,7.246-2.1a10.378,10.378,0,0,1,7.4,3.535c.994,1.215,1.767,2.43,2.872,3.579,2.1,2.187.685,4.065.044,6.451-.2.685-4.794,1.392-9.234-.4a17.179,17.179,0,0,1-7.157-6.141C487.775,203.343,487.091,201,487.444,200.14Z" transform="translate(-475.161 -179.535)"/><path class="k" d="M501.928,203.208s-10.537-7.158-13.807-4.971-.353,4.971,10.781,9.565c0,0,3.623,5.457,6.186,6.053C505.065,213.856,508.8,207.074,501.928,203.208Z" transform="translate(-474.093 -179.665)"/></g><path class="i" d="M409.206,181.257s-5.191,22.644,10.935,25.493a15.143,15.143,0,0,1,1.944,12.791c-2.3,7.047-7.467,22.069,1.856,25.537s16.37-2.187,12.592-16.834c-3.756-14.647-3.756-22.666-6.075-33.336C428.16,184.217,423.742,176.353,409.206,181.257Z" transform="translate(-173.868 -128.547)"/><path class="i" d="M452.584,181.7S451.391,202.159,433.7,203s-17.872-11.686-15.663-14.735S428.284,173.263,452.584,181.7Z" transform="translate(-207.99 -129.788)"/><path class="d" d="M532.581,218.5s6.362,8.019,9.5,9.234c3.159,1.215,15.685-8.9,15.685-8.9s17.253,9.632,31.546,11.333c0,0,12.747,4.595,17.518,39.742H492.4s.817-7.356,0-7.356-6.3,7.356-15.177,7.356H438.3s-31.966-30.972-46.745-52.666l13.741-13.674s46.723,50.081,50.589,50.081,33.6-24.963,34.816-25.67C491.933,227.252,522.639,226.744,532.581,218.5Z" transform="translate(-305.88 -99.763)"/><path class="l" d="M529.828,268.153H563.1s-78.6-61.458-80.147-63.2v17.629C491.632,231.614,529.828,268.153,529.828,268.153Z" transform="translate(-464.062 -98.095)"/><path class="l" d="M425.35,170.01v24.875c5.92,7.246,139.153,107.783,147.282,115.581h60.11C616.682,297.719,431.491,174.6,425.35,170.01Z" transform="translate(-406.462 -140.341)"/><path class="l" d="M424.62,162.72H393.03c.221.2.464.376.685.574,13.144,11.267,143.129,140.213,157.709,155.92l30.177.066C562.161,299.089,461,197.889,424.62,162.72Z" transform="translate(-283.921 -149.156)"/><path class="l" d="M469.46,240.194V209.686c-15.8-15.685-32.474-32.187-47.5-46.966H391.08C413.746,184.877,444.121,214.922,469.46,240.194Z" transform="translate(-167.472 -149.156)"/></g><path class="m" d="M421.75,249.208s3.623-5.324,14.647-3.513,17.452,20.368,17.452,20.368H422.589C422.589,266.086,419.806,251.749,421.75,249.208Z" transform="translate(-157.207 -49.283)"/><path class="m" d="M506.818,249.208s-3.623-5.324-14.646-3.513-17.452,20.368-17.452,20.368h31.259C505.956,266.086,508.762,251.749,506.818,249.208Z" transform="translate(-329.403 -49.283)"/><path class="h" d="M419.877,222.971s10.891.243,18.888,6.3,39.256,55.825,40.692,59.845c1.458,4.021-6.517,7.378-16.833,7.378-10.295,0-15.155.928-19.021-3.336s-26.841-23.483-32.894-37.29C404.678,242.035,414.221,222.242,419.877,222.971Z" transform="translate(-155.864 -76.329)"/><path class="h" d="M530.395,222.971s-10.891.243-18.888,6.3-39.256,55.825-40.692,59.845c-1.458,4.021,6.517,7.378,16.833,7.378,10.295,0,15.155.928,19.021-3.336s26.841-23.483,32.894-37.29C545.616,242.035,536.072,222.242,530.395,222.971Z" transform="translate(-354.394 -76.329)"/><path class="j" d="M453.355,209.65h18.336l3.247,16.922H450.13Z" transform="translate(-242.516 -92.412)"/><path class="i" d="M468.7,186.83c.066,0,.11.022.177.022s.11-.022.177-.022c9.963,0,23.814,5.677,23.814,22.025s-4.065,37.666-23.858,37.666h-.265c-19.816,0-23.858-21.34-23.858-37.666C444.89,192.507,458.741,186.83,468.7,186.83Z" transform="translate(-248.874 -120.004)"/><g transform="translate(167.717 399.233)"><path d="M446.84,337.3l15.022,9.212s-5.324,9.212-3.225,11.951,13.9,16.149,14.381,22.776-3.225,10.67-5.169,10.007c-1.944-.641-37.312-25.847-36.495-30.2C432.127,356.674,446.84,337.3,446.84,337.3Z" transform="translate(-366.849 -337.3)"/><path d="M486.755,337.3l-15.022,9.212s5.324,9.212,3.225,11.951-13.9,16.149-14.381,22.776,3.225,10.67,5.169,10.007c1.944-.641,37.312-25.847,36.495-30.2C501.468,356.674,486.755,337.3,486.755,337.3Z" transform="translate(-460.534 -337.3)"/></g><g transform="translate(0 216.803)"><g transform="translate(24.941)"><rect class="h" width="13.299" height="252.216" transform="translate(379.461)"/><rect class="h" width="13.299" height="252.216" transform="translate(0)"/></g><rect class="d" width="442.024" height="6.694"/></g><path class="d" d="M471.942,275.078c9.543-5.5,59.116-5.5,68.66,0s58.652,41.509,58.652,50.235S545.948,434,545.948,434L526.4,424.039s32.54-83.7,28.586-87.327-48.711-6.384-48.711-6.384-44.757,2.739-48.711,6.384,28.586,87.327,28.586,87.327L466.6,434S413.29,334.04,413.29,325.313,462.4,280.557,471.942,275.078Z" transform="translate(-285.448 -18.289)"/><path class="d" d="M454.165,214.565c.839-.839,7.887-.287,11.4-.287s10.582-.53,11.4.287c.839.839,6.451,13.387,6.451,13.387l-17.872,3.778-17.872-3.778C447.714,227.952,453.347,215.4,454.165,214.565Z" transform="translate(-245.557 -87.032)"/><g transform="translate(153.645 135)"><path class="e" d="M432.405,379.645c4.683-6.716,40.383-32.7,40.383-32.7h27.967s35.7,25.979,40.383,32.7,3.711,13.652-1.789,13.652h-17.5a2.2,2.2,0,0,1-2.165-1.723,22.2,22.2,0,0,1-.464-4.816,2.216,2.216,0,0,1,1.878-2.209c1.1-.155,2.32-.42,2.386-.817.177-.95-.42-2.651-4.021-5.611C513.016,372.8,497.6,361,497.6,361l-10.847.331L475.9,361s-15.4,11.8-21.87,17.121c-3.579,2.96-4.175,4.661-4.021,5.611.066.4,1.3.663,2.386.817a2.216,2.216,0,0,1,1.878,2.209,22.368,22.368,0,0,1-.464,4.816,2.2,2.2,0,0,1-2.165,1.723h-17.5C428.716,393.3,427.722,386.361,432.405,379.645Z" transform="translate(-419.592 -61.399)"/><path class="e" d="M462.417,297.82h12.857l-6.429,115.957H455.989L449.56,297.82Z" transform="translate(-395.238 -120.803)"/><path class="e" d="M474.17,295.55H508.5s-3.49,39.5-34.33,39.5-34.33-39.5-34.33-39.5Z" transform="translate(-406.99 -123.548)"/><path class="g" d="M429.253,231.585c8.726-11.62,60-13.9,60-13.9s51.3,2.253,60,13.9c8.726,11.62-15.177,107.894-23.262,123.4s-36.76,15.177-36.76,15.177-28.674.331-36.76-15.177C444.43,339.479,420.527,243.205,429.253,231.585Z" transform="translate(-422.074 -217.69)"/><path class="e" d="M447.908,271.207c2.938-1.966,32.032-1.966,34.97,0,3.4,2.253-4.838,57.017-6.141,62.5-1.3,5.5-21.406,5.5-22.71,0C452.768,328.225,444.528,273.482,447.908,271.207Z" transform="translate(-398.225 -154.764)"/><rect class="e" width="134.359" height="17.938" transform="translate(0 165.463)"/></g><rect class="d" width="82.975" height="13.277" transform="translate(333.467 203.527)"/><rect class="h" width="82.975" height="13.277" transform="translate(342.547 190.25)"/><g transform="translate(40.626 179.535)"><path class="c" d="M540.094,240.48h4.728v2.607h-3.468a7.1,7.1,0,0,0-7.091,7.091v.133a7.1,7.1,0,0,0,7.091,7.091h3.468v2.607h-4.728a9.65,9.65,0,0,1-9.654-9.654v-.2A9.669,9.669,0,0,1,540.094,240.48Z" transform="translate(-530.44 -234.67)"/><path class="c" d="M523.209,275.118h21.429a5.676,5.676,0,0,0,5.677-5.677V237.85H517.51V269.44A5.709,5.709,0,0,0,523.209,275.118Z" transform="translate(-507.37 -237.85)"/><path class="n" d="M519.129,269.381V239.05h12.393v27.084a4.884,4.884,0,0,1-4.882,4.882h-7.82A5.79,5.79,0,0,0,519.129,269.381Z" transform="translate(-491.471 -236.399)"/><path class="o" d="M534.53,239.05v28.564a5.344,5.344,0,0,0,1.237,3.4h-3.645a4.884,4.884,0,0,1-4.882-4.882V239.05Z" transform="translate(-514.317 -236.399)"/></g></g><g transform="translate(273.688)"><path class="d" d="M401.872,198.459H467.9a3.286,3.286,0,0,0,3.292-3.292V152.642a3.286,3.286,0,0,0-3.292-3.292H401.872a3.286,3.286,0,0,0-3.292,3.292v42.526A3.3,3.3,0,0,0,401.872,198.459Z" transform="translate(-398.58 -149.35)"/><rect class="b" width="66.031" height="41.311" transform="translate(3.292 3.888)"/><path class="h" d="M430.255,156.58v20.236L410.55,166.7Z" transform="translate(-384.085 -140.608)"/></g></g><rect class="h" width="181.435" height="10.184" transform="translate(483.776 193.858)"/><rect class="d" width="12.702" height="75.11" transform="translate(555.02 119.108)"/><rect class="p" width="12.702" height="66.274" transform="translate(574.35 127.9)"/><rect class="h" width="12.703" height="66.275" transform="translate(527.803 192.94) rotate(-158.229)"/><rect class="p" width="12.703" height="66.275" transform="translate(510.681 192.941) rotate(-158.229)"/><rect class="d" width="63.888" height="11.399" transform="translate(593.039 181.225)"/><g transform="translate(214.97 187.178)"><path class="h" d="M541.912,185.949H503.164L519.2,205.3l-34.551-19.352H473.782a3.4,3.4,0,0,1-3.4-3.4v-43.9a3.4,3.4,0,0,1,3.4-3.4h68.151a3.4,3.4,0,0,1,3.4,3.4v43.9A3.437,3.437,0,0,1,541.912,185.949Z" transform="translate(-470.38 -135.25)"/><g transform="translate(26.421 11.266)"><path class="b" d="M482.35,148.855c0,5.677,7.135,7.356,7.135,9.566v.884h7.135v-2.1c0-3.049-5.434-4.794-5.434-8.174a2.731,2.731,0,0,1,2.761-2.916c2.253,0,2.717,1.745,2.717,3.512a9.605,9.605,0,0,1-.044,1.127h7.688c.044-.552.133-1.038.133-1.591,0-5.434-4.838-8.814-11.4-8.814C486.658,140.328,482.35,143.664,482.35,148.855Zm6.517,20.7h8.262v-7.732h-8.262Z" transform="translate(-482.35 -140.35)"/></g></g><g transform="translate(567.327 451.971)"><path class="d" d="M360.64,349.788c7.312-3.093,12.614-5.677,11.377-17.364-.6-5.545-2.563-9.389-6.539-12.747-3.225-2.717-4.86-3.711-5.854-8.218-1.5-6.826.4-12.437-2.872-18.689-3.49-6.672-11.046-6.009-14.558-12.216-3.026-5.39-4.418-11.355-11.289-13.454-6.075-1.856-9.764,3.336-7.688,8.638,1.193,3.071,3.756,5.722,4.529,8.991.751,3.225-.817,5.412-2.342,8.063-3.645,6.274-5.523,13.807,1.546,20.191,4.219,3.8,7.445,7.091,5.324,13.365-2.43,7.158-3.667,11.532,2.784,17.806,4.838,4.705,9.345,4.33,14.779,4.705,4.882.331,11.244,2.408,15.221-.862Z" transform="translate(-322.159 -244.244)"/><path class="d" d="M308.146,344.318c5.236,5.611,9.72,10.007,17.43,3.336,3.932-3.38,5.633-7.467,5.545-13.321-.088-4.595-.4-6.672,2.452-10.184,4.485-5.523,10.891-7.511,13.807-14.624,3.115-7.666-3.866-12.592-1.326-19.484,2.187-5.987,6.318-11.62,2.386-16.789-3.2-4.219-9.831-1.679-12.349,3.159-1.436,2.784-1.7,5.9-3.557,8.571-1.789,2.585-4.2,3.247-6.76,4.175-5.7,2.055-10.825,5.523-11.311,12.835-.287,4.529-.729,8.262-5.037,10.184-4.551,2.032-7.091,3.336-7.931,10.206-.663,5.3,1.06,8.306,2.85,12.548,1.7,4.065,3.137,10.427,6.826,12.747Z" transform="translate(-254.068 -238.929)"/><g transform="translate(9.431 34.498)"><path class="b" d="M352.969,335.672a3.568,3.568,0,0,0,.685-.044.53.53,0,0,0,.486-.6.5.5,0,0,0-.6-.486c-3.623.376-7.378-2.916-9.455-5.854-1.657-2.342-1.5-4.462-1.326-7.135l.133-2.209c.354-5.766.663-10.758-3.822-15.287-4.971-5.015-6.186-8.108-5.92-15.066.022-.574.044-1.171.088-1.767a28.8,28.8,0,0,0-.155-6.915,14.66,14.66,0,0,0-1.326-3.424,10.327,10.327,0,0,1-1.37-4.175.547.547,0,0,0-.552-.552h0a.561.561,0,0,0-.552.552,10.908,10.908,0,0,0,1.48,4.639A13.9,13.9,0,0,1,332,280.533a27.486,27.486,0,0,1,.133,6.627c-.044.619-.066,1.237-.088,1.812-.265,7.246,1.082,10.67,6.252,15.884,4.131,4.175,3.866,8.7,3.512,14.448l-.133,2.187c-.2,2.784-.376,5.191,1.524,7.842C345.414,332.447,349.1,335.672,352.969,335.672Z" transform="translate(-329.287 -272.16)"/></g><g transform="translate(6.123 63.73)"><path class="b" d="M348.829,304.341a2.976,2.976,0,0,0,2.3-1.193.549.549,0,0,0-.839-.707,1.751,1.751,0,0,1-1.856.751c-2.32-.574-4.838-5.545-5.258-7.4-1.215-5.479-2.651-8.284-8.019-10.361a.546.546,0,1,0-.4,1.016c5.147,1.988,6.23,4.551,7.334,9.565.354,1.657,2.96,7.467,6.053,8.24A3.411,3.411,0,0,0,348.829,304.341Z" transform="translate(-334.409 -285.392)"/></g><g transform="translate(50.872 43.293)"><path class="b" d="M307.938,335.343a6.315,6.315,0,0,0,2.916-.707c3.844-2.032,5.633-8,7.2-13.255a36.939,36.939,0,0,1,2.386-6.649,30.018,30.018,0,0,1,9.565-10.538c5.39-3.954,6.716-6.959,7.666-13.409.8-5.28,1.878-10.6,4.242-13.763a.552.552,0,0,0-.884-.663c-2.541,3.358-3.645,8.836-4.462,14.271-.928,6.23-2.121,8.925-7.246,12.68a31.646,31.646,0,0,0-9.875,10.891,39.586,39.586,0,0,0-2.474,6.87c-1.5,5.059-3.225,10.781-6.649,12.592a5.689,5.689,0,0,1-4.573.221.545.545,0,1,0-.331,1.038A8.118,8.118,0,0,0,307.938,335.343Z" transform="translate(-305.041 -276.141)"/></g><g transform="translate(69.239 56.269)"><path class="b" d="M313.3,301.069a.6.6,0,0,0,.331-.11.538.538,0,0,0,.088-.773c-1.613-2.1-.641-5.434.42-8.947.906-3.071,1.856-6.252,1.06-8.836a.545.545,0,0,0-1.038.331c.707,2.253-.2,5.28-1.06,8.174-1.082,3.645-2.209,7.4-.243,9.941A.516.516,0,0,0,313.3,301.069Z" transform="translate(-311.785 -282.015)"/></g><g transform="translate(64.687 67.297)"><path class="b" d="M305.211,302.5a.646.646,0,0,0,.2-.044,10.886,10.886,0,0,0,1.966-1.038,6.287,6.287,0,0,1,3.115-1.149,15.359,15.359,0,0,1,2.032.044,7.871,7.871,0,0,0,4.462-.641,24.345,24.345,0,0,0,7.511-6.583c.353-.442.817-1.127,1.281-1.856.685-1.038,1.966-3,2.452-3.115a.562.562,0,0,0-.2-1.1c-.862.155-1.767,1.458-3.181,3.6-.464.707-.906,1.37-1.215,1.767a24.47,24.47,0,0,1-7.135,6.3,6.75,6.75,0,0,1-3.888.53,14.165,14.165,0,0,0-2.187-.044,7.539,7.539,0,0,0-3.6,1.3,10.692,10.692,0,0,1-1.811.95.564.564,0,0,0,.2,1.083Z" transform="translate(-304.664 -287.007)"/></g><path class="g" d="M351.487,363.126c7.842-6.605,17.143-11.046,15.044-23.638-1.745-10.427-13.763-13.1-10.007-24.322,2.408-7.158,8.638-15.442,6.517-23.439-2.253-8.549-13.409-5.125-15.817-13.1-2.032-6.738,5.081-14.536-1.237-20.037-5.567-4.86-15.442-.243-18.424,5.324-3.822,7.135,2.5,12.415,1.458,19.374-.685,4.507-4.993,5.147-8.13,7.732-3.049,2.518-6.34,6.429-7.666,10.184-4.065,11.554,7.555,15.729,11.068,24.632,3.314,8.395-8,10.979-8.859,19.44-.95,9.345,9.057,16.7,17.1,18.225C338.056,364.539,346.539,367.3,351.487,363.126Z" transform="translate(-295.179 -256.544)"/><g transform="translate(41.385 18.161)"><path class="b" d="M328.845,355.9a.376.376,0,0,0,.155-.022.558.558,0,0,0,.376-.685c-.066-.221-6.318-21.649-.994-44.448,3.358-14.426.331-24.521-2.121-32.651-1.458-4.838-2.717-8.991-2.032-12.68a.55.55,0,1,0-1.082-.2c-.729,3.954.552,8.24,2.054,13.211,2.408,8,5.412,17.938,2.1,32.076-5.39,23.085.95,44.779,1.016,45A.544.544,0,0,0,328.845,355.9Z" transform="translate(-322.935 -264.765)"/></g><g transform="translate(27.434 40.212)"><path class="b" d="M342.247,298.546a.567.567,0,0,0,.552-.464.534.534,0,0,0-.464-.619c-4.573-.707-9.809-4.882-10.294-10.007-.066-.619-.088-1.281-.133-1.988-.2-3.358-.464-7.533-2.894-9.543a6,6,0,0,0-4.75-1.1.556.556,0,1,0,.133,1.1,4.912,4.912,0,0,1,3.91.862c2.077,1.723,2.3,5.633,2.5,8.77.044.707.088,1.392.155,2.032.552,5.81,6.274,10.228,11.244,10.979C342.181,298.524,342.2,298.546,342.247,298.546Z" transform="translate(-323.777 -274.747)"/></g><g transform="translate(46.052 38.43)"><path class="b" d="M319.667,299.654a8.288,8.288,0,0,0,5.457-1.944c2.231-1.944,3.358-5.368,3.247-9.853q-.033-.663-.066-1.524c-.155-3.181-.4-8,1.591-10.162a3.56,3.56,0,0,1,2.585-1.127.547.547,0,0,0,.53-.574.562.562,0,0,0-.574-.53h0a4.579,4.579,0,0,0-3.358,1.48c-2.3,2.5-2.032,7.6-1.878,10.957.022.552.044,1.06.066,1.5.11,4.153-.884,7.268-2.872,8.991-1.7,1.48-4.153,1.988-7.268,1.48a.559.559,0,0,0-.177,1.1A14.589,14.589,0,0,0,319.667,299.654Z" transform="translate(-316.479 -273.94)"/></g><g transform="translate(26.582 82.768)"><path class="b" d="M340.543,311.484a5.238,5.238,0,0,0,2.01-.376.562.562,0,0,0,.309-.729.554.554,0,0,0-.729-.309c-3.314,1.37-8.417-2.386-10.339-4.86a15.251,15.251,0,0,1-1.878-4.33c-.994-3.026-2.032-6.163-4.838-6.848a.529.529,0,0,0-.663.4.556.556,0,0,0,.4.663c2.209.552,3.137,3.38,4.043,6.119a15.7,15.7,0,0,0,2.077,4.661C332.634,308.126,336.832,311.484,340.543,311.484Z" transform="translate(-324.402 -294.01)"/></g><g transform="translate(44.508 73.654)"><path class="b" d="M319.654,316.251a6.737,6.737,0,0,0,2.143-.376c4.043-1.414,7.445-6.429,8.726-9.477.685-1.613.773-3.91.862-6.362.133-3.866.287-7.842,2.806-9.1a.558.558,0,1,0-.508-.994c-3.115,1.568-3.27,6.075-3.424,10.051-.088,2.32-.155,4.529-.773,5.965-1.171,2.739-4.374,7.577-8.063,8.859a4.827,4.827,0,0,1-4.065-.287.573.573,0,0,0-.751.221.552.552,0,0,0,.221.751A5.71,5.71,0,0,0,319.654,316.251Z" transform="translate(-316.535 -289.885)"/></g><g transform="translate(3.643 103.312)"><path class="h" d="M383.58,303.31a104.269,104.269,0,0,1,6.252,36.274c0,38.439-19.087,69.609-42.636,69.609s-42.636-31.171-42.636-69.609a103.67,103.67,0,0,1,6.252-36.274Z" transform="translate(-304.56 -303.31)"/><path class="d" d="M305.36,319.822a94.935,94.935,0,0,1,4.484-16.5h72.769a94.94,94.94,0,0,1,4.485,16.5Z" transform="translate(-303.593 -303.298)"/></g></g><ellipse class="b" cx="21.937" cy="21.937" rx="21.937" ry="21.937" transform="translate(80.302 200.242)"/></g></svg>