<svg xmlns="http://www.w3.org/2000/svg" width="14" height="14" viewBox="0 0 14 14"><defs><style>.a{fill:#fff;}</style></defs><path class="a" d="M3.281,104.475a3.7,3.7,0,0,1,.523-1.9v-2.36H1.444a7,7,0,0,0,0,8.52H3.8v-2.36A3.7,3.7,0,0,1,3.281,104.475Z" transform="translate(0 -97.475)"/><path class="a" d="M197.641,373.482,196,375.122l1.641,1.641a6.947,6.947,0,0,0,4.26-1.444v-2.357h-2.357A3.718,3.718,0,0,1,197.641,373.482Z" transform="translate(-190.641 -362.763)"/><path class="a" d="M55.183,325.477l-2.36,2.36a7.108,7.108,0,0,0,.606.69,6.954,6.954,0,0,0,4.95,2.05V327.3A3.72,3.72,0,0,1,55.183,325.477Z" transform="translate(-51.379 -316.577)"/><path class="a" d="M263,198.928a7.061,7.061,0,0,0-.115-1.268l-.062-.336H256v3.281h3.321a3.7,3.7,0,0,1-1.419,1.521l2.357,2.357a7.115,7.115,0,0,0,.69-.606A6.954,6.954,0,0,0,263,198.928Z" transform="translate(-249 -191.928)"/><path class="a" d="M200.27,4.37l.29.29,2.32-2.32-.29-.29A6.954,6.954,0,0,0,197.641,0L196,1.641l1.641,1.641A3.694,3.694,0,0,1,200.27,4.37Z" transform="translate(-190.641 0)"/><path class="a" d="M58.378,3.281V0a6.954,6.954,0,0,0-4.95,2.05,7.106,7.106,0,0,0-.606.69l2.36,2.36a3.72,3.72,0,0,1,3.2-1.819Z" transform="translate(-51.378 0)"/></svg>