<!DOCTYPE svg PUBLIC "-//W3C//DTD SVG 20010904//EN" "http://www.w3.org/TR/2001/REC-SVG-20010904/DTD/svg10.dtd">
<svg version="1.0" xmlns="http://www.w3.org/2000/svg" width="480px" height="480px" viewBox="0 0 4800 4800" preserveAspectRatio="xMidYMid meet">
<g id="layer101" fill="#454550" stroke="none">
<path d="M0 2400 l0 -2400 2400 0 2400 0 0 2400 0 2400 -2400 0 -2400 0 0 -2400z"/>
</g>
<g id="layer102" fill="#5d5d66" stroke="none">
<path d="M0 2400 l0 -2400 2400 0 2400 0 0 2400 0 2400 -2400 0 -2400 0 0 -2400z m2690 1102 c12 -41 20 -76 17 -78 -2 -2 -15 35 -29 82 -14 47 -22 82 -18 77 5 -4 18 -41 30 -81z m95 -57 c14 -53 25 -116 24 -139 -1 -31 -4 -21 -14 39 -10 68 -24 120 -60 230 -4 12 0 9 9 -6 9 -15 27 -71 41 -124z m-176 85 c0 -9 -4 -8 -9 5 -5 11 -9 27 -9 35 0 9 4 8 9 -5 5 -11 9 -27 9 -35z m239 -65 c0 -11 -6 3 -14 30 -7 28 -13 55 -13 60 2 17 27 -69 27 -90z m81 25 c0 -8 -7 1 -14 20 -18 46 -17 64 0 25 8 -16 14 -37 14 -45z m-440 -40 c0 -8 -7 1 -14 20 -18 46 -17 64 0 25 8 -16 14 -37 14 -45z m79 5 c0 -16 -2 -15 -8 5 -11 34 -11 60 0 35 5 -11 8 -29 8 -40z m-320 -30 c0 -16 -2 -15 -8 5 -11 34 -11 60 0 35 5 -11 8 -29 8 -40z m126 -9 c23 -77 19 -93 -4 -21 -20 62 -23 75 -16 75 3 0 12 -24 20 -54z m-50 -61 l5 -50 -13 55 c-7 30 -16 66 -19 80 -5 20 -4 19 7 -5 8 -17 17 -53 20 -80z m325 11 c2 -45 -6 -27 -12 29 -4 34 -3 42 3 25 4 -14 8 -38 9 -54z m-141 9 c0 -16 -2 -15 -8 5 -11 34 -11 60 0 35 5 -11 8 -29 8 -40z m-59 -14 c1 -35 -5 -22 -12 24 -5 28 -4 34 3 20 5 -11 9 -31 9 -44z m-240 -55 c2 -60 -6 -39 -12 34 -3 41 -2 54 3 35 4 -16 8 -48 9 -69z m839 -36 c0 -41 -3 -88 -7 -104 -3 -17 -6 30 -6 104 0 74 3 121 6 104 4 -16 7 -63 7 -104z m-85 -101 c-8 -65 -9 -56 -8 76 0 134 0 142 8 74 4 -42 4 -109 0 -150z m154 149 c-2 -13 -4 -5 -4 17 -1 22 1 32 4 23 2 -10 2 -28 0 -40z m-390 -5 c-3 -10 -5 -2 -5 17 0 19 2 27 5 18 2 -10 2 -26 0 -35z m-198 -108 c0 -38 -3 -88 -7 -109 -4 -23 -7 23 -7 109 0 86 3 132 7 109 4 -21 7 -70 7 -109z m-462 88 c-3 -10 -5 -2 -5 17 0 19 2 27 5 18 2 -10 2 -26 0 -35z m1153 -57 c8 1 24 5 35 9 11 3 7 -1 -8 -10 -41 -24 -57 -6 -55 59 l1 51 6 -55 c4 -41 10 -55 21 -54z m-811 -40 c1 -79 -6 -49 -12 49 -4 63 -3 77 3 45 5 -25 9 -67 9 -94z m188 -38 c-2 -35 -3 -9 -3 57 0 66 1 94 3 63 2 -32 2 -86 0 -120z m60 110 c-2 -13 -4 -3 -4 22 0 25 2 35 4 23 2 -13 2 -33 0 -45z m220 -120 c-2 -35 -3 -7 -3 62 0 69 1 97 3 63 2 -35 2 -91 0 -125z m-540 9 c-2 -23 -3 -1 -3 48 0 50 1 68 3 42 2 -26 2 -67 0 -90z m400 26 c-2 -21 -4 -4 -4 37 0 41 2 58 4 38 2 -21 2 -55 0 -75z m388 37 c-4 -34 -9 -59 -12 -57 -2 3 -1 33 3 66 4 34 9 60 11 57 3 -3 2 -32 -2 -66z m-848 -47 c-2 -21 -4 -4 -4 37 0 41 2 58 4 38 2 -21 2 -55 0 -75z m190 5 c-2 -18 -4 -6 -4 27 0 33 2 48 4 33 2 -15 2 -42 0 -60z m-390 -145 c-1 -43 -3 -10 -3 72 0 83 2 118 3 78 2 -40 2 -107 0 -150z m80 150 c-2 -16 -4 -5 -4 22 0 28 2 40 4 28 2 -13 2 -35 0 -50z m500 -30 c-2 -16 -4 -5 -4 22 0 28 2 40 4 28 2 -13 2 -35 0 -50z m-660 -185 c-1 -46 -3 -9 -3 82 0 91 2 128 3 83 2 -46 2 -120 0 -165z m1371 225 c-10 -2 -26 -2 -35 0 -10 3 -2 5 17 5 19 0 27 -2 18 -5z m-123 -43 c-38 -22 -74 -40 -80 -40 -5 0 22 18 60 40 39 21 75 39 80 39 6 0 -21 -17 -60 -39z m-1316 -234 c0 -60 -1 -107 -3 -105 -2 2 -5 83 -8 179 -3 99 -2 145 2 105 4 -38 8 -119 9 -179z m878 192 c-2 -13 -4 -5 -4 17 -1 22 1 32 4 23 2 -10 2 -28 0 -40z m-600 -65 c-2 -21 -4 -4 -4 37 0 41 2 58 4 38 2 -21 2 -55 0 -75z m-60 30 c-2 -16 -4 -5 -4 22 0 28 2 40 4 28 2 -13 2 -35 0 -50z m250 20 c-3 -10 -5 -2 -5 17 0 19 2 27 5 18 2 -10 2 -26 0 -35z m-560 -50 c-2 -16 -4 -3 -4 27 0 30 2 43 4 28 2 -16 2 -40 0 -55z m430 -15 c-2 -18 -4 -4 -4 32 0 36 2 50 4 33 2 -18 2 -48 0 -65z m380 35 c-3 -10 -5 -2 -5 17 0 19 2 27 5 18 2 -10 2 -26 0 -35z m-324 -14 c-6 -6 -7 3 -4 23 4 28 6 29 9 9 2 -13 0 -27 -5 -32z m-556 -139 c0 -54 0 -53 -7 15 -4 39 -7 93 -7 120 0 47 0 46 7 -15 4 -36 7 -90 7 -120z m1470 156 c-31 -13 -89 -43 -128 -66 -85 -50 -100 -45 -97 34 l2 51 3 -50 c2 -27 8 -54 13 -59 5 -5 34 7 67 27 73 44 163 87 183 87 8 0 -11 -11 -43 -24z m-522 -36 c-9 -41 -17 -33 -9 9 4 17 9 30 11 27 3 -2 2 -19 -2 -36z m-1026 -144 c2 -98 -6 -59 -12 59 -3 75 -2 92 3 55 4 -30 8 -82 9 -114z m1679 127 c-10 -2 -26 -2 -35 0 -10 3 -2 5 17 5 19 0 27 -2 18 -5z m-1521 -110 c-2 -21 -4 -4 -4 37 0 41 2 58 4 38 2 -21 2 -55 0 -75z m643 62 c-16 -47 -23 -40 -8 8 6 20 13 35 16 33 2 -3 -1 -21 -8 -41z m436 -27 c-1 -72 -1 -73 26 -76 14 -2 45 6 67 18 23 11 41 18 41 15 0 -10 -80 -45 -103 -45 -33 0 -47 18 -47 61 0 35 10 99 15 99 2 0 2 -33 1 -72z m364 62 c-34 -11 -60 -11 -35 0 11 5 29 8 40 8 16 0 15 -2 -5 -8z m-944 -54 c-42 -71 -88 -72 -84 -1 l1 30 4 -30 c3 -16 9 -34 14 -39 12 -13 54 27 70 65 6 16 14 27 17 25 2 -3 -7 -25 -22 -50z m428 15 c-4 -17 -9 -30 -11 -27 -3 2 -2 19 2 36 9 41 17 33 9 -9z m455 26 c-15 -12 -162 -86 -153 -78 13 14 136 80 148 81 5 0 7 -1 5 -3z m-386 -77 c-5 -55 -2 -75 11 -97 l17 -28 -20 24 c-22 24 -27 77 -15 140 10 51 13 36 7 -39z m-1236 -72 c-2 -24 -4 -5 -4 42 0 47 2 66 4 43 2 -24 2 -62 0 -85z m790 70 c-14 -24 -40 -56 -58 -73 -31 -28 -31 -27 4 13 21 24 45 58 54 77 9 19 19 33 21 30 2 -2 -7 -23 -21 -47z m264 -37 c-64 -151 -145 -248 -251 -301 -52 -26 -60 -35 -60 -71 0 -35 31 -72 93 -114 29 -19 47 -35 40 -35 -15 0 -107 74 -127 102 -34 48 -19 91 43 123 83 42 128 82 179 160 27 41 63 109 78 150 16 40 30 70 32 65 2 -5 -10 -40 -27 -79z m826 72 c-20 -2 -52 -2 -70 0 -17 2 0 4 38 4 39 0 53 -2 32 -4z m-1280 -65 c-2 -13 -4 -3 -4 22 0 25 2 35 4 23 2 -13 2 -33 0 -45z m1083 36 c-56 -17 -64 -17 -25 1 17 8 39 14 50 14 11 0 0 -7 -25 -15z m-771 -60 c-51 -85 -116 -143 -216 -194 -70 -36 -92 -52 -105 -80 -10 -19 -18 -28 -18 -19 0 32 42 69 126 111 95 47 170 117 214 200 13 26 26 45 29 43 2 -3 -11 -30 -30 -61z m279 -96 c27 -28 40 -32 104 -38 l73 -7 -60 -2 c-110 -2 -166 52 -164 159 l2 55 7 -68 c6 -58 11 -73 38 -99z m-699 -238 c48 -152 191 -302 351 -370 59 -25 177 -33 270 -18 36 6 40 5 20 -3 -14 -6 -62 -13 -106 -16 -107 -8 -194 18 -298 88 -98 65 -168 145 -216 244 -47 97 -61 179 -58 347 l1 123 8 -165 c5 -124 12 -181 28 -230z m62 306 c6 -21 22 -50 37 -64 23 -21 24 -23 5 -13 -30 15 -52 61 -57 113 -2 24 -2 34 1 23 2 -11 9 -37 14 -59z m288 52 c-43 -84 -128 -149 -191 -147 -31 1 -30 2 9 8 58 10 115 51 154 110 34 53 48 67 28 29z m780 17 c-9 -8 -79 -35 -79 -30 0 3 15 11 33 19 32 15 54 20 46 11z m-665 -85 c-42 -77 -87 -123 -153 -159 -33 -17 -76 -47 -96 -65 -31 -29 -35 -39 -35 -82 0 -46 3 -51 59 -105 32 -32 81 -69 107 -83 27 -14 45 -25 39 -25 -24 -1 -114 61 -162 112 -49 51 -53 60 -53 103 0 42 4 51 40 85 21 20 67 52 100 70 67 36 97 66 142 146 16 29 32 53 35 53 2 0 -8 -23 -23 -50z m536 25 c-25 -13 -49 -24 -55 -24 -5 0 10 11 35 24 25 13 50 24 55 24 6 0 -10 -11 -35 -24z m408 18 c-21 -2 -57 -2 -80 0 -24 2 -7 4 37 4 44 0 63 -2 43 -4z m-1981 -80 c-2 -16 -4 -3 -4 27 0 30 2 43 4 28 2 -16 2 -40 0 -55z m250 5 c-2 -13 -4 -3 -4 22 0 25 2 35 4 23 2 -13 2 -33 0 -45z m80 -5 c-2 -16 -4 -5 -4 22 0 28 2 40 4 28 2 -13 2 -35 0 -50z m853 48 c17 -33 12 -61 -10 -61 -25 0 -34 21 -26 55 8 30 21 32 36 6z m545 -5 c-38 -13 -79 -27 -90 -31 -11 -5 -17 -5 -13 -1 10 12 130 55 153 55 11 0 -11 -10 -50 -23z m-980 -14 c13 3 22 1 19 -3 -9 -15 -51 -10 -65 9 -13 15 -12 16 3 3 10 -7 29 -11 43 -9z m-578 -49 c-3 -10 -5 -2 -5 17 0 19 2 27 5 18 2 -10 2 -26 0 -35z m310 -100 c-2 -27 -3 -5 -3 47 0 52 1 74 3 48 2 -27 2 -69 0 -95z m-530 80 c-3 -10 -5 -2 -5 17 0 19 2 27 5 18 2 -10 2 -26 0 -35z m2031 40 c-15 -2 -42 -2 -60 0 -18 2 -6 4 27 4 33 0 48 -2 33 -4z m-1891 -55 c-2 -13 -4 -5 -4 17 -1 22 1 32 4 23 2 -10 2 -28 0 -40z m320 -25 c-2 -16 -4 -3 -4 27 0 30 2 43 4 28 2 -16 2 -40 0 -55z m1428 66 c-51 -10 -92 -10 -50 1 17 4 44 8 60 8 25 0 24 -2 -10 -9z m-320 -24 c-16 -8 -39 -14 -50 -14 -11 0 -2 6 20 14 52 17 68 17 30 0z m155 -15 c-86 -29 -126 -35 -48 -7 76 27 103 35 118 35 8 0 -23 -12 -70 -28z m-1663 -42 c-2 -13 -4 -5 -4 17 -1 22 1 32 4 23 2 -10 2 -28 0 -40z m170 5 c-3 -10 -5 -2 -5 17 0 19 2 27 5 18 2 -10 2 -26 0 -35z m160 -5 c-2 -13 -4 -5 -4 17 -1 22 1 32 4 23 2 -10 2 -28 0 -40z m304 31 l24 -21 -27 16 c-39 23 -41 21 -35 -31 4 -31 3 -41 -3 -28 -10 24 -12 69 -3 78 10 11 19 8 44 -14z m504 -1 c-11 -5 -44 -39 -73 -74 -29 -35 -68 -71 -85 -80 -71 -36 -82 -61 -45 -103 22 -26 22 -26 -6 1 -40 37 -31 67 33 101 27 15 69 51 92 80 51 62 77 87 93 86 6 0 2 -5 -9 -11z m90 -21 c38 -38 48 -83 43 -186 -2 -51 -7 -66 -23 -75 -18 -10 -18 -10 -3 3 14 10 18 28 18 75 -1 119 -27 183 -85 206 -18 8 -18 9 -1 9 10 1 33 -14 51 -32z m-1323 -87 c4 -67 2 -90 -3 -65 -8 39 -12 182 -5 174 2 -2 6 -51 8 -109z m45 33 c-2 -16 -4 -3 -4 27 0 30 2 43 4 28 2 -16 2 -40 0 -55z m1996 60 c-18 -2 -48 -2 -65 0 -18 2 -4 4 32 4 36 0 50 -2 33 -4z m-1273 -17 c0 -8 -15 -24 -32 -36 l-33 -22 28 26 c15 14 27 30 27 36 0 5 2 10 5 10 3 0 5 -6 5 -14z m870 1 c-119 -53 -152 -72 -175 -98 -29 -35 -32 -70 -9 -93 8 -9 11 -16 5 -16 -14 0 -31 34 -31 61 0 34 76 100 150 131 62 26 111 39 60 15z m288 6 c-10 -2 -28 -2 -40 0 -13 2 -5 4 17 4 22 1 32 -1 23 -4z m-1560 -113 c0 -16 -3 -11 -9 15 -4 22 -8 51 -7 65 0 16 3 11 9 -15 4 -22 8 -51 7 -65z m1092 90 c13 -9 12 -12 -4 -25 -34 -25 -65 -13 -52 20 6 17 34 19 56 5z m270 -20 c-87 -29 -125 -34 -48 -7 76 27 103 35 118 35 8 0 -23 -12 -70 -28z m-1424 -158 c-6 -5 -36 133 -35 160 0 13 9 -17 19 -67 11 -49 18 -91 16 -93z m201 121 c-3 -10 -5 -2 -5 17 0 19 2 27 5 18 2 -10 2 -26 0 -35z m783 27 c21 -21 27 -95 10 -135 -4 -12 -6 6 -3 43 5 51 3 66 -12 82 -10 11 -23 20 -29 20 -6 0 -38 -28 -71 -62 -33 -35 -69 -68 -80 -74 -17 -10 -18 -13 -6 -28 12 -14 12 -16 -3 -10 -27 10 -19 40 14 54 17 7 47 34 67 59 62 78 79 85 113 51z m-842 -90 c0 -16 -3 -11 -9 15 -4 22 -8 51 -7 65 0 16 3 11 9 -15 4 -22 8 -51 7 -65z m-240 15 c0 -16 -2 -15 -8 5 -4 14 -8 36 -8 50 0 22 1 22 8 -5 4 -16 8 -39 8 -50z m-261 -2 c-2 -16 -4 -5 -4 22 0 28 2 40 4 28 2 -13 2 -35 0 -50z m1665 45 c-41 -20 -18 -33 59 -32 51 1 65 -1 44 -6 -69 -17 -135 -10 -135 16 0 13 27 34 45 33 6 0 0 -5 -13 -11z m470 4 c9 -4 -30 -7 -88 -8 -57 0 -104 3 -104 8 0 10 167 10 192 0z m-1954 -77 c0 -16 -2 -15 -8 5 -4 14 -8 36 -8 50 0 22 1 22 8 -5 4 -16 8 -39 8 -50z m1896 49 c26 -9 45 -18 43 -20 -2 -2 -28 5 -58 15 -30 11 -49 20 -43 20 6 1 32 -6 58 -15z m-1465 -172 c64 -161 210 -306 373 -368 35 -14 50 -22 33 -19 -79 16 -210 99 -287 183 -83 89 -150 226 -162 327 -5 49 -5 49 8 -10 8 -33 24 -84 35 -113z m687 156 c4 -6 3 -8 -3 -5 -6 4 -17 -1 -25 -11 -29 -34 -30 -42 -4 -42 13 0 27 7 29 15 4 11 4 10 3 -2 -1 -13 -11 -19 -34 -21 -39 -4 -40 7 -6 47 29 35 30 35 40 19z m552 -5 c-10 -2 -26 -2 -35 0 -10 3 -2 5 17 5 19 0 27 -2 18 -5z m-1199 -73 c0 -9 -4 -8 -9 5 -5 11 -9 27 -9 35 0 9 4 8 9 -5 5 -11 9 -27 9 -35z m1381 24 c39 -15 69 -28 67 -30 -2 -2 -39 9 -83 26 -43 16 -74 29 -67 30 6 0 44 -12 83 -26z m-2017 -54 c3 -41 2 -54 -3 -35 -8 31 -13 112 -6 104 2 -2 6 -33 9 -69z m136 -55 c-1 -21 -27 61 -27 85 0 15 5 5 14 -25 7 -27 13 -54 13 -60z m1629 98 c-21 -2 -55 -2 -75 0 -21 2 -4 4 37 4 41 0 58 -2 38 -4z m-153 -14 c-51 -10 -92 -10 -50 1 17 4 44 8 60 8 25 0 24 -2 -10 -9z m260 1 c25 -11 -1 -11 -35 0 -20 6 -21 8 -5 8 11 0 29 -3 40 -8z m-1501 -75 c4 -20 3 -25 -3 -15 -5 8 -11 31 -15 50 -7 41 7 13 18 -35z m154 -15 c0 -8 -6 1 -13 20 -7 19 -13 42 -13 50 0 8 6 -1 13 -20 7 -19 13 -42 13 -50z m797 70 c-12 -20 -83 -31 -126 -20 -23 6 -39 13 -37 15 2 2 22 -1 43 -6 38 -10 51 -7 123 20 2 0 0 -3 -3 -9z m-1378 -47 c-3 -10 -5 -2 -5 17 0 19 2 27 5 18 2 -10 2 -26 0 -35z m342 -3 c0 -9 -4 -8 -9 5 -5 11 -9 27 -9 35 0 9 4 8 9 -5 5 -11 9 -27 9 -35z m160 0 c0 -9 -4 -8 -9 5 -5 11 -9 27 -9 35 0 9 4 8 9 -5 5 -11 9 -27 9 -35z m446 -78 c36 -34 92 -75 123 -92 65 -33 64 -40 -1 -10 -89 42 -228 180 -227 224 1 6 9 -5 20 -25 10 -19 48 -63 85 -97z m-677 33 c0 -5 -6 4 -13 20 -8 17 -14 37 -14 45 0 8 7 -1 14 -20 7 -19 13 -39 13 -45z m973 35 c12 0 20 -3 16 -6 -9 -10 -71 4 -93 21 -17 13 -14 13 18 0 21 -8 47 -15 59 -15z m875 -8 c-5 -4 -66 26 -66 33 0 3 16 -3 35 -12 19 -9 33 -18 31 -21z m-2169 -34 c-2 -13 -4 -5 -4 17 -1 22 1 32 4 23 2 -10 2 -28 0 -40z m1438 42 c-11 -5 -36 -8 -55 -8 l-35 1 40 7 c57 10 74 10 50 0z m324 6 c-2 -2 -33 -6 -69 -9 -41 -3 -54 -2 -35 3 31 8 112 13 104 6z m205 -11 c69 -18 187 -63 201 -77 6 -6 -8 -2 -30 7 -83 35 -152 57 -220 70 -39 7 -57 14 -40 14 17 1 57 -6 89 -14z m-1758 -113 c-5 -5 -36 89 -35 107 0 9 9 -11 19 -44 11 -32 18 -61 16 -63z m373 51 c11 -29 19 -53 16 -53 -5 0 -28 52 -40 91 -13 40 2 17 24 -38z m1026 47 c-11 -5 -27 -9 -35 -9 -9 0 -8 4 5 9 11 5 27 9 35 9 9 0 8 -4 -5 -9z m-1332 -70 c38 -101 39 -107 22 -76 -15 25 -55 131 -55 144 0 13 11 -9 33 -68z m264 -52 c18 -38 31 -68 28 -68 -7 0 -71 130 -79 160 l-6 25 12 -25 c6 -14 27 -55 45 -92z m998 102 c-11 -5 -29 -8 -40 -8 -16 0 -15 2 5 8 34 11 60 11 35 0z m-1061 -284 c86 -121 169 -202 316 -309 14 -10 18 -15 10 -11 -46 22 -145 102 -215 175 -92 96 -179 222 -230 332 -53 114 -42 106 18 -13 28 -58 74 -137 101 -174z m265 119 c44 -59 122 -127 195 -174 28 -17 46 -31 40 -31 -22 0 -124 78 -189 145 -65 66 -125 152 -140 200 -4 11 7 -4 24 -34 17 -30 49 -78 70 -106z m151 45 c25 -25 63 -61 85 -79 25 -20 28 -25 9 -12 -55 36 -128 107 -162 157 -23 34 -25 39 -5 14 15 -19 48 -55 73 -80z m369 94 c10 -9 -35 -3 -49 6 -11 8 -7 9 15 4 17 -4 32 -8 34 -10z m584 9 c-18 -2 -48 -2 -65 0 -18 2 -4 4 32 4 36 0 50 -2 33 -4z m-1688 -121 c-4 -5 -35 97 -34 112 0 6 9 -16 20 -49 10 -32 16 -61 14 -63z m-91 -117 c14 -38 23 -71 22 -73 -12 -11 -87 240 -85 282 0 12 9 -15 19 -59 10 -44 30 -111 44 -150z m1279 218 c-13 -2 -35 -2 -50 0 -16 2 -5 4 22 4 28 0 40 -2 28 -4z m272 -13 c-38 -10 -74 -19 -80 -18 -21 1 101 37 125 37 14 0 -6 -9 -45 -19z m380 10 c25 -11 -1 -11 -35 0 -20 6 -21 8 -5 8 11 0 29 -3 40 -8z m85 -32 c10 -6 7 -7 -10 -2 -14 3 -32 11 -40 16 -10 6 -7 7 10 2 14 -3 32 -11 40 -16z m-1621 -45 c12 -24 19 -43 16 -43 -5 0 -45 75 -45 86 0 11 6 2 29 -43z m1041 37 c-14 -4 -38 -8 -55 -8 -29 1 -29 1 5 8 50 11 83 11 50 0z m-1392 -110 c0 -8 -8 8 -18 35 -10 28 -18 57 -18 65 0 8 8 -7 18 -35 10 -27 18 -57 18 -65z m1760 103 c-26 -2 -71 -2 -100 0 -29 2 -8 3 47 3 55 0 79 -1 53 -3z m-1628 -72 c-1 -13 -29 45 -29 59 0 8 6 0 14 -19 8 -18 15 -36 15 -40z m394 24 c58 -98 142 -182 272 -273 11 -7 0 -3 -23 9 -84 44 -221 188 -272 287 -21 40 -4 23 23 -23z m744 38 c-15 -2 -42 -2 -60 0 -18 2 -6 4 27 4 33 0 48 -2 33 -4z m597 -3 c25 -11 -1 -11 -35 0 -20 6 -21 8 -5 8 11 0 29 -3 40 -8z m96 -31 c27 -12 48 -23 46 -25 -2 -2 -30 8 -63 21 -32 14 -53 25 -46 25 7 0 36 -10 63 -21z m-1887 -69 c5 -17 4 -20 -2 -10 -5 8 -13 26 -16 40 -5 17 -4 20 2 10 5 -8 13 -26 16 -40z m1085 34 c9 -8 -55 -2 -74 6 -13 6 -5 7 25 3 25 -3 47 -7 49 -9z m139 -1 c-10 -2 -28 -2 -40 0 -13 2 -5 4 17 4 22 1 32 -1 23 -4z m341 3 c-2 -2 -35 -6 -74 -8 -40 -3 -61 -2 -50 3 19 7 132 13 124 5z m119 -3 c-15 -2 -42 -2 -60 0 -18 2 -6 4 27 4 33 0 48 -2 33 -4z m-1500 -221 c126 -184 281 -305 542 -421 l25 -11 -25 6 c-50 11 -194 85 -269 138 -142 101 -288 271 -370 433 -46 92 -37 91 12 -2 23 -44 62 -108 85 -143z m193 110 c97 -134 247 -255 393 -317 36 -15 64 -30 62 -32 -9 -9 -158 67 -228 116 -114 79 -253 229 -297 321 -9 21 -9 22 1 7 7 -11 38 -53 69 -95z m-211 58 c11 -22 18 -40 15 -40 -2 0 -14 18 -25 40 -11 22 -18 40 -15 40 2 0 14 -18 25 -40z m306 -65 c61 -75 170 -162 259 -207 44 -21 69 -36 55 -32 -112 31 -324 205 -383 315 l-18 34 23 -30 c13 -16 41 -52 64 -80z m914 91 c-20 -8 -51 -16 -70 -19 -23 -4 -17 0 20 13 61 21 105 26 50 6z m-1565 -114 c-4 -5 -35 97 -34 112 0 6 9 -16 20 -49 10 -32 16 -61 14 -63z m2030 103 c39 -17 21 -18 -25 0 -19 7 -28 14 -20 14 8 0 29 -6 45 -14z m-1748 -320 c73 -98 186 -206 276 -264 71 -46 93 -68 30 -30 -112 68 -251 200 -336 320 -44 62 -147 261 -147 284 0 6 27 -44 59 -110 32 -66 86 -156 118 -200z m-332 157 c-4 -5 -35 97 -34 112 0 6 9 -16 20 -49 10 -32 16 -61 14 -63z m1653 111 c-10 -2 -26 -2 -35 0 -10 3 -2 5 17 5 19 0 27 -2 18 -5z m190 0 c-10 -2 -26 -2 -35 0 -10 3 -2 5 17 5 19 0 27 -2 18 -5z m-1471 -198 c65 -90 134 -164 214 -227 44 -34 79 -63 79 -65 0 -2 -21 11 -47 29 -62 42 -189 168 -240 238 -46 64 -123 192 -123 205 0 6 18 -22 41 -60 22 -38 56 -92 76 -120z m106 104 c95 -136 240 -261 402 -346 93 -49 95 -58 2 -12 -82 41 -168 100 -244 166 -64 55 -173 184 -207 245 -26 46 -8 25 47 -53z m1047 71 c-14 -4 -36 -8 -50 -8 -22 0 -22 1 5 8 17 4 39 8 50 8 16 0 15 -2 -5 -8z m-1407 -167 c48 -102 118 -203 204 -294 58 -61 91 -89 203 -172 25 -18 25 -18 -5 -1 -103 58 -257 210 -336 331 -51 79 -111 198 -123 243 l-6 25 12 -25 c6 -14 29 -62 51 -107z m165 -133 c130 -174 244 -262 492 -378 l25 -12 -25 6 c-44 11 -181 83 -249 131 -137 98 -286 273 -365 430 -43 86 -29 74 20 -17 25 -47 71 -119 102 -160z m1270 233 c-10 -2 -28 -2 -40 0 -13 2 -5 4 17 4 22 1 32 -1 23 -4z m230 0 c-10 -2 -28 -2 -40 0 -13 2 -5 4 17 4 22 1 32 -1 23 -4z m-550 -10 c-10 -2 -26 -2 -35 0 -10 3 -2 5 17 5 19 0 27 -2 18 -5z m235 0 c-13 -2 -35 -2 -50 0 -16 2 -5 4 22 4 28 0 40 -2 28 -4z m395 0 c-10 -2 -26 -2 -35 0 -10 3 -2 5 17 5 19 0 27 -2 18 -5z m-511 -10 c-20 -2 -52 -2 -70 0 -17 2 0 4 38 4 39 0 53 -2 32 -4z m-1208 -271 c67 -100 146 -187 225 -249 131 -102 126 -98 91 -77 -101 59 -233 188 -314 307 -50 75 -123 213 -135 257 -4 14 15 -21 42 -77 28 -55 68 -128 91 -161z m981 238 c44 -14 52 -18 25 -14 -33 5 -110 31 -95 33 3 0 34 -9 70 -19z m-1150 -79 c-1 -13 -29 45 -29 59 0 8 6 0 14 -19 8 -18 15 -36 15 -40z m1110 12 c3 -3 -6 -2 -19 2 -39 12 -91 35 -91 40 0 5 102 -34 110 -42z m158 40 c-10 -2 -26 -2 -35 0 -10 3 -2 5 17 5 19 0 27 -2 18 -5z m315 0 c-13 -2 -35 -2 -50 0 -16 2 -5 4 22 4 28 0 40 -2 28 -4z m-160 -10 c-24 -2 -62 -2 -85 0 -24 2 -5 4 42 4 47 0 66 -2 43 -4z m397 -3 c29 -5 9 -6 -60 -2 -58 2 -107 6 -109 8 -8 7 124 3 169 -6z m-625 -45 c58 -14 59 -14 11 -9 -27 3 -58 9 -70 14 -32 13 -8 11 59 -5z m-1043 -256 c60 -81 178 -198 252 -248 26 -18 84 -52 129 -77 89 -47 99 -61 14 -18 -206 104 -388 284 -503 497 -24 45 -44 87 -44 92 0 6 22 -31 49 -81 26 -50 73 -124 103 -165z m1166 234 c-10 -2 -26 -2 -35 0 -10 3 -2 5 17 5 19 0 27 -2 18 -5z m220 -10 c-32 -2 -84 -2 -115 0 -32 2 -6 3 57 3 63 0 89 -1 58 -3z m170 -10 c-21 -2 -55 -2 -75 0 -21 2 -4 4 37 4 41 0 58 -2 38 -4z m120 -10 c-10 -2 -28 -2 -40 0 -13 2 -5 4 17 4 22 1 32 -1 23 -4z m80 -10 c-10 -2 -26 -2 -35 0 -10 3 -2 5 17 5 19 0 27 -2 18 -5z m-733 -13 c25 -11 -1 -11 -35 0 -20 6 -21 8 -5 8 11 0 29 -3 40 -8z m344 -46 c7 -7 -112 -2 -169 6 -37 5 -20 6 55 3 61 -3 112 -7 114 -9z m-1434 -169 c28 -38 90 -110 140 -159 53 -54 70 -74 42 -51 -92 74 -216 227 -271 332 -27 53 -18 52 12 -2 15 -28 50 -82 77 -120z m905 110 c0 -3 -22 6 -50 20 -27 14 -50 28 -50 30 0 3 23 -6 50 -20 28 -14 50 -28 50 -30z m713 48 c-29 -2 -77 -2 -105 0 -29 2 -6 3 52 3 58 0 81 -1 53 -3z m-558 -23 c13 -5 14 -9 5 -9 -8 0 -24 4 -35 9 -13 5 -14 9 -5 9 8 0 24 -4 35 -9z m170 -39 c34 -7 35 -9 10 -9 -16 0 -43 4 -60 8 -42 11 -1 11 50 1z m103 -18 c-10 -2 -28 -2 -40 0 -13 2 -5 4 17 4 22 1 32 -1 23 -4z m360 0 c-10 -2 -28 -2 -40 0 -13 2 -5 4 17 4 22 1 32 -1 23 -4z m-145 -10 c-35 -2 -91 -2 -125 0 -35 2 -7 3 62 3 69 0 97 -1 63 -3z m-488 -13 c13 -5 14 -9 5 -9 -8 0 -24 4 -35 9 -13 5 -14 9 -5 9 8 0 24 -4 35 -9z m-104 -36 c24 -8 76 -24 114 -34 39 -10 60 -19 48 -19 -24 -1 -213 57 -213 64 0 7 4 6 51 -11z m-137 -103 c-5 -5 -162 72 -189 93 -11 8 28 -8 86 -37 59 -29 105 -54 103 -56z m411 100 c34 -7 35 -9 10 -9 -16 0 -43 4 -60 8 -42 11 -1 11 50 1z m113 -18 c-10 -2 -28 -2 -40 0 -13 2 -5 4 17 4 22 1 32 -1 23 -4z m300 0 c-10 -2 -28 -2 -40 0 -13 2 -5 4 17 4 22 1 32 -1 23 -4z m-125 -10 c-24 -2 -62 -2 -85 0 -24 2 -5 4 42 4 47 0 66 -2 43 -4z m-265 -40 c-10 -2 -26 -2 -35 0 -10 3 -2 5 17 5 19 0 27 -2 18 -5z m-248 -13 c20 -6 21 -8 5 -8 -11 0 -29 3 -40 8 -25 11 1 11 35 0z m468 3 c-32 -2 -86 -2 -120 0 -35 2 -9 3 57 3 66 0 94 -1 63 -3z m-712 -70 c-4 -5 -116 44 -116 51 0 2 27 -7 60 -21 33 -15 58 -28 56 -30z m124 33 c25 -8 36 -15 25 -15 -11 0 -33 6 -50 14 -39 18 -31 18 25 1z m308 -3 c-10 -2 -28 -2 -40 0 -13 2 -5 4 17 4 22 1 32 -1 23 -4z m327 -3 c-16 -4 -93 -7 -170 -7 l-140 1 145 6 c80 3 156 6 170 7 21 1 21 0 -5 -7z m-1288 -225 c91 -59 104 -69 48 -39 -81 44 -205 146 -265 219 -13 17 16 -8 65 -55 50 -47 118 -103 152 -125z m891 178 c-10 -2 -28 -2 -40 0 -13 2 -5 4 17 4 22 1 32 -1 23 -4z m-454 -92 c-4 -5 -174 76 -174 83 0 2 40 -14 89 -37 49 -23 87 -44 85 -46z m699 82 c-40 -2 -106 -2 -145 0 -40 1 -8 3 72 3 80 0 112 -2 73 -3z m-428 -18 c58 -14 59 -14 11 -9 -27 3 -58 9 -70 14 -32 13 -8 11 59 -5z m-425 -70 c0 -3 -18 4 -40 15 -22 11 -40 23 -40 25 0 3 18 -4 40 -15 22 -11 40 -23 40 -25z m340 23 c18 -5 13 -6 -15 -2 -22 3 -47 10 -55 15 -16 10 24 3 70 -13z m293 15 c-13 -2 -35 -2 -50 0 -16 2 -5 4 22 4 28 0 40 -2 28 -4z m235 0 c-16 -2 -40 -2 -55 0 -16 2 -3 4 27 4 30 0 43 -2 28 -4z m-1038 -110 c0 -7 -58 29 -88 55 -15 13 -1 6 31 -14 31 -20 57 -39 57 -41z m421 52 c38 -12 39 -14 9 -8 -19 3 -48 12 -65 19 -34 15 -10 11 56 -11z m317 8 c-15 -2 -42 -2 -60 0 -18 2 -6 4 27 4 33 0 48 -2 33 -4z m235 0 c-13 -2 -33 -2 -45 0 -13 2 -3 4 22 4 25 0 35 -2 23 -4z m-105 -10 c-15 -2 -42 -2 -60 0 -18 2 -6 4 27 4 33 0 48 -2 33 -4z m-568 -28 c19 -7 28 -14 20 -14 -8 0 -28 6 -45 14 -39 17 -21 18 25 0z m269 -1 c8 -7 -54 -2 -79 6 -17 6 -9 7 25 3 28 -3 52 -7 54 -9z m84 -11 c-13 -2 -35 -2 -50 0 -16 2 -5 4 22 4 28 0 40 -2 28 -4z m165 -10 c-21 -2 -57 -2 -80 0 -24 2 -7 4 37 4 44 0 63 -2 43 -4z m-673 -72 c-5 -4 -135 56 -135 63 0 2 31 -10 69 -27 38 -18 68 -33 66 -36z m165 23 c41 -13 67 -23 58 -23 -21 -1 -178 48 -178 55 0 3 10 2 23 -2 12 -4 56 -18 97 -30z m165 26 c27 -7 27 -8 5 -8 -14 0 -38 4 -55 8 -27 7 -27 8 -5 8 14 0 39 -4 55 -8z m93 -17 c-10 -2 -26 -2 -35 0 -10 3 -2 5 17 5 19 0 27 -2 18 -5z m185 -10 c-29 -2 -77 -2 -105 0 -29 2 -6 3 52 3 58 0 81 -1 53 -3z m-645 -73 c3 0 3 -2 0 -5 -5 -6 -118 42 -118 50 0 2 25 -6 56 -20 31 -14 59 -25 62 -25z m187 9 c14 -6 9 -7 -15 -3 -19 4 -44 11 -55 15 -14 6 -9 7 15 3 19 -4 44 -11 55 -15z m348 14 c-23 -2 -64 -2 -90 0 -26 2 -7 3 42 3 50 0 71 -1 48 -3z m-463 -48 c19 -7 28 -13 20 -13 -8 0 -31 6 -50 13 -19 7 -28 13 -20 13 8 0 31 -6 50 -13z m238 8 c-10 -2 -26 -2 -35 0 -10 3 -2 5 17 5 19 0 27 -2 18 -5z m85 -10 c-13 -2 -33 -2 -45 0 -13 2 -3 4 22 4 25 0 35 -2 23 -4z"/>
<path d="M2687 2823 c-13 -13 -7 -53 8 -53 8 0 15 8 15 18 0 22 -14 44 -23 35z"/>
</g>
<g id="layer103" fill="#6d6d74" stroke="none">
<path d="M0 2400 l0 -2400 2400 0 2400 0 0 2400 0 2400 -2400 0 -2400 0 0 -2400z m2695 1086 c54 -190 57 -329 10 -490 -62 -213 -158 -357 -279 -418 -91 -45 -100 -84 -36 -148 107 -107 213 -120 460 -55 231 61 375 52 574 -34 84 -37 45 -32 -49 6 -178 71 -309 73 -544 11 -150 -40 -273 -44 -342 -12 -65 30 -149 113 -149 146 0 44 10 58 62 84 124 63 218 192 281 389 63 195 61 327 -8 549 -13 44 -20 75 -15 70 5 -5 20 -49 35 -98z m94 -51 c18 -74 40 -267 28 -255 -2 3 -10 52 -17 109 -6 57 -22 140 -35 185 -13 45 -26 90 -29 101 -4 11 2 2 13 -20 11 -22 29 -76 40 -120z m-236 93 c70 -229 63 -477 -18 -643 -51 -105 -107 -162 -211 -217 -136 -72 -159 -108 -128 -202 23 -70 133 -180 225 -225 123 -60 216 -59 464 4 206 52 340 47 499 -20 69 -29 33 -24 -54 7 -66 24 -107 32 -186 35 -94 5 -112 3 -270 -37 -281 -70 -390 -59 -542 55 -119 90 -179 199 -153 278 15 45 40 66 139 117 128 66 201 158 244 306 20 69 23 100 22 239 -1 147 -4 168 -31 258 -17 53 -27 97 -23 97 3 0 14 -24 23 -52z m73 -44 c62 -221 35 -512 -64 -679 -47 -80 -86 -120 -152 -157 -103 -59 -129 -87 -130 -143 0 -43 31 -87 97 -140 90 -71 148 -89 273 -88 84 0 129 7 225 32 149 39 238 47 335 31 76 -13 225 -64 235 -81 4 -5 -14 0 -39 11 -181 77 -324 85 -521 30 -103 -29 -136 -34 -235 -34 -109 -1 -118 1 -180 30 -174 84 -246 202 -172 284 15 17 63 53 107 79 72 43 85 56 130 128 58 90 79 149 102 278 21 123 13 279 -21 408 -27 101 -30 114 -21 105 3 -3 17 -45 31 -94z m235 -67 c24 -126 25 -291 2 -395 -25 -107 -24 -199 1 -218 43 -31 124 -13 288 65 111 53 222 81 307 80 65 -2 65 -2 -24 -10 -100 -8 -175 -32 -335 -105 -79 -36 -120 -49 -166 -52 -57 -4 -62 -2 -82 23 -27 35 -29 104 -5 183 14 44 18 94 18 217 0 156 -7 205 -50 362 -3 10 2 2 11 -17 9 -19 25 -79 35 -133z m-382 72 c76 -217 63 -458 -34 -619 -55 -91 -121 -140 -188 -140 -99 0 -138 120 -117 361 7 82 7 148 1 194 -22 157 -22 154 -4 95 12 -42 15 -90 13 -205 -7 -321 -1 -365 52 -410 109 -92 277 95 309 344 18 139 -3 277 -66 436 -6 15 -5 17 4 9 6 -5 20 -35 30 -65z m466 -49 c25 -114 29 -231 10 -330 -38 -203 -39 -211 -29 -228 20 -32 56 -25 143 28 46 28 109 62 140 75 71 29 203 49 257 37 34 -8 30 -9 -36 -9 -106 0 -204 -27 -297 -80 -148 -86 -184 -98 -211 -71 -18 18 -14 90 9 181 29 112 28 290 -1 402 -11 44 -23 89 -26 100 -3 15 -1 13 9 -5 8 -14 22 -59 32 -100z m-520 19 c14 -45 31 -124 37 -176 23 -178 -29 -361 -127 -452 -111 -102 -157 -14 -136 259 11 141 3 250 -25 350 -4 14 -4 22 0 19 4 -4 14 -31 23 -60 12 -43 15 -102 14 -291 -2 -307 9 -341 97 -288 32 20 87 97 110 155 20 49 42 166 42 223 0 68 -34 236 -60 297 -23 53 -24 59 -10 50 5 -3 21 -42 35 -86z m-66 7 c68 -181 65 -372 -9 -515 -24 -48 -66 -74 -81 -50 -5 8 -8 109 -7 224 2 177 0 221 -16 278 -10 38 -16 71 -13 73 3 3 14 -30 24 -73 15 -65 18 -112 15 -285 -2 -144 1 -208 8 -213 19 -12 58 35 80 93 49 131 46 297 -9 452 -31 88 -24 102 8 16z m669 -35 c25 -102 28 -206 7 -301 -17 -77 -19 -146 -5 -155 6 -4 33 7 59 24 72 47 160 87 216 99 86 19 129 23 145 12 11 -7 -2 -10 -45 -10 -92 0 -185 -33 -307 -108 -48 -29 -60 -33 -73 -22 -19 16 -19 66 1 171 19 100 14 211 -14 312 -11 37 -16 67 -13 67 4 0 17 -40 29 -89z m-717 -8 c21 -67 24 -98 24 -220 0 -109 -3 -145 -14 -155 -12 -11 -13 -10 -6 7 4 11 10 61 12 111 6 99 -7 196 -38 283 -22 63 -22 64 -11 57 5 -3 20 -40 33 -83z m806 -67 c14 -81 15 -109 5 -164 -6 -36 -9 -69 -6 -74 10 -16 37 -7 117 36 80 43 167 68 167 48 0 -5 -22 -12 -49 -14 -32 -3 -68 -17 -109 -42 -68 -41 -131 -58 -133 -35 -1 8 -1 66 0 129 2 78 -3 134 -13 173 -18 66 -19 79 -6 56 5 -9 17 -60 27 -113z m72 11 c6 -28 12 -70 13 -92 3 -46 7 -47 86 -16 28 12 52 16 52 11 0 -6 -6 -10 -14 -10 -7 0 -34 -9 -59 -20 -60 -27 -77 -19 -77 34 0 40 -9 85 -25 135 -5 15 -4 21 3 17 6 -3 15 -30 21 -59z m-1114 -397 c0 -242 5 -380 12 -410 54 -207 253 -398 449 -430 79 -13 145 -5 299 38 105 28 148 35 225 36 102 0 224 -23 294 -55 47 -22 35 -20 -89 16 -81 23 -103 26 -215 22 -108 -3 -142 -9 -248 -40 -206 -61 -331 -46 -476 57 -114 81 -193 183 -238 306 -22 64 -23 73 -23 425 0 198 -4 383 -8 410 -6 45 -6 47 5 20 8 -21 12 -140 13 -395z m-85 286 c6 -38 15 -211 19 -385 8 -283 11 -323 30 -384 66 -205 244 -372 446 -417 39 -9 39 -9 -10 -5 -86 8 -186 66 -284 164 -167 167 -188 239 -201 713 -5 183 -12 347 -16 363 -4 17 -4 28 -1 25 3 -3 11 -37 17 -74z m-70 -159 c5 -73 14 -213 19 -312 12 -210 30 -312 77 -413 38 -83 53 -104 132 -186 155 -159 290 -199 586 -171 186 18 332 10 471 -26 73 -19 123 -39 65 -26 -14 3 -58 12 -97 21 -148 33 -262 38 -426 20 -232 -25 -346 -8 -483 71 -70 40 -203 179 -241 250 -68 129 -87 239 -104 590 -5 121 -14 247 -19 280 -12 73 -12 87 0 57 6 -13 14 -82 20 -155z m-82 -9 c6 -62 16 -180 22 -262 18 -253 52 -416 107 -516 104 -187 254 -308 438 -355 57 -15 118 -19 330 -20 250 -2 410 -17 479 -45 29 -12 -1 -12 -44 0 -79 21 -228 33 -460 35 -278 2 -317 8 -440 68 -120 58 -247 185 -308 307 -77 154 -93 244 -127 685 -16 210 -17 215 -11 215 2 0 8 -51 14 -112z m948 -84 c-30 -115 -32 -166 -8 -214 41 -84 160 -92 324 -22 154 66 222 83 338 87 l105 4 -95 -9 c-125 -11 -177 -23 -285 -69 -171 -73 -270 -89 -342 -54 -77 36 -91 114 -48 279 14 53 26 113 27 133 l1 36 4 -36 c2 -20 -7 -81 -21 -135z m-1016 -63 c27 -383 82 -599 190 -757 46 -66 158 -173 224 -213 139 -83 252 -109 543 -121 246 -10 424 -28 438 -42 7 -7 4 -8 -10 -5 -36 11 -217 26 -385 32 -397 16 -538 60 -707 219 -197 185 -274 415 -308 911 -3 50 -8 108 -11 130 -3 27 -2 35 4 25 5 -8 15 -89 22 -179z m-80 -37 c19 -266 72 -500 149 -651 42 -84 140 -211 205 -267 106 -90 223 -150 371 -187 90 -23 336 -48 495 -50 58 0 128 -4 155 -9 52 -8 30 -8 -300 5 -424 18 -663 121 -849 365 -115 151 -185 348 -220 615 -18 143 -31 332 -22 324 4 -3 11 -69 16 -145z m-50 -288 c122 -640 565 -982 1234 -953 78 4 152 9 166 12 24 6 24 6 5 -7 -32 -20 -405 -17 -520 4 -447 85 -747 368 -870 823 -31 115 -55 294 -54 393 2 70 3 66 10 -42 4 -65 17 -168 29 -230z m-76 -56 c62 -288 237 -574 451 -735 222 -167 456 -238 785 -239 104 -1 155 -4 125 -8 -191 -25 -475 14 -662 91 -420 173 -713 611 -738 1101 l-4 95 13 -115 c8 -63 21 -149 30 -190z m1151 248 c15 -38 12 -48 -16 -48 -24 0 -33 21 -25 55 9 34 24 31 41 -7z m-1201 -303 c43 -182 128 -372 223 -500 172 -231 394 -374 688 -443 97 -23 132 -26 303 -26 130 -1 179 -4 150 -9 -64 -12 -330 -1 -425 18 -474 92 -814 424 -938 914 -29 113 -51 292 -39 318 5 12 10 -21 15 -92 4 -60 14 -141 23 -180z m2036 268 c0 -5 -23 -6 -50 -5 -162 12 -550 -119 -600 -201 -25 -40 -25 -59 -2 -80 15 -14 25 -14 92 0 154 30 293 8 452 -73 82 -42 48 -37 -44 6 -153 71 -248 84 -402 55 -71 -14 -82 -14 -103 0 -38 26 -32 75 17 119 65 58 279 145 425 171 78 15 215 19 215 8z m-1361 -71 c28 -23 24 -43 -14 -68 -17 -11 -29 -14 -36 -7 -13 13 -23 78 -15 98 6 17 20 12 65 -23z m552 5 c52 -35 69 -78 69 -178 0 -71 -3 -89 -19 -103 -28 -25 -78 -37 -158 -38 -59 0 -80 4 -121 27 -52 28 -76 60 -70 91 1 10 28 32 59 50 34 20 73 55 99 89 44 57 75 85 96 85 6 0 26 -10 45 -23z m-1266 -294 c30 -124 80 -249 143 -358 229 -392 623 -593 1122 -572 86 3 119 2 106 -5 -32 -18 -367 -4 -476 20 -353 78 -624 284 -789 602 -93 179 -152 396 -150 547 l2 78 8 -104 c5 -58 20 -151 34 -208z m2065 277 c10 -6 -2 -7 -38 -3 -103 12 -328 -34 -436 -89 -34 -18 -37 -22 -22 -30 10 -6 42 -7 75 -3 64 7 181 -16 305 -61 70 -25 122 -51 81 -40 -11 3 -67 22 -125 42 -92 32 -120 38 -230 43 -107 5 -125 8 -128 23 -2 11 10 23 35 36 49 25 192 69 263 81 75 12 202 13 220 1z m-634 -32 c8 -13 -22 -38 -48 -38 -18 0 -25 29 -11 43 11 11 51 8 59 -5z m-1476 -328 c63 -231 181 -434 346 -590 230 -218 511 -317 876 -308 87 2 138 0 125 -5 -12 -5 -105 -7 -207 -4 -165 4 -198 8 -304 36 -373 96 -662 359 -802 728 -42 113 -72 243 -78 343 l-5 95 15 -110 c8 -60 23 -144 34 -185z m2100 270 c10 -6 -11 -8 -60 -5 l-75 5 73 -26 c40 -14 71 -28 68 -31 -2 -3 -38 7 -79 21 -42 14 -87 26 -101 26 -14 0 -26 5 -26 10 0 13 180 13 200 0z m-2175 -194 c59 -394 296 -737 624 -901 173 -87 345 -124 584 -126 149 -2 155 -2 77 -10 -86 -8 -262 2 -359 21 -419 79 -751 380 -890 807 -32 97 -74 340 -57 322 3 -3 12 -54 21 -113z m-39 -121 c76 -405 359 -749 727 -885 136 -50 216 -63 417 -69 173 -6 187 -7 126 -15 -80 -10 -236 -1 -351 20 -363 67 -656 291 -821 629 -74 151 -127 332 -123 420 2 26 2 27 6 5 2 -14 10 -61 19 -105z m-39 -110 c45 -193 153 -395 292 -547 131 -143 332 -262 521 -311 118 -31 309 -51 409 -44 48 4 70 2 61 -3 -8 -6 -55 -10 -105 -10 -443 0 -789 176 -1018 518 -89 132 -172 342 -181 457 -3 33 -3 49 0 35 2 -14 12 -56 21 -95z m-37 -110 c64 -239 246 -498 451 -642 181 -127 370 -186 644 -203 l130 -8 -140 3 c-323 8 -572 111 -786 324 -141 141 -228 282 -293 473 -20 58 -36 109 -36 113 0 22 18 -15 30 -60z m1942 29 c43 -8 97 -24 120 -35 24 -11 34 -17 23 -14 -156 47 -282 66 -400 60 -61 -3 -64 -2 -25 5 56 10 180 3 282 -16z m-357 -5 c-46 -14 -220 -39 -262 -38 -22 1 -6 5 38 10 42 5 105 15 140 23 35 8 75 14 89 14 23 0 23 0 -5 -9z m-1571 -253 c57 -124 141 -242 246 -346 200 -197 436 -299 740 -319 l115 -8 -85 -1 c-348 -6 -714 185 -916 479 -74 107 -155 270 -153 308 0 9 4 5 9 -9 4 -14 24 -61 44 -104z m52 -231 c175 -264 453 -433 791 -479 75 -11 87 -14 50 -15 -101 -2 -305 52 -430 115 -191 97 -370 268 -476 455 -35 62 -43 94 -10 39 12 -19 45 -71 75 -115z m197 -316 c116 -87 326 -187 401 -190 12 0 15 -3 8 -6 -40 -16 -241 68 -368 153 -87 57 -212 172 -234 213 -7 14 16 -6 50 -43 35 -37 99 -94 143 -127z"/>
<path d="M2684 2806 c-6 -17 2 -36 17 -36 12 0 12 37 -1 45 -6 3 -13 -1 -16 -9z"/>
<path d="M2130 2696 c0 -55 23 -71 53 -38 16 17 15 20 -13 40 -37 28 -40 27 -40 -2z"/>
<path d="M2605 2634 c-37 -41 -84 -83 -103 -92 -68 -33 -68 -64 -1 -109 39 -25 51 -28 133 -28 92 0 150 15 160 40 2 8 2 55 -1 107 -6 88 -8 95 -39 126 -50 50 -71 44 -149 -44z m131 -9 c13 -20 15 -40 11 -86 -6 -70 -16 -85 -68 -101 -42 -12 -101 -1 -146 28 -32 20 -29 30 15 55 20 12 56 46 80 76 49 61 81 69 108 28z"/>
<path d="M2634 2584 c-26 -30 -60 -62 -76 -70 -36 -18 -35 -30 2 -49 30 -16 126 -20 147 -7 48 31 39 182 -12 182 -7 0 -35 -25 -61 -56z m60 -29 c3 -8 1 -26 -4 -40 -7 -19 -17 -25 -40 -25 -37 0 -38 15 -3 52 31 32 38 34 47 13z"/>
<path d="M2646 2525 c-16 -24 -16 -25 9 -25 20 0 25 5 25 25 0 14 -4 25 -9 25 -5 0 -16 -11 -25 -25z"/>
<path d="M2850 2644 c0 -9 7 -14 17 -12 25 5 28 28 4 28 -12 0 -21 -6 -21 -16z"/>
</g>
<g id="layer104" fill="#7d7d84" stroke="none">
<path d="M0 2400 l0 -2400 2400 0 2400 0 0 2400 0 2400 -2400 0 -2400 0 0 -2400z m2645 1001 c41 -195 5 -448 -85 -600 -47 -79 -97 -129 -167 -165 -147 -78 -152 -163 -16 -271 89 -69 148 -89 268 -89 80 1 124 7 220 33 150 39 273 49 370 28 81 -18 173 -50 201 -72 12 -10 0 -8 -36 6 -126 50 -182 62 -290 62 -89 0 -124 -5 -225 -33 -149 -42 -305 -48 -391 -16 -70 26 -163 93 -198 144 -61 86 -35 146 94 222 75 44 115 84 159 156 61 100 101 267 101 420 0 78 -26 237 -49 297 -6 16 -11 38 -10 50 1 29 34 -77 54 -172z m26 162 c46 -116 63 -210 64 -343 0 -158 -17 -231 -96 -395 -57 -120 -117 -191 -214 -249 -60 -36 -70 -47 -73 -74 -3 -25 4 -38 38 -71 110 -107 216 -119 460 -55 231 60 376 52 564 -31 83 -37 64 -40 -25 -4 -190 77 -329 80 -584 9 -54 -15 -111 -23 -175 -24 -84 -1 -101 2 -150 26 -30 15 -74 45 -97 68 -36 34 -43 47 -43 79 0 42 10 53 83 91 99 50 197 187 253 352 29 87 54 214 54 279 0 61 -32 226 -59 303 -23 65 -23 66 -16 66 3 0 10 -12 16 -27z m83 -7 c66 -158 79 -375 33 -556 -32 -123 -33 -162 -9 -210 43 -87 166 -92 344 -14 136 60 194 75 313 79 l110 4 -90 -9 c-116 -10 -183 -26 -270 -62 -151 -64 -199 -78 -268 -78 -80 0 -119 17 -147 63 -26 42 -26 129 -1 216 32 108 42 208 30 307 -9 75 -42 218 -65 278 -12 32 6 15 20 -18z m-196 -48 c35 -124 45 -189 44 -293 -2 -275 -93 -450 -286 -553 -102 -54 -131 -85 -130 -141 3 -89 116 -221 243 -284 56 -27 77 -32 160 -35 98 -4 147 4 306 48 114 32 272 38 367 15 70 -18 163 -53 156 -60 -2 -2 -43 11 -93 28 -81 29 -101 31 -210 31 -107 0 -135 -4 -255 -36 -74 -20 -162 -39 -195 -43 -139 -15 -273 35 -384 145 -77 74 -104 125 -105 192 -1 65 24 94 130 150 185 98 267 243 281 493 6 122 -4 209 -40 333 -13 45 -21 82 -17 82 4 0 16 -33 28 -72z m275 40 c55 -245 62 -381 27 -548 -23 -110 -24 -140 -8 -175 24 -54 90 -47 259 28 181 80 212 89 319 92 l95 4 -85 -8 c-99 -9 -155 -26 -305 -94 -174 -78 -253 -89 -291 -40 -19 25 -17 124 3 191 13 43 17 94 17 212 0 148 -11 225 -50 354 -4 11 -2 16 4 12 5 -3 12 -16 15 -28z m-364 -31 c33 -77 61 -220 61 -314 0 -99 -28 -229 -65 -303 -31 -61 -97 -134 -139 -154 -58 -27 -104 -21 -141 19 -45 47 -51 85 -47 330 3 190 -2 263 -24 318 -3 9 -2 17 4 17 15 0 36 -119 36 -210 0 -47 -1 -146 -3 -220 -3 -111 0 -143 14 -178 34 -84 100 -105 171 -53 99 71 152 177 175 348 17 129 -6 278 -66 426 -16 38 7 14 24 -26z m472 -59 c32 -125 32 -303 1 -428 -26 -100 -28 -143 -7 -160 21 -17 53 -7 149 50 46 27 107 58 135 70 71 28 183 44 240 34 42 -7 36 -9 -59 -15 -125 -7 -191 -28 -307 -100 -88 -54 -143 -70 -168 -49 -21 17 -19 82 5 182 14 59 20 118 20 204 0 114 -7 156 -46 293 -5 16 -4 22 3 18 6 -4 21 -48 34 -99z m-516 2 c14 -41 31 -116 37 -167 25 -196 -35 -399 -142 -478 -99 -73 -142 22 -122 272 10 129 4 240 -18 323 -14 51 -6 65 9 18 24 -77 31 -169 24 -353 -7 -206 1 -259 38 -270 31 -10 94 38 129 98 92 158 101 371 25 573 -28 73 -30 83 -15 68 5 -5 21 -43 35 -84z m-79 39 c28 -56 64 -218 64 -294 0 -145 -64 -310 -120 -310 -21 0 -26 6 -31 40 -4 22 -3 95 2 162 10 132 1 253 -25 338 -16 52 -15 70 3 37 29 -54 42 -196 35 -378 -7 -197 -3 -215 41 -174 32 30 67 128 75 213 12 126 -9 250 -65 380 -12 30 4 19 21 -14z m683 -66 c25 -96 27 -220 6 -308 -8 -33 -15 -79 -15 -102 0 -37 3 -43 21 -43 11 0 40 14 65 30 66 46 170 87 257 100 59 10 81 10 90 1 8 -8 -3 -11 -45 -11 -70 0 -196 -39 -260 -79 -86 -55 -108 -64 -124 -50 -19 15 -18 76 2 180 19 100 13 208 -16 301 -22 71 -25 87 -11 73 5 -6 19 -47 30 -92z m-719 -8 c35 -109 40 -385 8 -385 -6 0 -7 8 -3 18 4 9 9 54 12 99 6 92 -9 205 -38 291 -21 62 -23 70 -10 57 5 -6 19 -41 31 -80z m804 -47 c18 -85 19 -141 7 -205 -11 -57 -2 -69 40 -54 19 6 50 22 70 35 60 40 169 71 169 47 0 -4 -22 -11 -50 -14 -33 -4 -73 -20 -119 -47 -48 -28 -79 -40 -98 -38 l-28 3 3 115 c3 81 -1 135 -12 183 -18 77 -19 88 -7 67 5 -8 16 -50 25 -92z m75 -2 c6 -25 11 -62 11 -83 0 -60 10 -68 56 -45 55 27 84 35 84 23 0 -6 -7 -11 -15 -11 -8 0 -34 -10 -59 -21 -55 -27 -76 -21 -76 24 0 38 -14 121 -26 151 -5 12 -4 17 3 13 6 -4 16 -27 22 -51z m-1114 -406 c1 -402 3 -417 63 -533 63 -123 218 -257 336 -293 65 -19 205 -19 276 1 30 8 91 25 135 37 109 30 257 30 374 -1 77 -20 151 -50 126 -50 -5 -1 -46 11 -90 26 -114 37 -294 44 -392 15 -329 -99 -461 -81 -645 88 -77 70 -132 149 -168 240 l-25 65 0 360 c-1 198 -4 385 -8 415 -6 49 -5 52 5 25 8 -21 12 -140 13 -395z m-85 293 c6 -38 15 -212 20 -388 8 -342 12 -371 68 -480 69 -138 210 -262 353 -311 73 -25 204 -23 339 4 156 31 207 35 311 23 106 -13 246 -48 256 -64 4 -7 0 -8 -13 -3 -138 55 -367 71 -529 38 -291 -60 -430 -27 -606 148 -67 66 -94 102 -122 160 -58 119 -67 185 -78 550 -5 179 -12 340 -15 358 -3 17 -4 32 -1 32 3 0 10 -30 17 -67z m-70 -157 c5 -67 14 -204 19 -306 13 -234 31 -331 83 -440 34 -71 56 -100 132 -175 96 -95 176 -143 273 -166 64 -14 212 -14 355 1 138 14 305 2 431 -32 92 -24 97 -37 5 -14 -157 38 -356 49 -503 27 -235 -36 -407 15 -565 166 -86 82 -132 152 -171 262 -33 94 -46 195 -59 462 -9 192 -15 265 -26 349 -4 31 -3 32 6 11 6 -13 15 -78 20 -145z m-86 47 c3 -27 13 -142 21 -257 24 -338 47 -454 118 -591 57 -112 192 -247 297 -298 125 -61 167 -67 467 -71 262 -3 440 -21 483 -48 11 -6 6 -8 -15 -4 -154 29 -268 38 -465 38 -264 -1 -350 12 -470 70 -115 55 -246 185 -307 303 -74 143 -96 258 -129 680 -8 115 -18 213 -21 217 -2 5 0 8 5 8 5 0 12 -21 16 -47z m-64 -208 c35 -475 102 -679 282 -862 109 -111 231 -177 383 -207 44 -9 178 -20 298 -26 251 -11 437 -29 437 -42 0 -5 -8 -7 -17 -4 -28 9 -232 24 -403 31 -375 15 -528 64 -693 224 -195 187 -254 362 -302 891 -17 190 -17 190 -6 170 5 -8 14 -87 21 -175z m-79 -41 c33 -464 150 -755 378 -937 189 -150 374 -199 834 -216 108 -4 200 -11 204 -15 9 -8 -253 1 -442 15 -340 26 -545 118 -720 321 -132 154 -211 360 -249 650 -19 142 -31 335 -22 327 4 -4 12 -69 17 -145z m-56 -259 c93 -537 405 -870 900 -962 98 -18 366 -24 470 -10 43 6 57 5 49 -3 -17 -17 -313 -25 -434 -11 -451 51 -770 295 -925 708 -57 152 -96 366 -93 523 1 84 1 84 9 -35 5 -66 16 -160 24 -210z m-79 -35 c75 -408 328 -754 668 -910 179 -82 341 -114 581 -114 103 0 152 -3 125 -7 -68 -11 -209 -10 -318 2 -245 27 -459 115 -642 264 -252 206 -430 576 -445 925 l-4 95 10 -85 c5 -47 16 -123 25 -170z m1159 200 c17 -34 13 -50 -14 -50 -22 0 -41 19 -35 36 2 8 6 21 9 29 7 24 23 18 40 -15z m-1191 -338 c62 -240 159 -422 314 -584 163 -170 357 -276 602 -329 87 -18 138 -22 295 -23 105 0 177 -4 160 -7 -108 -24 -414 0 -560 43 -379 111 -670 404 -799 803 -44 136 -80 388 -58 409 4 4 10 -41 14 -101 3 -63 17 -151 32 -211z m2026 299 c0 -4 -21 -6 -47 -4 -123 12 -446 -81 -563 -162 -44 -31 -69 -79 -53 -104 11 -18 24 -18 208 -6 91 6 122 5 170 -10 69 -19 242 -98 228 -102 -5 -2 -48 14 -95 36 -157 73 -241 84 -401 55 -83 -15 -89 -15 -107 1 -32 29 -26 76 16 118 55 55 300 153 441 177 66 11 203 12 203 1z m-1362 -69 c31 -24 32 -25 15 -44 -10 -11 -26 -25 -37 -30 -26 -14 -46 13 -46 62 0 58 5 59 68 12z m550 8 c56 -35 72 -73 72 -177 0 -87 -1 -93 -26 -112 -57 -45 -191 -49 -271 -8 -89 46 -98 92 -24 137 26 16 79 64 118 105 38 41 76 75 84 75 8 0 29 -9 47 -20z m-1272 -260 c101 -465 417 -810 844 -925 122 -32 299 -49 440 -42 85 5 110 4 96 -4 -32 -20 -375 -6 -481 19 -363 85 -628 291 -793 617 -86 169 -143 382 -141 527 l2 83 8 -100 c5 -55 16 -134 25 -175z m2078 241 c4 -5 -19 -7 -53 -4 -103 10 -327 -38 -430 -91 -18 -10 -30 -20 -26 -24 3 -4 52 -7 108 -8 71 -1 123 -8 171 -23 106 -32 206 -72 206 -82 0 -6 -7 -6 -17 0 -10 5 -65 26 -123 46 -92 33 -120 38 -230 44 -109 5 -125 8 -128 24 -3 13 12 24 60 46 61 27 192 66 253 74 60 8 204 7 209 -2z m-639 -31 c10 -16 -15 -40 -41 -40 -17 0 -24 6 -24 18 0 10 3 22 7 25 10 11 51 8 58 -3z m-1499 -200 c28 -189 116 -410 222 -553 241 -327 589 -488 1029 -475 78 2 140 1 137 -4 -8 -12 -310 -10 -400 3 -176 24 -400 116 -535 218 -268 204 -458 562 -473 891 -3 52 -2 79 0 60 2 -19 11 -82 20 -140z m2129 141 c3 -6 -23 -8 -67 -5 l-73 4 55 -18 c61 -20 102 -41 83 -42 -7 0 -36 9 -64 20 -29 10 -72 22 -96 26 -23 3 -43 10 -43 15 0 12 197 12 205 0z m-2184 -165 c50 -402 286 -755 619 -925 181 -93 350 -130 599 -132 150 -2 153 -2 76 -11 -106 -12 -304 5 -437 38 -379 95 -682 384 -813 778 -40 121 -82 356 -59 333 3 -3 10 -39 15 -81z m-30 -171 c79 -379 340 -705 678 -846 149 -62 247 -81 461 -88 166 -6 186 -8 135 -15 -134 -20 -387 13 -545 70 -330 118 -588 389 -705 738 -31 94 -56 213 -54 264 2 33 2 34 6 7 2 -16 13 -75 24 -130z m-40 -105 c95 -352 325 -638 623 -775 169 -78 409 -123 586 -111 66 4 81 3 66 -6 -30 -17 -302 -3 -411 22 -324 73 -580 262 -748 552 -77 135 -148 339 -145 418 1 33 1 34 5 5 2 -16 13 -64 24 -105z m-36 -107 c98 -316 320 -584 592 -714 155 -74 293 -107 497 -119 l131 -7 -100 -1 c-325 -5 -627 117 -840 340 -151 156 -272 374 -310 556 -12 60 3 32 30 -55z m-34 -110 c22 -70 82 -188 136 -270 201 -303 515 -480 887 -500 66 -3 111 -9 100 -13 -26 -10 -202 5 -292 24 -326 70 -590 267 -760 567 -36 64 -92 195 -92 215 0 24 8 15 21 -23z m24 -225 c104 -200 295 -385 499 -483 133 -63 194 -82 346 -105 85 -14 103 -18 67 -19 -108 -2 -303 52 -440 120 -204 103 -415 319 -492 502 -22 54 -11 45 20 -15z m310 -460 c109 -72 244 -132 360 -161 18 -4 17 -5 -3 -6 -65 -3 -283 95 -394 177 -78 57 -170 144 -191 180 -10 18 19 -5 70 -56 49 -48 120 -108 158 -134z"/>
<path d="M2130 2703 c1 -59 23 -78 53 -45 16 17 15 20 -13 40 -35 27 -40 27 -40 5z"/>
<path d="M2607 2636 c-37 -41 -86 -85 -110 -98 -55 -30 -59 -58 -15 -91 51 -38 102 -50 185 -45 54 4 82 11 101 25 26 20 27 23 23 109 -4 94 -17 133 -53 158 -41 29 -61 20 -131 -58z m129 -11 c12 -19 15 -41 12 -85 -5 -69 -24 -97 -76 -106 -41 -8 -133 18 -153 43 -12 14 -10 18 11 31 14 9 52 44 85 79 66 70 94 79 121 38z"/>
<path d="M2632 2580 c-32 -34 -67 -66 -79 -71 -13 -5 -23 -13 -23 -19 0 -18 66 -40 118 -40 59 0 78 17 88 77 8 54 -1 90 -27 104 -18 9 -27 4 -77 -51z m63 -30 c10 -31 -12 -60 -45 -60 -37 0 -38 16 -3 52 32 33 40 35 48 8z"/>
<path d="M2645 2524 c-16 -25 -16 -26 7 -22 15 2 24 11 26 26 4 30 -12 28 -33 -4z"/>
<path d="M2855 2649 c-4 -6 -5 -12 -2 -15 7 -7 37 7 37 17 0 13 -27 11 -35 -2z"/>
</g>
<g id="layer105" fill="#898990" stroke="none">
<path d="M0 2400 l0 -2400 2400 0 2400 0 0 2400 0 2400 -2400 0 -2400 0 0 -2400z m2625 1086 c35 -128 45 -240 34 -349 -26 -250 -114 -419 -258 -496 -74 -39 -121 -91 -121 -133 0 -83 129 -192 266 -224 87 -20 163 -14 320 27 140 36 255 46 348 30 77 -13 236 -69 236 -82 0 -5 -24 1 -52 12 -187 75 -310 82 -508 30 -173 -45 -285 -51 -381 -21 -132 43 -244 149 -244 231 0 47 45 98 118 135 26 14 66 41 88 61 46 42 109 145 132 218 25 76 47 219 47 301 0 77 -28 240 -53 311 -9 22 -13 44 -10 47 10 9 11 6 38 -98z m81 -28 c25 -90 29 -120 29 -238 0 -111 -4 -149 -23 -212 -66 -223 -163 -368 -292 -437 -69 -37 -82 -63 -54 -110 20 -34 85 -84 138 -106 65 -27 187 -19 342 22 121 32 154 37 254 37 93 0 129 -4 189 -22 90 -28 186 -70 178 -78 -3 -3 -15 0 -27 6 -12 7 -61 26 -109 43 -81 30 -94 31 -226 31 -128 0 -150 -3 -260 -33 -164 -46 -284 -49 -365 -9 -30 15 -74 45 -97 68 -36 34 -43 47 -43 79 0 43 14 59 75 87 139 63 271 299 307 548 17 117 -2 243 -67 441 -6 19 -6 19 8 3 8 -10 27 -64 43 -120z m49 95 c63 -150 79 -386 38 -533 -30 -105 -36 -160 -24 -208 30 -108 162 -119 360 -31 127 56 226 79 330 78 l86 -2 -90 -7 c-105 -9 -192 -29 -279 -66 -142 -60 -191 -74 -259 -74 -159 0 -199 86 -142 307 46 175 37 304 -41 556 -10 32 6 18 21 -20z m-197 -45 c35 -122 46 -189 46 -288 0 -163 -35 -298 -105 -401 -50 -74 -94 -111 -188 -159 -95 -48 -121 -77 -121 -137 0 -84 67 -175 187 -254 40 -26 95 -52 124 -59 64 -16 223 -8 299 14 259 75 394 77 568 8 94 -37 68 -37 -39 0 -84 29 -106 32 -209 32 -101 1 -132 -4 -257 -37 -179 -47 -266 -55 -352 -33 -91 23 -156 61 -231 136 -79 77 -105 126 -105 197 0 66 22 91 129 145 181 91 269 245 283 493 6 122 -4 208 -40 333 -13 45 -21 82 -17 82 4 0 16 -33 28 -72z m293 -28 c30 -120 37 -356 14 -460 -25 -115 -29 -157 -15 -190 25 -61 89 -54 275 29 75 34 164 68 198 76 67 16 193 20 201 7 3 -5 -21 -6 -52 -4 -82 6 -176 -20 -342 -92 -80 -35 -161 -67 -181 -70 -41 -7 -86 6 -105 32 -19 24 -17 124 3 190 13 43 17 95 17 212 0 149 -9 214 -50 355 -4 14 -3 17 4 10 6 -6 21 -48 33 -95z m-368 3 c69 -209 61 -430 -22 -591 -27 -53 -95 -128 -132 -148 -45 -23 -103 -18 -138 11 -51 44 -56 76 -53 326 3 203 -3 278 -24 332 -3 9 -1 17 4 17 24 0 36 -118 37 -355 0 -224 1 -242 21 -275 43 -74 110 -78 187 -10 164 145 200 471 82 753 -4 9 -3 17 3 17 5 0 21 -35 35 -77z m457 -18 c36 -139 37 -253 5 -419 -16 -78 -26 -150 -22 -160 16 -40 51 -31 179 46 119 71 286 113 369 92 27 -7 13 -10 -71 -15 -120 -6 -195 -32 -318 -107 -90 -56 -148 -63 -169 -22 -10 21 -9 39 3 95 33 155 36 184 31 310 -3 94 -10 148 -26 195 -23 73 -26 89 -11 74 5 -5 19 -45 30 -89z m-515 -5 c38 -111 52 -240 38 -350 -22 -173 -117 -320 -207 -320 -22 0 -30 8 -43 38 -17 38 -20 104 -15 362 1 82 -3 149 -13 194 -18 87 -12 97 12 20 15 -50 18 -97 18 -311 0 -248 0 -253 23 -275 22 -22 22 -22 57 -4 70 38 128 146 152 284 23 130 6 249 -63 437 -5 15 -4 17 4 10 7 -6 23 -44 37 -85z m-55 -27 c44 -135 51 -256 21 -373 -25 -100 -65 -165 -101 -165 -35 0 -42 50 -31 202 11 134 2 253 -24 338 -8 27 -13 51 -10 53 9 9 25 -40 40 -123 14 -72 16 -122 10 -264 -7 -203 -1 -226 43 -174 53 61 67 122 67 283 0 148 -5 172 -60 303 -4 9 -3 17 3 17 5 0 24 -44 42 -97z m660 -3 c26 -101 28 -205 6 -308 -20 -90 -20 -131 -2 -138 8 -3 49 15 93 40 43 25 105 54 138 65 77 25 180 37 189 22 5 -8 -10 -11 -47 -11 -77 0 -177 -33 -277 -92 -62 -36 -89 -47 -100 -40 -22 13 -24 75 -4 181 18 103 15 186 -11 281 -28 107 -28 106 -17 95 6 -5 20 -48 32 -95z m-718 -2 c20 -64 23 -93 23 -225 0 -116 -3 -155 -14 -165 -11 -11 -12 -8 -7 17 25 119 15 276 -25 393 -22 63 -22 65 -10 58 5 -3 20 -39 33 -78z m803 -52 c13 -68 16 -112 10 -179 l-7 -90 29 7 c15 4 49 20 74 36 79 48 170 73 184 50 4 -6 -10 -10 -34 -10 -29 0 -66 -13 -127 -45 -54 -28 -97 -45 -113 -43 l-26 3 3 110 c3 74 -1 134 -12 185 -19 88 -19 87 -7 75 5 -6 16 -50 26 -99z m74 0 c6 -25 11 -63 11 -86 0 -52 13 -56 80 -30 37 15 56 18 64 10 7 -7 3 -10 -12 -10 -13 0 -40 -9 -62 -20 -44 -22 -66 -25 -75 -10 -4 6 -10 45 -15 88 -4 42 -11 86 -16 96 -5 13 -4 17 3 13 6 -4 16 -27 22 -51z m-1114 -406 c2 -402 5 -425 66 -541 63 -117 214 -246 333 -283 88 -28 231 -19 366 24 90 28 120 33 215 34 111 1 209 -16 296 -50 69 -28 34 -27 -53 2 -74 25 -98 28 -223 28 -132 1 -146 -1 -245 -33 -134 -42 -269 -53 -351 -26 -80 26 -154 71 -224 136 -78 74 -129 146 -163 235 l-27 69 -1 350 c0 193 -3 379 -7 415 -6 56 -5 61 5 35 9 -21 12 -140 13 -395z m1197 348 c-9 -9 -12 -7 -12 12 0 19 3 21 12 12 9 -9 9 -15 0 -24z m-1273 -145 c6 -65 11 -212 11 -328 1 -349 32 -450 189 -606 101 -102 190 -151 305 -169 73 -11 101 -9 261 20 55 10 128 21 161 25 95 10 290 -17 388 -55 57 -21 19 -18 -69 7 -131 36 -326 43 -451 14 -277 -63 -430 -25 -605 148 -66 66 -95 104 -123 161 -58 119 -66 176 -76 545 -6 182 -12 346 -15 365 -4 29 -4 31 4 13 6 -12 15 -75 20 -140z m-80 -34 c5 -52 13 -168 16 -259 15 -402 55 -530 215 -690 89 -89 162 -135 259 -164 65 -19 216 -21 377 -5 130 14 302 1 422 -30 72 -19 117 -40 57 -27 -230 50 -274 52 -656 30 -89 -5 -120 -3 -189 15 -201 51 -395 243 -453 451 -23 82 -36 193 -47 420 -9 193 -14 260 -25 355 -4 30 -3 35 4 19 5 -12 14 -63 20 -115z m-85 14 c3 -27 13 -139 21 -251 25 -344 49 -462 123 -607 46 -90 190 -236 277 -282 118 -61 144 -66 460 -73 282 -7 464 -26 505 -52 10 -6 4 -7 -20 -3 -166 29 -264 36 -463 36 -266 -1 -348 12 -464 69 -99 49 -223 161 -281 253 -99 159 -120 259 -157 727 -8 107 -18 203 -21 213 -3 9 -1 17 4 17 5 0 12 -21 16 -47z m-60 -238 c39 -482 104 -667 300 -853 149 -140 275 -187 556 -203 219 -12 533 -38 539 -44 10 -11 -7 -12 -62 -5 -33 5 -154 13 -270 19 -288 15 -408 29 -497 57 -227 72 -416 265 -494 504 -45 136 -64 253 -91 550 -18 195 -18 197 -6 185 5 -6 16 -100 25 -210z m-80 -30 c13 -218 62 -447 126 -590 85 -190 239 -350 416 -431 157 -73 319 -101 649 -111 110 -3 207 -9 215 -14 20 -11 4 -11 -267 1 -335 15 -484 45 -642 131 -259 139 -419 390 -481 752 -21 124 -40 317 -39 387 1 80 15 5 23 -125z m-49 -290 c105 -512 412 -824 895 -912 103 -18 373 -24 470 -10 41 6 52 5 44 -3 -17 -17 -321 -25 -441 -11 -332 39 -603 190 -776 432 -141 199 -240 531 -236 797 2 82 2 78 14 -63 8 -82 21 -186 30 -230z m-84 -4 c91 -464 390 -814 809 -946 133 -42 252 -58 435 -58 106 -1 155 -4 130 -8 -121 -23 -391 0 -549 46 -489 143 -838 607 -861 1145 l-4 95 10 -85 c6 -47 19 -132 30 -189z m1154 219 c17 -34 13 -50 -14 -50 -22 0 -41 19 -35 36 2 8 6 21 9 29 7 24 23 18 40 -15z m-1192 -330 c105 -434 373 -739 777 -884 114 -41 250 -59 440 -60 102 0 172 -3 155 -7 -58 -13 -288 -9 -394 7 -447 65 -794 358 -951 799 -53 152 -92 381 -74 442 6 21 10 0 15 -82 4 -60 18 -157 32 -215z m2027 291 c0 -5 -19 -6 -42 -4 -98 11 -336 -50 -503 -127 -96 -45 -138 -96 -115 -141 10 -18 18 -20 58 -15 26 3 95 9 154 12 93 6 115 4 179 -16 71 -21 236 -98 213 -100 -6 0 -50 18 -98 40 -154 71 -242 83 -397 53 -85 -16 -89 -16 -109 2 -30 27 -26 74 10 113 49 54 258 141 420 176 73 16 230 21 230 7z m-1379 -55 c15 -13 34 -26 41 -29 15 -5 -14 -42 -46 -59 -26 -14 -46 13 -46 62 0 56 9 61 51 26z m592 -25 l42 -40 3 -110 4 -111 -49 -22 c-74 -33 -182 -31 -250 5 -87 45 -97 92 -30 133 23 14 76 61 118 105 50 52 83 79 97 79 13 0 42 -18 65 -39z m-1313 -137 c37 -318 206 -629 443 -819 106 -85 288 -176 420 -210 131 -33 296 -49 435 -41 78 5 112 4 107 -4 -10 -17 -316 -13 -426 6 -335 57 -600 227 -783 501 -94 142 -148 266 -187 433 -22 93 -40 266 -30 290 3 8 7 -3 8 -25 2 -22 8 -81 13 -131z m2100 136 c0 -7 -18 -8 -49 -4 -93 12 -333 -36 -434 -88 -37 -18 -39 -22 -22 -28 11 -4 47 -5 80 -3 40 4 88 -2 145 -15 96 -23 250 -80 250 -92 0 -4 -34 6 -77 22 -124 48 -217 68 -318 68 -139 0 -148 30 -25 78 54 21 180 57 230 65 55 9 220 7 220 -3z m-645 -30 c10 -16 -14 -40 -40 -40 -24 0 -35 16 -27 38 5 15 58 16 67 2z m-1499 -193 c44 -318 219 -623 463 -808 205 -155 496 -238 802 -227 82 3 126 1 120 -5 -6 -6 -90 -7 -213 -4 -162 4 -220 9 -288 26 -277 70 -493 211 -659 431 -139 184 -237 447 -246 658 -4 102 -3 101 21 -71z m2134 132 c9 -6 -17 -7 -65 -4 l-80 6 55 -19 c60 -20 102 -41 83 -42 -7 0 -46 11 -87 25 -41 14 -84 25 -95 25 -31 0 -25 18 7 23 39 6 164 -4 182 -14z m-2190 -144 c1 -50 33 -199 61 -279 99 -283 279 -505 523 -644 190 -109 342 -146 603 -147 101 0 183 -3 183 -7 0 -10 -183 -21 -251 -14 -214 23 -335 53 -469 117 -317 152 -545 440 -633 799 -29 117 -45 255 -28 230 6 -8 11 -33 11 -55z m-34 -165 c81 -400 340 -730 685 -871 153 -63 246 -81 459 -87 205 -5 236 -20 46 -21 -261 -2 -517 71 -710 202 -129 87 -278 252 -360 400 -76 135 -147 367 -144 467 1 31 2 36 5 15 2 -16 10 -64 19 -105z m-7 -218 c106 -316 335 -574 619 -697 160 -70 422 -115 575 -100 55 6 68 5 62 -5 -14 -23 -320 -6 -440 24 -389 97 -675 356 -822 746 -30 79 -62 219 -55 240 3 8 11 -15 18 -51 7 -36 26 -106 43 -157z m-64 -18 c115 -371 380 -652 725 -769 103 -35 224 -56 370 -65 l125 -7 -105 -1 c-259 -4 -503 72 -702 219 -80 60 -210 195 -262 273 -82 124 -158 292 -181 404 -12 60 2 33 30 -54z m-5 -182 c84 -198 215 -364 382 -487 175 -130 437 -214 663 -215 50 0 66 -3 55 -10 -18 -12 -125 -5 -254 16 -388 65 -703 319 -863 697 -18 43 -33 86 -32 95 0 19 -2 24 49 -96z m96 -309 c188 -246 441 -391 769 -438 l100 -14 -90 4 c-170 8 -377 83 -540 196 -151 104 -336 330 -369 449 -4 14 11 -9 34 -50 23 -41 66 -107 96 -147z m209 -304 c114 -75 254 -136 370 -162 14 -3 12 -5 -8 -6 -71 -3 -284 92 -403 180 -78 57 -173 147 -190 181 -8 16 23 -10 73 -60 49 -48 120 -108 158 -133z"/>
<path d="M2685 2807 c-4 -10 -3 -23 4 -30 16 -16 26 0 14 25 -10 21 -11 22 -18 5z"/>
<path d="M2136 2711 c-10 -15 6 -71 19 -71 6 0 19 8 28 18 16 17 15 20 -13 40 -16 12 -31 18 -34 13z"/>
<path d="M2619 2648 c-28 -35 -70 -75 -93 -90 -83 -55 -82 -53 -69 -80 17 -39 105 -78 172 -78 65 0 129 16 153 37 13 12 15 29 11 96 -6 98 -17 131 -53 157 -46 32 -65 26 -121 -42z m117 -23 c12 -19 15 -41 12 -85 -5 -69 -24 -97 -76 -106 -41 -8 -133 18 -153 42 -12 14 -10 19 11 33 13 9 52 44 85 78 67 70 95 78 121 38z"/>
<path d="M2629 2576 c-34 -36 -70 -68 -80 -71 -10 -4 -19 -11 -19 -16 0 -16 66 -39 112 -39 60 0 85 20 94 75 8 57 -1 91 -26 105 -18 10 -28 3 -81 -54z m69 -35 c5 -31 -15 -51 -49 -51 -36 0 -37 16 -2 52 31 32 46 32 51 -1z"/>
<path d="M2855 2649 c-10 -14 -1 -21 19 -13 9 3 13 10 10 15 -7 12 -21 11 -29 -2z"/>
</g>
<g id="layer106" fill="#acadb1" stroke="none">
<path d="M0 2400 l0 -2400 2400 0 2400 0 0 2400 0 2400 -2400 0 -2400 0 0 -2400z m2615 1133 c37 -126 48 -200 48 -313 -1 -181 -37 -322 -114 -440 -49 -76 -77 -102 -151 -142 -69 -37 -118 -88 -118 -124 0 -94 142 -207 296 -235 72 -13 135 -6 289 33 140 35 265 45 358 29 78 -13 227 -68 227 -83 0 -6 -7 -7 -17 -3 -70 30 -189 66 -248 75 -86 14 -130 9 -315 -37 -128 -31 -155 -35 -245 -31 -87 3 -108 8 -166 36 -113 54 -199 147 -199 213 0 39 47 94 111 130 34 19 76 47 94 62 45 37 109 141 134 214 27 81 51 225 51 309 0 72 -30 244 -56 317 -17 47 -17 47 -5 47 5 0 17 -26 26 -57z m73 -15 c48 -161 54 -208 49 -333 -5 -121 -21 -187 -76 -323 -52 -129 -151 -246 -250 -296 -83 -42 -80 -85 12 -160 64 -52 105 -66 197 -66 60 0 118 9 223 36 187 48 292 54 407 25 102 -26 220 -71 220 -84 0 -5 -8 -6 -17 -2 -243 101 -377 108 -643 35 -100 -27 -214 -36 -278 -21 -54 13 -163 86 -182 121 -16 29 -16 76 0 95 7 8 39 29 72 47 141 75 252 273 296 529 15 93 15 105 -1 201 -10 57 -29 139 -42 183 -29 92 -27 85 -16 85 4 0 18 -33 29 -72z m86 -21 c56 -184 58 -316 11 -511 -41 -166 -23 -230 71 -256 62 -18 148 -1 269 50 132 56 225 80 323 81 46 1 86 -2 89 -5 4 -3 -23 -6 -58 -6 -83 0 -214 -30 -309 -70 -139 -58 -184 -71 -250 -72 -156 -3 -209 101 -148 293 20 64 23 94 22 224 0 135 -3 159 -28 240 -41 131 -41 129 -28 121 7 -4 23 -44 36 -89z m-215 16 c48 -167 58 -281 37 -420 -19 -127 -43 -195 -94 -269 -56 -83 -95 -116 -190 -164 -99 -51 -122 -76 -122 -137 0 -82 64 -171 179 -247 92 -61 162 -80 275 -73 50 3 127 15 171 27 264 72 395 72 568 -2 79 -34 45 -32 -60 3 -88 30 -109 33 -208 33 -96 0 -129 -5 -255 -39 -124 -34 -160 -39 -251 -40 -101 0 -108 1 -180 37 -87 43 -188 130 -226 196 -21 35 -27 60 -28 103 0 50 4 62 30 90 17 17 63 47 104 66 91 42 163 113 208 203 53 106 67 176 66 340 0 123 -4 158 -25 235 -14 50 -29 98 -33 108 -4 10 -3 17 4 17 5 0 19 -30 30 -67z m272 40 c51 -131 64 -403 28 -568 -23 -105 -20 -152 11 -180 32 -29 99 -15 254 54 76 34 164 69 195 77 61 16 197 19 205 5 4 -5 -18 -7 -52 -4 -79 7 -185 -22 -340 -92 -158 -72 -210 -84 -257 -62 -54 26 -63 75 -34 196 34 144 32 337 -4 484 -30 119 -29 117 -22 117 3 0 10 -12 16 -27z m-365 -20 c9 -21 27 -80 40 -132 44 -170 28 -365 -41 -501 -30 -59 -96 -135 -136 -156 -45 -23 -103 -18 -138 11 -51 43 -56 76 -53 319 2 197 -4 288 -23 339 -4 9 -3 17 3 17 26 0 37 -106 34 -327 -3 -245 3 -290 48 -335 34 -33 66 -36 118 -9 176 91 247 421 152 712 -32 97 -33 99 -25 99 3 0 12 -17 21 -37z m475 -68 c33 -126 36 -270 8 -401 -28 -134 -30 -183 -7 -198 18 -11 54 4 183 79 33 19 87 44 120 55 70 24 190 36 231 24 23 -6 7 -10 -71 -15 -127 -9 -175 -24 -305 -99 -103 -59 -147 -71 -180 -50 -20 13 -18 77 6 170 29 112 27 338 -4 441 -25 84 -27 98 -12 83 5 -5 19 -46 31 -89z m-511 -13 c75 -242 40 -493 -86 -619 -35 -34 -51 -43 -78 -43 -30 0 -38 5 -53 33 -16 28 -18 57 -15 259 2 177 -1 242 -13 293 -18 77 -19 93 -6 80 5 -6 16 -44 25 -86 12 -59 15 -129 13 -302 -2 -209 -1 -226 17 -246 50 -56 161 65 201 219 33 124 17 324 -36 448 -11 24 -19 49 -19 55 1 25 32 -31 50 -91z m-71 21 c65 -179 67 -381 4 -508 -32 -64 -80 -94 -100 -62 -4 6 -8 118 -8 247 0 204 -3 241 -19 283 -10 26 -15 51 -12 54 9 10 14 1 33 -62 14 -49 17 -101 18 -280 1 -263 -1 -249 25 -235 28 15 66 94 80 168 25 127 5 287 -55 435 -4 9 -3 17 3 17 5 0 19 -26 31 -57z m669 -30 c34 -128 36 -176 13 -296 -36 -183 -31 -191 86 -122 43 25 107 55 143 66 78 24 175 36 183 22 4 -6 -23 -12 -67 -16 -82 -6 -181 -43 -278 -103 -32 -19 -66 -34 -76 -32 -24 5 -27 86 -8 192 9 45 16 100 16 122 0 34 -25 161 -46 233 -5 16 -4 22 3 18 6 -4 20 -42 31 -84z m-717 -10 c21 -68 24 -98 24 -230 0 -113 -3 -155 -13 -165 -11 -11 -12 -5 -5 37 20 125 7 261 -42 413 -4 12 -3 22 2 22 6 0 21 -35 34 -77z m805 -52 c12 -64 15 -107 10 -178 -5 -66 -4 -93 4 -93 6 0 49 20 96 45 89 47 142 62 171 50 13 -6 3 -11 -35 -17 -30 -4 -85 -26 -127 -49 -49 -26 -84 -39 -102 -37 l-28 3 -1 140 c-1 97 -6 157 -17 194 -13 43 -13 52 -2 40 7 -8 21 -52 31 -98z m73 0 c6 -19 11 -56 11 -82 0 -26 5 -51 10 -54 6 -4 35 3 66 14 30 12 60 18 66 15 9 -6 -64 -37 -118 -51 -29 -7 -35 7 -45 96 -4 42 -11 85 -15 96 -5 13 -4 17 3 10 6 -5 15 -25 22 -44z m-1113 -401 c1 -387 6 -435 54 -530 53 -104 181 -230 288 -282 64 -31 72 -32 187 -33 107 0 132 3 230 33 141 42 241 50 358 28 87 -17 203 -54 194 -62 -2 -3 -44 7 -93 21 -102 30 -260 43 -339 27 -27 -5 -90 -22 -140 -38 -77 -24 -107 -28 -211 -29 -120 0 -120 0 -199 39 -112 55 -240 182 -289 286 -20 41 -40 100 -46 130 -13 76 -18 826 -5 797 6 -13 10 -168 11 -387z m1195 333 c-9 -16 -10 -14 -11 12 0 21 3 26 11 18 8 -8 8 -16 0 -30z m-1291 10 c1 -5 5 -28 11 -53 5 -25 13 -193 18 -375 8 -316 10 -334 35 -411 33 -102 85 -182 169 -261 159 -148 306 -184 552 -133 140 29 226 34 330 21 114 -15 256 -54 243 -67 -3 -2 -45 7 -94 22 -129 38 -313 44 -441 15 -197 -45 -332 -38 -450 22 -118 60 -241 183 -293 294 -52 110 -60 169 -70 528 -5 182 -14 347 -19 368 -5 21 -5 37 0 37 5 0 9 -3 9 -7z m-69 -105 c5 -24 15 -170 23 -325 18 -322 35 -424 93 -542 51 -104 178 -232 280 -283 108 -54 161 -62 338 -52 248 15 416 10 525 -16 87 -21 140 -39 115 -40 -6 0 -53 10 -105 22 -106 24 -312 29 -555 14 -108 -7 -141 -6 -195 8 -174 44 -330 173 -422 349 -57 108 -73 215 -98 662 -6 99 -13 198 -17 220 -8 53 7 38 18 -17z m-77 -58 c3 -22 13 -131 21 -242 26 -355 52 -486 122 -621 73 -138 240 -282 382 -328 59 -19 99 -22 361 -29 291 -7 480 -27 505 -52 7 -7 -1 -8 -25 -4 -124 25 -268 36 -465 36 -234 1 -330 12 -424 49 -145 58 -292 200 -364 353 -62 132 -81 235 -112 633 -8 105 -18 202 -21 218 -3 15 -1 27 4 27 5 0 12 -18 16 -40z m-65 -187 c39 -499 100 -698 270 -876 102 -107 211 -172 356 -211 38 -11 157 -22 320 -31 143 -9 298 -20 345 -25 47 -5 94 -10 105 -10 12 0 16 -3 9 -10 -6 -6 -33 -6 -74 0 -36 5 -162 14 -280 20 -359 18 -462 35 -590 100 -144 73 -271 207 -346 365 -69 146 -97 282 -129 631 -17 199 -18 204 -7 204 5 0 14 -71 21 -157z m-75 -72 c23 -394 114 -660 294 -852 200 -214 407 -281 915 -296 120 -4 207 -10 207 -16 0 -11 -314 -1 -480 14 -327 31 -556 143 -709 346 -120 160 -189 346 -225 611 -20 140 -31 353 -18 332 5 -8 13 -71 16 -139z m-58 -240 c44 -294 158 -528 344 -705 205 -195 454 -285 795 -289 88 -1 189 2 225 6 51 7 62 6 53 -4 -17 -17 -333 -24 -447 -10 -446 55 -757 296 -915 711 -54 141 -91 355 -89 510 l1 95 9 -105 c4 -58 15 -152 24 -209z m-97 101 c1 -35 10 -110 21 -165 105 -520 447 -881 930 -982 103 -22 275 -33 393 -26 110 7 132 -4 30 -15 -177 -19 -446 15 -613 77 -272 101 -506 318 -640 594 -81 167 -141 405 -139 556 1 85 17 49 18 -39z m1177 53 c19 -47 18 -55 -10 -55 -43 0 -54 37 -23 78 14 18 16 16 33 -23z m-1207 -270 c93 -467 390 -820 799 -949 141 -44 241 -58 437 -58 102 0 171 -4 160 -9 -33 -13 -303 -10 -401 5 -255 39 -461 137 -635 303 -203 193 -336 454 -384 753 -16 105 -19 169 -7 197 4 11 9 -22 13 -82 4 -55 12 -127 18 -160z m2041 228 c0 -5 -33 -8 -73 -9 -95 0 -190 -19 -311 -61 -131 -46 -227 -95 -260 -133 -30 -36 -32 -48 -12 -75 13 -18 19 -19 85 -7 88 15 233 16 286 1 53 -14 235 -100 235 -110 0 -10 -27 0 -98 36 -137 69 -255 88 -382 61 -94 -20 -109 -20 -132 1 -28 25 -23 75 11 112 49 52 263 143 416 176 65 15 235 20 235 8z m-1385 -53 c10 -11 24 -20 31 -20 26 0 25 -22 -2 -51 -15 -16 -33 -29 -41 -29 -18 0 -33 33 -33 73 0 51 15 60 45 27z m577 -7 c52 -31 66 -67 69 -177 3 -113 1 -116 -85 -141 -92 -28 -182 -13 -252 40 -55 42 -48 88 19 121 18 9 66 51 107 95 42 43 84 79 94 79 10 0 31 -8 48 -17z m-1277 -248 c9 -44 30 -120 47 -170 183 -539 654 -847 1242 -809 79 4 107 3 102 -5 -11 -17 -322 -14 -431 5 -453 78 -797 382 -938 829 -44 142 -76 350 -60 390 5 13 10 -10 15 -70 4 -49 15 -126 23 -170z m2085 227 c0 -4 -42 -8 -92 -8 -51 0 -120 -6 -153 -13 -76 -16 -211 -59 -250 -80 -30 -16 -28 -16 80 -22 76 -4 138 -15 199 -33 107 -32 186 -65 186 -77 0 -5 -17 -2 -37 7 -121 53 -218 76 -338 81 -66 3 -124 9 -130 15 -26 25 137 98 285 127 57 11 250 14 250 3z m-640 -35 c0 -34 -62 -52 -74 -21 -9 24 2 34 40 34 21 0 34 -5 34 -13z m-1495 -237 c29 -167 96 -334 189 -474 233 -350 604 -530 1058 -514 154 6 180 -6 35 -15 -194 -13 -417 20 -581 87 -150 60 -241 121 -362 241 -121 120 -171 188 -238 322 -83 166 -137 367 -135 500 l1 68 9 -65 c5 -36 15 -103 24 -150z m2130 178 c7 -7 -13 -8 -65 -4 -41 3 -68 3 -60 -1 8 -3 39 -14 68 -25 28 -11 52 -23 52 -28 0 -5 -28 1 -62 14 -35 13 -82 27 -105 31 -45 7 -56 20 -25 29 28 8 186 -4 197 -16z m-2179 -243 c78 -410 341 -742 700 -886 157 -64 271 -84 476 -84 98 0 178 -3 178 -7 0 -3 -39 -9 -87 -14 -169 -14 -421 25 -580 90 -333 137 -582 433 -687 816 -23 83 -40 226 -30 247 6 13 9 5 11 -32 2 -27 10 -86 19 -130z m-21 -179 c98 -343 346 -628 658 -758 143 -59 253 -79 461 -85 133 -4 183 -9 171 -16 -11 -6 -79 -8 -174 -4 -272 9 -465 66 -660 195 -79 52 -214 183 -280 272 -128 172 -234 452 -230 604 1 32 4 24 15 -38 7 -44 25 -120 39 -170z m-14 -162 c85 -217 243 -420 418 -538 205 -137 416 -198 688 -199 73 0 130 -4 127 -8 -9 -15 -255 -10 -355 7 -385 66 -675 284 -852 640 -66 131 -125 332 -110 371 4 9 15 -26 25 -78 11 -51 37 -139 59 -195z m-87 46 c25 -94 125 -292 194 -386 108 -144 240 -254 399 -333 148 -73 292 -107 505 -120 l133 -8 -112 -2 c-133 -1 -236 12 -351 45 -299 87 -547 294 -695 582 -46 88 -107 253 -107 288 0 33 17 1 34 -66z m22 -238 c179 -383 536 -622 969 -648 72 -4 111 -10 103 -16 -16 -11 -141 -2 -261 18 -93 16 -230 60 -312 102 -218 110 -413 316 -525 555 -22 47 -43 100 -45 119 l-6 33 17 -35 c9 -19 36 -77 60 -128z m46 -225 c173 -255 466 -429 788 -468 108 -13 124 -22 36 -20 -164 3 -414 93 -569 205 -127 91 -306 299 -352 411 -27 63 -15 61 21 -5 20 -35 54 -91 76 -123z m152 -275 c130 -105 278 -180 428 -218 79 -20 89 -28 23 -19 -194 28 -481 200 -597 359 -46 63 -32 62 21 -2 27 -32 83 -86 125 -120z"/>
<path d="M2686 2805 c-9 -23 -8 -25 9 -25 17 0 19 9 6 28 -7 11 -10 10 -15 -3z"/>
<path d="M2138 2708 c-6 -17 3 -68 12 -68 4 0 18 8 30 18 l21 17 -30 22 c-19 14 -31 18 -33 11z"/>
<path d="M2648 2683 c-13 -16 -38 -45 -53 -67 -16 -21 -53 -52 -83 -68 -29 -17 -56 -37 -59 -44 -16 -43 87 -104 176 -104 64 0 129 16 152 36 12 11 15 30 11 101 -5 99 -19 136 -62 158 -40 21 -53 19 -82 -12z m84 -50 c20 -18 26 -112 9 -156 -10 -27 -55 -47 -105 -47 -35 0 -118 38 -124 57 -2 7 14 23 35 36 21 13 57 47 81 76 46 54 72 63 104 34z"/>
<path d="M2636 2582 c-19 -27 -51 -57 -71 -67 -19 -11 -34 -24 -32 -30 5 -15 66 -34 112 -34 58 -1 82 19 90 77 15 108 -38 137 -99 54z m60 -27 c4 -8 3 -26 0 -40 -5 -21 -12 -25 -41 -25 -43 0 -46 20 -10 55 28 29 43 31 51 10z"/>
<path d="M2655 2530 c-20 -22 -15 -36 10 -27 8 4 15 16 15 27 0 25 -2 25 -25 0z"/>
</g>
<g id="layer107" fill="#c0c1c4" stroke="none">
<path d="M0 2400 l0 -2400 2400 0 2400 0 0 2400 0 2400 -2400 0 -2400 0 0 -2400z m2608 1163 c6 -16 21 -66 33 -113 75 -303 -19 -674 -200 -787 -111 -70 -134 -88 -149 -119 -20 -43 -10 -76 39 -129 128 -139 271 -166 537 -100 183 45 305 48 428 11 88 -26 154 -55 154 -68 0 -12 -4 -11 -70 16 -166 68 -305 72 -515 17 -248 -66 -392 -40 -533 93 -114 108 -93 196 67 276 133 67 223 255 247 519 8 87 -13 219 -62 389 -9 32 11 27 24 -5z m75 -20 c83 -233 82 -427 -3 -643 -63 -160 -145 -268 -249 -325 -101 -55 -105 -85 -21 -155 80 -67 129 -84 229 -77 48 3 140 20 206 37 160 43 317 51 420 22 69 -20 160 -53 197 -73 36 -19 7 -29 -30 -10 -20 10 -77 32 -127 47 -120 38 -276 40 -405 5 -181 -49 -204 -53 -295 -49 -76 3 -98 8 -144 33 -58 32 -131 107 -131 136 0 39 24 68 78 95 31 16 80 52 109 81 104 105 206 372 206 543 0 86 -26 232 -54 303 -10 26 -19 54 -19 62 0 30 17 14 33 -32z m85 -15 c59 -172 68 -346 26 -511 -48 -190 -32 -259 67 -287 51 -14 169 10 269 55 128 58 262 89 360 83 89 -5 69 -23 -28 -25 -97 -2 -210 -28 -311 -74 -208 -94 -345 -89 -391 13 -23 52 -24 84 -5 163 30 122 45 212 45 272 0 73 -30 233 -59 316 -15 42 -17 57 -7 57 7 0 22 -28 34 -62z m-210 -10 c40 -124 47 -172 46 -308 -1 -157 -16 -229 -71 -339 -48 -96 -113 -159 -218 -212 -105 -53 -129 -83 -123 -151 6 -62 50 -127 133 -195 139 -116 267 -138 475 -83 231 62 318 71 438 45 71 -15 170 -50 186 -66 21 -19 -3 -17 -61 6 -34 14 -86 30 -115 36 -78 15 -233 12 -303 -7 -316 -85 -423 -85 -570 1 -63 38 -156 132 -182 186 -30 61 -31 136 -2 173 12 15 61 47 110 71 96 49 143 90 194 169 69 109 107 315 85 473 -10 75 -40 204 -57 250 -3 7 -1 13 5 13 6 0 19 -28 30 -62z m291 -15 c45 -171 49 -362 10 -528 -43 -185 15 -225 206 -139 224 101 328 130 425 117 67 -9 45 -22 -37 -22 -100 0 -172 -20 -308 -83 -192 -90 -248 -98 -297 -46 -27 29 -29 37 -26 87 3 31 13 85 22 121 26 91 18 361 -13 467 -23 79 -26 103 -12 103 5 0 18 -35 30 -77z m-354 -46 c62 -194 53 -389 -25 -552 -50 -105 -142 -185 -212 -185 -37 0 -86 36 -105 77 -15 33 -18 73 -18 298 -1 176 -5 269 -13 288 -14 34 -15 47 -3 47 27 0 35 -70 36 -325 0 -273 1 -281 48 -332 27 -30 87 -31 133 -2 34 21 88 88 118 147 70 136 72 390 7 574 -12 32 -21 63 -21 70 1 28 32 -31 55 -105z m430 69 c50 -120 58 -314 20 -502 -26 -126 -25 -153 4 -155 32 -3 47 4 137 57 133 78 223 105 331 102 122 -4 118 -23 -4 -23 -118 0 -188 -21 -308 -93 -111 -67 -140 -77 -170 -64 -33 15 -41 55 -26 122 26 110 40 206 40 271 1 75 -21 213 -43 277 -18 50 -2 58 19 8z m-517 -3 c55 -142 79 -351 52 -464 -29 -123 -104 -242 -170 -269 -25 -10 -34 -10 -54 3 -40 27 -49 93 -42 305 7 181 -1 278 -29 346 -6 13 -4 17 5 14 7 -2 20 -22 29 -44 13 -31 16 -88 16 -294 1 -170 5 -264 13 -282 16 -38 52 -37 96 2 131 115 164 388 77 635 -23 66 -25 75 -12 75 5 0 13 -12 19 -27z m-45 -55 c35 -90 47 -156 47 -266 0 -139 -42 -273 -95 -308 -24 -16 -27 -15 -46 2 -20 18 -20 25 -14 214 7 192 3 239 -31 358 -13 46 15 20 33 -30 15 -46 18 -86 18 -285 0 -127 3 -234 6 -237 12 -13 36 6 58 44 25 45 51 168 51 243 0 65 -24 200 -43 247 -24 56 -29 80 -19 80 6 0 21 -28 35 -62z m645 49 c17 -20 52 -190 52 -249 0 -29 -9 -94 -19 -144 -18 -86 -18 -144 -1 -144 4 0 41 20 81 44 41 24 103 54 139 66 71 25 200 39 200 23 0 -6 -30 -13 -67 -16 -84 -7 -181 -41 -271 -96 -37 -22 -76 -41 -85 -41 -36 0 -40 47 -17 186 l22 130 -20 100 c-11 54 -25 111 -31 127 -11 28 -1 36 17 14z m-710 -34 c55 -154 69 -386 26 -440 -13 -16 -14 -12 -7 37 15 101 6 230 -21 328 -29 103 -29 102 -17 102 5 0 13 -12 19 -27z m811 -49 c9 -31 15 -98 15 -181 1 -118 3 -133 18 -133 9 0 55 20 102 45 54 28 100 45 121 45 57 0 47 -15 -18 -29 -35 -7 -90 -29 -129 -53 -39 -23 -76 -38 -90 -36 -23 3 -23 5 -20 104 3 91 -13 223 -34 278 -5 14 -3 17 7 14 8 -2 20 -27 28 -54z m77 -35 c7 -19 13 -56 13 -84 2 -76 9 -82 69 -57 54 23 82 28 82 13 0 -8 -68 -36 -118 -48 -35 -8 -52 13 -52 66 0 26 -6 70 -14 99 -15 59 0 68 20 11z m-1112 -61 c3 -29 6 -201 6 -383 0 -364 5 -406 61 -518 21 -42 58 -88 115 -144 146 -144 274 -185 459 -150 44 9 93 20 108 26 63 24 163 41 242 41 121 0 325 -51 325 -81 0 -7 -7 -8 -17 -4 -116 47 -259 70 -368 60 -38 -3 -104 -17 -145 -30 -127 -40 -227 -58 -289 -52 -125 14 -243 76 -347 183 -71 73 -111 140 -144 239 -23 68 -24 81 -25 445 0 206 -5 385 -9 398 -6 16 -5 22 6 22 11 0 17 -16 22 -52z m1206 -8 c0 -10 -4 -22 -10 -25 -6 -4 -10 7 -10 25 0 18 4 29 10 25 6 -3 10 -15 10 -25z m-1281 -102 c6 -53 11 -181 11 -285 0 -323 23 -473 88 -578 69 -111 196 -223 302 -266 78 -31 219 -37 325 -14 44 10 100 21 125 26 63 11 202 10 284 -1 83 -12 206 -48 206 -61 0 -12 -6 -12 -85 10 -161 45 -343 51 -465 15 -30 -8 -111 -18 -180 -21 -110 -5 -132 -3 -184 16 -151 53 -293 179 -364 321 -23 47 -46 108 -52 135 -6 28 -15 196 -20 375 -5 179 -13 347 -19 375 -9 49 -6 74 9 58 4 -4 12 -52 19 -105z m-80 -48 c5 -41 12 -147 16 -235 19 -489 69 -640 271 -807 124 -102 249 -137 439 -122 61 5 189 8 285 7 150 -1 188 -5 264 -25 49 -13 92 -30 94 -38 3 -9 -1 -11 -14 -6 -11 4 -73 18 -139 32 -131 26 -268 30 -395 13 -108 -15 -256 -13 -321 4 -203 54 -398 247 -455 451 -25 89 -33 164 -49 441 -9 149 -18 295 -22 325 -4 41 -3 52 6 45 6 -6 15 -45 20 -85z m-70 -142 c6 -68 15 -186 21 -263 12 -150 40 -312 67 -385 57 -154 195 -310 340 -384 104 -52 146 -58 468 -66 224 -5 325 -11 398 -25 59 -11 96 -23 94 -29 -5 -12 -5 -12 -137 10 -61 10 -200 19 -390 23 -287 8 -297 9 -364 35 -111 43 -175 85 -262 173 -69 69 -90 99 -133 186 -28 57 -55 127 -61 156 -5 29 -12 56 -14 60 -7 11 -24 180 -41 401 -8 113 -18 217 -21 232 -3 15 -2 33 2 40 12 19 21 -26 33 -164z m-81 -20 c7 -68 14 -152 17 -188 19 -229 63 -426 122 -544 38 -78 129 -191 200 -252 65 -55 199 -126 263 -139 19 -4 53 -11 75 -16 22 -5 160 -15 307 -24 258 -15 416 -30 426 -40 15 -14 -16 -16 -110 -6 -57 6 -195 15 -308 21 -325 16 -426 37 -564 114 -116 65 -243 203 -311 335 -67 131 -105 328 -136 688 -10 125 -9 173 4 173 3 0 9 -55 15 -122z m-70 -121 c19 -260 73 -501 143 -639 57 -112 153 -229 247 -301 177 -136 392 -188 840 -204 117 -4 192 -10 192 -16 0 -7 -78 -8 -227 -3 -436 13 -630 62 -823 211 -135 104 -250 271 -306 445 -22 66 -61 227 -69 285 -11 81 -33 369 -28 378 14 23 20 -9 31 -156z m-75 -64 c5 -133 12 -178 43 -309 93 -391 349 -683 694 -792 153 -49 223 -57 472 -57 130 0 234 -3 230 -7 -4 -4 -61 -12 -126 -16 -244 -18 -463 9 -634 77 -352 140 -584 432 -671 841 -21 103 -47 373 -36 389 17 28 22 1 28 -126z m-48 -288 c90 -374 312 -672 613 -824 178 -90 402 -135 640 -129 83 1 152 0 152 -4 0 -28 -367 -21 -510 10 -223 49 -408 150 -571 312 -176 175 -288 380 -348 635 -26 111 -41 288 -26 313 7 13 12 -11 17 -93 3 -62 18 -158 33 -220z m1140 275 c23 -45 20 -60 -15 -60 -37 0 -47 20 -30 60 16 38 25 38 45 0z m-1185 -358 c87 -304 229 -530 432 -683 235 -176 482 -247 824 -237 126 4 143 2 130 -10 -20 -21 -309 -20 -431 1 -397 68 -704 299 -880 662 -76 157 -120 316 -131 482 -11 149 7 146 22 -5 7 -73 22 -168 34 -210z m1981 318 c27 0 49 -4 49 -10 0 -6 -36 -10 -88 -10 -94 0 -215 -26 -352 -75 -169 -61 -234 -110 -228 -169 3 -29 5 -31 43 -30 22 1 74 7 115 14 98 16 177 7 275 -31 91 -35 175 -78 175 -91 0 -12 2 -12 -101 36 -55 26 -129 52 -177 61 -77 16 -89 16 -185 0 -128 -21 -148 -18 -166 20 -13 26 -12 33 5 64 26 47 79 83 199 131 146 60 329 106 373 94 8 -2 36 -4 63 -4z m-1328 -69 c20 -12 37 -26 37 -30 0 -12 -24 -38 -52 -55 -25 -17 -27 -16 -37 3 -12 22 -15 94 -4 105 8 7 6 8 56 -23z m564 -1 c45 -27 59 -62 66 -166 8 -108 0 -124 -70 -148 -75 -26 -168 -21 -227 12 -62 34 -95 76 -80 100 6 9 33 32 60 49 27 18 60 45 72 60 62 74 106 113 126 113 11 0 35 -9 53 -20z m-1293 -140 c34 -296 165 -572 362 -761 247 -236 552 -339 944 -318 58 3 107 4 109 2 17 -13 -32 -24 -127 -30 -229 -13 -468 34 -657 129 -121 61 -214 130 -309 228 -174 181 -295 427 -341 694 -16 94 -20 188 -8 200 10 10 10 11 27 -144z m2074 132 c17 -1 32 -6 32 -12 0 -6 -39 -10 -97 -10 -136 0 -304 -37 -397 -88 l-31 -17 115 -6 c96 -5 133 -13 225 -44 125 -42 145 -51 145 -66 0 -7 -7 -8 -17 -4 -10 4 -70 26 -133 48 -104 36 -126 40 -227 42 -61 2 -116 6 -122 10 -40 24 45 75 196 116 116 32 182 38 311 31z m-618 -52 c0 -30 -46 -49 -67 -28 -24 25 -9 48 32 48 28 0 35 -4 35 -20z m-1510 -116 c49 -439 286 -799 645 -977 174 -86 355 -123 598 -121 86 1 157 -2 157 -6 0 -14 -168 -23 -285 -16 -343 20 -640 165 -844 412 -165 199 -265 440 -292 698 -8 79 -5 116 7 103 3 -2 9 -44 14 -93z m2119 77 c47 -13 34 -28 -21 -24 l-53 4 44 -18 c24 -10 46 -24 49 -32 3 -10 0 -12 -14 -6 -67 27 -128 45 -153 45 -31 0 -47 13 -36 30 7 11 146 12 184 1z m-2153 -235 c27 -170 97 -348 195 -492 64 -96 211 -246 298 -304 206 -138 495 -212 763 -197 54 4 100 2 103 -2 14 -24 -224 -28 -380 -6 -247 34 -465 137 -633 299 -150 144 -235 276 -320 501 -40 103 -73 315 -56 352 6 14 9 11 11 -17 2 -19 10 -80 19 -134z m-30 -156 c66 -281 259 -558 493 -708 194 -124 456 -190 717 -180 68 2 103 0 101 -7 -5 -15 -256 -18 -352 -5 -289 40 -546 179 -722 392 -82 99 -108 139 -160 244 -71 142 -103 241 -122 378 -13 93 0 120 16 31 6 -38 20 -104 29 -145z m-27 -137 c85 -282 314 -554 576 -685 150 -76 354 -118 570 -118 88 0 125 -3 115 -10 -8 -5 -78 -10 -155 -10 -411 0 -754 177 -975 505 -88 131 -169 322 -190 449 -14 89 1 102 20 16 10 -41 27 -108 39 -147z m-79 48 c0 -30 44 -161 82 -243 151 -326 448 -566 781 -632 120 -24 148 -27 270 -28 113 -1 142 -11 72 -24 -48 -9 -282 13 -374 35 -198 48 -387 154 -530 299 -128 129 -221 280 -291 470 -29 82 -40 159 -20 147 6 -3 10 -14 10 -24z m15 -261 c47 -108 94 -186 167 -276 218 -269 504 -407 865 -417 99 -2 111 -17 21 -25 -55 -4 -272 22 -311 38 -12 4 -47 16 -77 25 -233 71 -478 273 -618 512 -47 79 -102 211 -101 241 0 31 -5 41 54 -98z m62 -265 c147 -205 353 -357 583 -429 47 -15 136 -34 200 -42 63 -9 116 -17 118 -19 14 -14 -80 -14 -159 0 -275 48 -500 172 -673 370 -81 94 -176 246 -176 284 0 20 9 9 36 -44 20 -38 52 -92 71 -120z m201 -315 c113 -84 266 -157 381 -181 84 -17 98 -31 25 -26 -73 6 -221 64 -336 134 -96 57 -254 203 -286 263 -20 38 -12 32 63 -48 48 -50 116 -114 153 -142z"/>
<path d="M2687 2805 c-8 -20 -4 -29 11 -24 5 2 6 13 2 23 -6 19 -7 19 -13 1z"/>
<path d="M2657 2683 c-95 -107 -121 -132 -156 -148 -51 -23 -56 -38 -25 -74 26 -32 98 -61 150 -61 52 0 132 20 153 38 17 16 18 26 10 112 -8 92 -9 96 -43 128 -43 39 -57 40 -89 5z m69 -38 c25 -17 36 -70 27 -133 -5 -35 -12 -48 -37 -63 -40 -24 -102 -24 -160 1 -52 22 -58 41 -20 67 15 10 54 46 87 81 33 34 65 62 71 62 6 0 21 -7 32 -15z"/>
<path d="M2630 2570 c-28 -32 -60 -62 -71 -65 -55 -18 38 -60 108 -50 52 8 63 25 63 97 0 53 -12 78 -36 78 -7 0 -35 -27 -64 -60z m65 -40 c0 -29 -5 -36 -28 -44 -21 -8 -31 -6 -43 6 -14 13 -13 18 12 47 34 41 59 38 59 -9z"/>
<path d="M2655 2530 c-20 -22 -16 -34 9 -24 9 3 16 15 16 25 0 24 -3 24 -25 -1z"/>
</g>
<g id="layer108" fill="#ffffff" stroke="none">
<path d="M0 2400 l0 -2400 2400 0 2400 0 0 2400 0 2400 -2400 0 -2400 0 0 -2400z m2608 1163 c39 -98 56 -201 56 -338 1 -189 -26 -303 -101 -430 -48 -81 -88 -122 -148 -152 -103 -53 -145 -103 -131 -158 9 -35 76 -107 134 -144 114 -72 237 -79 448 -26 179 45 307 48 430 11 88 -26 154 -55 154 -68 0 -11 8 -13 -105 29 -96 36 -105 37 -230 37 -117 0 -142 -3 -250 -33 -198 -55 -348 -45 -459 31 -48 32 -116 100 -132 130 -39 75 3 147 125 208 132 66 223 256 247 519 8 87 -13 219 -62 389 -9 32 11 27 24 -5z m80 -35 c48 -153 56 -193 56 -308 0 -123 -17 -203 -68 -329 -64 -159 -140 -259 -233 -309 -109 -58 -116 -93 -34 -161 82 -68 104 -76 216 -75 81 1 127 8 240 37 214 56 341 51 524 -22 74 -30 92 -41 87 -50 -3 -5 -43 6 -88 25 -96 38 -215 64 -290 64 -57 -1 -181 -24 -317 -60 -120 -32 -244 -26 -319 15 -71 39 -132 105 -132 145 0 36 21 59 85 90 95 46 185 164 244 320 35 92 62 221 63 300 1 78 -30 249 -57 313 -17 41 -19 67 -6 67 5 0 18 -28 29 -62z m80 0 c60 -174 69 -340 27 -510 -14 -56 -25 -127 -25 -159 0 -50 4 -63 28 -90 53 -60 177 -54 333 16 121 55 210 77 318 79 55 0 95 -3 97 -9 3 -6 -28 -11 -79 -11 -95 -2 -220 -32 -315 -75 -209 -94 -345 -90 -392 13 -26 57 -25 99 6 215 47 179 40 342 -22 525 -16 49 -19 68 -10 68 7 0 22 -28 34 -62z m-204 -25 c69 -214 59 -449 -26 -621 -52 -106 -113 -169 -209 -217 -101 -51 -139 -88 -139 -137 0 -57 40 -127 110 -191 147 -137 281 -165 500 -107 230 62 317 71 438 45 71 -15 170 -50 186 -66 22 -21 -6 -17 -80 13 -76 31 -85 32 -224 32 -137 0 -153 -2 -280 -37 -261 -72 -412 -42 -568 112 -72 70 -102 130 -102 198 0 68 22 94 129 148 127 64 210 160 249 287 31 99 44 247 31 354 -9 76 -18 117 -55 247 -3 9 -1 17 5 17 5 0 21 -35 35 -77z m284 0 c44 -164 52 -345 21 -495 -6 -29 -15 -70 -19 -92 -11 -52 5 -104 36 -118 34 -16 105 2 213 53 182 86 310 120 396 103 62 -11 37 -21 -67 -26 -112 -6 -142 -15 -338 -104 -68 -31 -123 -49 -157 -52 -48 -4 -55 -2 -83 26 -25 26 -30 38 -30 80 0 27 8 69 17 93 14 36 17 81 17 234 1 168 -2 199 -21 268 -25 84 -28 107 -14 107 5 0 18 -35 29 -77z m-360 -25 c70 -212 64 -401 -18 -573 -51 -106 -142 -185 -213 -185 -41 0 -88 41 -110 95 -18 46 -19 66 -13 250 5 182 1 258 -20 339 -5 22 -4 28 7 24 26 -9 33 -68 33 -323 1 -273 2 -281 49 -332 46 -52 141 -18 206 71 110 155 133 438 52 644 -23 57 -26 82 -12 82 5 0 22 -42 39 -92z m446 25 c46 -159 49 -298 11 -481 -14 -66 -22 -128 -19 -136 12 -30 62 -17 167 43 133 78 217 103 327 99 121 -4 112 -23 -13 -24 -123 -2 -181 -20 -314 -99 -111 -67 -143 -75 -172 -46 -26 26 -26 57 -1 163 40 164 36 332 -10 480 -13 43 -15 58 -6 58 7 0 20 -26 30 -57z m-521 5 c46 -127 50 -148 54 -269 3 -77 1 -147 -7 -182 -33 -162 -169 -317 -229 -263 -37 33 -44 94 -37 304 6 176 5 206 -13 277 -18 75 -19 107 -1 88 4 -4 15 -38 24 -76 14 -55 17 -110 14 -295 -3 -250 3 -282 46 -282 52 0 127 95 162 207 21 68 29 226 15 306 -6 37 -23 99 -36 139 -28 81 -29 88 -16 88 5 0 16 -19 24 -42z m-50 -40 c35 -90 47 -156 47 -266 0 -139 -42 -273 -95 -308 -24 -16 -27 -15 -45 1 -18 16 -19 32 -17 244 1 190 -1 234 -16 276 -19 57 -21 75 -8 75 5 0 17 -21 27 -47 16 -41 18 -81 19 -285 0 -130 3 -240 8 -244 12 -12 54 34 70 79 21 56 37 149 37 213 0 67 -24 191 -50 261 -23 61 -23 63 -11 63 5 0 20 -28 34 -62z m645 49 c18 -21 52 -192 52 -254 -1 -32 -7 -85 -15 -118 -17 -69 -20 -165 -5 -165 5 0 35 16 66 36 91 58 189 94 277 101 100 8 105 -12 5 -21 -86 -9 -158 -34 -259 -92 -86 -50 -103 -53 -120 -23 -12 24 -8 76 17 201 14 70 14 86 -1 174 -10 53 -23 114 -31 136 -13 38 -6 50 14 25z m-710 -34 c55 -143 69 -384 26 -440 -13 -16 -13 -11 -7 47 13 109 6 213 -21 316 -30 110 -29 104 -17 104 5 0 13 -12 19 -27z m811 -49 c9 -30 15 -99 15 -182 1 -126 2 -132 22 -132 11 0 42 14 69 31 58 37 116 59 156 59 51 0 39 -16 -21 -28 -32 -7 -89 -31 -127 -53 -41 -24 -78 -38 -93 -37 -25 3 -25 3 -22 98 2 85 -16 238 -34 285 -5 13 -3 16 7 13 8 -2 20 -27 28 -54z m78 -35 c7 -19 12 -56 13 -84 1 -76 8 -82 68 -57 54 23 82 28 82 13 0 -8 -68 -36 -118 -48 -35 -8 -52 13 -52 66 0 26 -6 70 -14 99 -15 60 1 69 21 11z m-1113 -61 c3 -29 6 -201 6 -383 0 -366 6 -410 62 -519 39 -75 172 -209 247 -250 61 -33 146 -55 211 -56 49 0 179 23 223 39 102 39 270 52 379 30 111 -22 202 -58 186 -74 -2 -2 -33 7 -69 19 -97 36 -240 51 -339 37 -45 -7 -100 -19 -123 -27 -93 -33 -221 -56 -282 -50 -116 10 -224 62 -332 160 -68 61 -121 143 -157 241 l-29 80 -2 380 c-1 209 -5 390 -9 403 -6 16 -5 22 6 22 11 0 17 -16 22 -52z m1206 -8 c0 -10 -4 -22 -10 -25 -6 -4 -10 7 -10 25 0 18 4 29 10 25 6 -3 10 -15 10 -25z m-1281 -102 c6 -54 11 -182 11 -285 0 -338 23 -475 98 -592 65 -104 194 -213 302 -256 73 -28 207 -31 325 -6 194 42 388 38 538 -12 38 -12 67 -26 65 -32 -1 -5 -7 -8 -13 -6 -61 21 -159 43 -245 52 -112 13 -190 7 -340 -26 -52 -12 -108 -16 -185 -13 -107 3 -112 4 -200 48 -127 62 -235 171 -295 293 -56 116 -67 196 -74 542 -4 154 -10 305 -15 335 -5 30 -6 59 -4 63 12 20 22 -14 32 -105z m-80 -48 c6 -47 15 -185 21 -307 19 -398 58 -528 203 -675 149 -151 282 -200 502 -182 60 5 189 8 285 8 150 -1 188 -5 264 -25 51 -14 92 -30 94 -38 3 -10 0 -12 -14 -7 -11 4 -62 16 -114 27 -127 27 -295 35 -400 20 -107 -16 -271 -16 -335 0 -153 37 -332 180 -408 327 -70 133 -84 215 -107 632 -6 102 -13 217 -17 255 -8 101 13 72 26 -35z m-70 -148 c6 -70 16 -184 21 -254 19 -230 54 -382 108 -478 68 -119 190 -239 299 -294 104 -52 146 -58 468 -66 224 -5 325 -11 398 -25 59 -11 96 -23 94 -29 -5 -12 -5 -12 -137 10 -61 10 -200 18 -390 23 l-295 8 -82 32 c-174 68 -301 186 -384 356 -27 55 -53 120 -58 145 -5 25 -14 69 -20 99 -6 29 -20 164 -31 300 -11 135 -23 265 -26 288 -7 50 6 81 17 40 4 -15 12 -85 18 -155z m-80 -24 c33 -362 53 -491 96 -618 61 -180 193 -342 348 -430 126 -71 233 -90 612 -110 198 -11 344 -25 353 -35 15 -14 -16 -16 -110 -6 -57 6 -195 15 -308 21 -250 12 -338 24 -431 55 -114 39 -197 91 -285 179 -129 129 -205 282 -248 500 -18 86 -56 450 -56 527 0 97 18 46 29 -83z m-71 -111 c33 -456 139 -724 359 -912 188 -160 392 -215 871 -231 105 -4 192 -11 192 -16 0 -21 -469 -1 -629 27 -359 62 -610 280 -731 635 -26 75 -57 218 -70 315 -15 121 -30 327 -24 337 15 23 21 -6 32 -155z m-44 -317 c108 -497 388 -787 856 -887 68 -14 131 -18 322 -18 257 0 302 -13 91 -26 -425 -26 -754 80 -985 319 -211 218 -317 492 -344 885 -5 75 -3 101 7 114 12 14 15 -4 21 -128 4 -94 15 -184 32 -259z m-78 -36 c44 -183 119 -350 216 -481 114 -155 276 -289 433 -359 187 -83 375 -118 607 -112 133 3 155 2 145 -10 -19 -23 -395 -11 -512 16 -225 53 -408 153 -566 311 -176 177 -285 375 -348 631 -28 113 -44 299 -28 319 9 11 14 -10 20 -98 4 -61 19 -159 33 -217z m1139 276 c28 -53 10 -84 -34 -60 -23 12 -26 26 -11 64 13 34 26 33 45 -4z m-1214 -180 c22 -197 93 -406 187 -555 53 -83 172 -222 237 -275 236 -196 502 -279 861 -268 99 3 143 1 141 -6 -6 -18 -184 -26 -325 -15 -169 13 -297 45 -440 110 -168 76 -356 237 -460 394 -140 211 -232 487 -232 696 0 69 13 105 17 47 2 -18 8 -76 14 -128z m2022 144 c64 -11 41 -24 -43 -24 -100 0 -231 -29 -368 -80 -163 -62 -222 -103 -222 -156 0 -42 22 -48 117 -29 148 30 266 9 433 -75 33 -17 60 -35 60 -40 0 -14 -5 -13 -62 16 -79 40 -167 71 -238 84 -52 9 -81 9 -165 -5 -123 -20 -145 -18 -165 18 -14 25 -13 30 5 65 26 49 88 89 216 139 185 73 334 103 432 87z m-1340 -73 c20 -12 37 -29 37 -37 0 -16 -69 -65 -81 -58 -17 10 -30 83 -19 105 6 11 14 19 18 17 4 -2 24 -14 45 -27z m564 -1 c46 -28 59 -62 67 -171 5 -85 4 -98 -12 -112 -30 -28 -101 -47 -171 -47 -53 0 -76 6 -115 28 -59 33 -91 71 -82 100 4 11 31 34 61 51 34 19 70 52 99 90 67 87 93 98 153 61z m-1286 -190 c14 -108 67 -278 123 -389 140 -281 374 -488 655 -580 141 -46 216 -56 428 -56 131 0 202 -4 200 -10 -10 -29 -310 -30 -462 -1 -160 31 -319 95 -452 182 -81 53 -252 226 -306 309 -134 209 -227 488 -227 680 0 73 14 78 22 8 4 -32 13 -96 19 -143z m2047 184 c84 -11 60 -24 -41 -24 -54 0 -133 -8 -186 -19 -94 -20 -226 -66 -237 -82 -3 -5 33 -9 84 -9 97 0 190 -20 311 -66 41 -16 76 -35 79 -43 3 -10 0 -12 -14 -7 -168 69 -309 101 -390 91 -57 -7 -104 7 -104 30 0 31 208 108 340 125 77 10 98 11 158 4z m-593 -54 c0 -8 -12 -21 -27 -30 -25 -13 -29 -13 -44 2 -10 9 -14 24 -10 33 8 21 81 17 81 -5z m-1515 -91 c0 -183 114 -493 242 -664 236 -312 554 -460 991 -459 92 1 167 -3 167 -7 0 -14 -133 -22 -260 -16 -515 25 -896 299 -1080 775 -56 145 -106 399 -85 433 12 19 25 -12 25 -62z m2113 55 c59 -10 47 -32 -15 -27 l-53 3 40 -15 c22 -9 44 -20 49 -25 20 -20 -3 -20 -51 -1 -27 10 -70 22 -96 26 -48 7 -63 17 -52 35 7 11 119 13 178 4z m-2148 -235 c62 -371 290 -699 595 -858 197 -103 429 -151 663 -136 64 3 107 2 107 -3 0 -24 -204 -30 -364 -12 -304 35 -595 199 -781 440 -96 125 -181 304 -225 473 -25 94 -37 217 -24 244 6 14 9 9 11 -22 2 -22 10 -79 18 -126z m-51 -47 c16 -139 100 -361 186 -488 159 -235 389 -403 640 -468 128 -33 273 -49 400 -45 65 3 106 0 108 -6 3 -15 -257 -18 -353 -5 -415 57 -748 313 -915 705 -65 152 -110 338 -94 389 7 20 7 20 14 1 4 -11 10 -48 14 -83z m-40 -113 c80 -409 369 -747 751 -879 98 -34 286 -60 430 -60 93 0 126 -3 118 -11 -19 -19 -284 -12 -399 10 -304 60 -564 231 -733 483 -109 161 -217 451 -195 521 9 27 12 19 28 -64z m-44 -88 c0 -28 44 -158 79 -236 119 -260 354 -489 601 -584 141 -55 241 -73 417 -79 158 -4 197 -14 110 -27 -59 -9 -287 12 -377 34 -387 96 -690 384 -826 785 -25 72 -32 142 -14 131 6 -3 10 -14 10 -24z m11 -251 c43 -102 98 -195 167 -282 214 -268 508 -411 865 -420 81 -3 94 -5 80 -15 -36 -27 -277 -2 -418 43 -92 30 -209 86 -292 141 -83 54 -233 202 -291 286 -86 125 -163 285 -161 336 0 30 -4 37 50 -89z m31 -218 c143 -231 368 -408 613 -485 44 -13 134 -32 200 -42 66 -9 122 -18 124 -20 1 -2 -12 -7 -31 -10 -19 -4 -77 1 -129 10 -250 44 -447 144 -620 315 -115 114 -230 286 -228 342 1 20 3 18 15 -10 8 -19 33 -64 56 -100z m236 -372 c84 -63 216 -131 307 -159 39 -11 93 -28 120 -36 l50 -15 -65 4 c-78 4 -219 59 -343 133 -95 56 -252 202 -285 264 -20 37 -12 30 63 -49 48 -50 116 -114 153 -142z"/>
<path d="M2685 2800 c-8 -13 -1 -24 14 -19 6 3 7 10 2 18 -6 10 -10 10 -16 1z"/>
<path d="M2140 2680 c0 -37 10 -42 36 -21 l21 17 -28 17 -29 16 0 -29z"/>
<path d="M2653 2678 c-62 -71 -130 -134 -160 -150 -57 -30 -40 -68 47 -107 51 -23 96 -26 168 -10 79 16 86 25 83 105 -3 95 -16 138 -52 168 -40 34 -51 33 -86 -6z m68 -29 c30 -16 41 -57 34 -122 -6 -52 -11 -61 -39 -78 -40 -24 -102 -24 -160 1 -52 22 -58 41 -20 67 32 22 58 47 105 101 38 44 48 48 80 31z"/>
<path d="M2630 2570 c-28 -32 -60 -62 -71 -65 -55 -18 38 -60 108 -50 52 8 63 25 63 97 0 53 -12 78 -36 78 -7 0 -35 -27 -64 -60z m68 -37 c4 -35 -22 -57 -60 -51 -32 4 -32 22 -2 57 33 40 58 37 62 -6z"/>
<path d="M2655 2530 c-18 -19 -17 -20 3 -20 15 0 22 6 22 20 0 11 -2 20 -3 20 -2 0 -12 -9 -22 -20z"/>
</g>


</svg>