<svg xmlns="http://www.w3.org/2000/svg" xmlns:xlink="http://www.w3.org/1999/xlink" width="694.667" height="792" viewBox="0 0 694.667 792"><defs><style>.a{fill:#eee;}.b{fill:#fff;}.c{fill:#8494ab;}.d{fill:#f9f9f9;}.e{fill:#f0f0f0;}.f{fill:#e0e0e0;}.g{fill:#0c0c40;}.h,.l{fill:#625ca8;}.h{opacity:0.5;}.i{fill:#d2ecf9;}.j{clip-path:url(#a);}.k{fill:#6282d5;}.m{fill:#e8505b;}.n{fill:#263238;}.o{fill:#ffbe9d;}.p{fill:#d2498b;}.q{fill:#eb996e;}.r{fill:#455a64;}.s,.t{opacity:0.2;}.u{fill:#52ade1;}</style><clipPath id="a"><ellipse cx="19.904" cy="19.904" rx="19.904" ry="19.904"/></clipPath></defs><g transform="translate(19.667 12.667)"><path class="a" d="M169.256,821.095,166.519,50c0-4.547,11.184-12.667,14.572-12.667L341.747,43c22.572,18.234,49.367,83.516,56.635,115.634,12.391,54.767,39.612,92.795,53.443,102.966,36.125,26.56,76.833,20.145,115.97,32.491,42.378,13.379,81.908,47.8,100.551,98.748,18.038,49.253,12.784,90.554,23.26,141.235,10.639,51.472,48.811,91.433,85.067,110.062,38.417,19.75,75.573,34.578,82.595,90.378,3.617,28.713,2.057,66.324-4.163,94.817H175.41C172.006,829.333,169.256,825.642,169.256,821.095Z" transform="translate(-186.186 -50)"/><g transform="translate(43.719 165.996)"><path class="b" d="M737.384,125.72V337.73H453.18V125.72ZM466.611,323.967H723.93V139.5H466.611Z" transform="translate(-453.18 -125.72)"/><rect class="b" width="6.627" height="197.297" transform="translate(138.777 7.356)"/><rect class="b" width="274.749" height="6.627" transform="translate(4.727 102.702)"/></g><ellipse class="c" cx="175.278" cy="17.077" rx="175.278" ry="17.077" transform="translate(98.284 683.081)"/><path class="c" d="M300.71,356.57c0,5.368,22.445,9.72,50.125,9.72s50.125-4.352,50.125-9.72-22.445-9.72-50.125-9.72S300.71,351.2,300.71,356.57Z" transform="translate(263.788 304.618)"/><ellipse class="b" cx="21.937" cy="21.937" rx="21.937" ry="21.937" transform="translate(80.302 200.242)"/><g transform="translate(229.621 -9.05)"><g transform="translate(-41 28)"><rect class="d" width="162.86" height="93.85" transform="translate(102.36 34.05)"/><rect class="e" width="108.13" height="3.17" transform="translate(123.79 84.13)"/><rect class="e" width="115.58" height="3.46" transform="translate(123.79 95.95)"/><rect class="e" width="115.58" height="3.46" transform="translate(123.79 107.91)"/><rect class="e" width="37.79" height="8.23" transform="translate(123.79 66.96)"/><rect class="f" width="162.86" height="15.1" transform="translate(102.36 34.05)"/><path class="b" d="M252.14,46.82c-.21-.2,1.89-2.73,4.69-5.65s5.23-5.13,5.44-4.93-1.89,2.73-4.69,5.65S252.34,47.02,252.14,46.82Z"/><path class="b" d="M262.26,46.82c-.21.2-2.64-2.01-5.44-4.93s-4.9-5.45-4.69-5.65,2.64,2.01,5.44,4.93S262.47,46.63,262.26,46.82Z"/></g><rect class="d" width="192.3" height="191.66" transform="translate(253.08 68.28)"/><rect class="f" width="192.3" height="22.45" transform="translate(253.08 68.28)"/><path class="b" d="M269.46,79.28a4.164,4.164,0,1,1-4.16-4.35A4.258,4.258,0,0,1,269.46,79.28Z"/><path class="b" d="M285.13,76.34a4.169,4.169,0,1,1-6.02-.13A4.255,4.255,0,0,1,285.13,76.34Z"/><path class="b" d="M303.24,79.28a4.164,4.164,0,1,1-4.16-4.35A4.258,4.258,0,0,1,303.24,79.28Z"/></g><g transform="translate(123.876 178.941)"><g transform="translate(0 0)"><rect class="g" width="77.072" height="53.009" transform="translate(212.017 326.004)"/><rect class="h" width="77.072" height="19.217" transform="translate(212.017 326.004)"/><path class="g" d="M376.422,341.33H219.973a8.943,8.943,0,1,0,0,17.886H376.422a8.952,8.952,0,0,0,8.943-8.943h0A8.93,8.93,0,0,0,376.422,341.33Z" transform="translate(-47.652 36.847)"/><path class="h" d="M385.368,347.477a8.952,8.952,0,0,1-8.943,8.943H219.993a8.941,8.941,0,0,1-8.943-8.943,7.556,7.556,0,0,1,.29-2.167,8.92,8.92,0,0,0,8.67,6.775H376.442a8.92,8.92,0,0,0,8.67-6.775A8.977,8.977,0,0,1,385.368,347.477Z" transform="translate(-47.638 39.659)"/><path class="b" d="M123.078,451.509a5.485,5.485,0,0,1-5.478-5.478V127.518a5.485,5.485,0,0,1,5.478-5.478h482.3a5.485,5.485,0,0,1,5.478,5.478V446.031a5.485,5.485,0,0,1-5.478,5.478Z" transform="translate(-113.675 -118.115)"/><path class="g" d="M607,127.591a1.566,1.566,0,0,1,1.57,1.57V447.673a1.566,1.566,0,0,1-1.57,1.57H124.7a1.566,1.566,0,0,1-1.57-1.57V129.144a1.566,1.566,0,0,1,1.57-1.57H607m0-7.834H124.7a9.41,9.41,0,0,0-9.4,9.4V447.656a9.41,9.41,0,0,0,9.4,9.4H607a9.41,9.41,0,0,0,9.4-9.4V129.144a9.41,9.41,0,0,0-9.4-9.4Z" transform="translate(-115.3 -119.74)"/><g transform="translate(0 296.138)"><path class="g" d="M616.407,324.389V293.26H115.3v31.129A10.616,10.616,0,0,0,125.915,335H605.792A10.616,10.616,0,0,0,616.407,324.389Z" transform="translate(-115.3 -293.26)"/></g><g transform="translate(230.65 26.059)"><ellipse class="i" cx="19.904" cy="19.904" rx="19.904" ry="19.904"/><g class="j"><path class="k" d="M268.217,155.646a7.7,7.7,0,1,1-7.7-7.7A7.7,7.7,0,0,1,268.217,155.646Zm3.914,32.252V174.274a9.1,9.1,0,0,0-9.1-9.1h-5a9.1,9.1,0,0,0-9.1,9.1V187.9a2.524,2.524,0,0,0,2.524,2.524h18.171A2.517,2.517,0,0,0,272.131,187.9Z" transform="translate(-240.617 -140.289)"/></g></g><g transform="translate(0 12)"><path class="i" d="M399.122,222.913H214.292A15.288,15.288,0,0,1,199,207.622h0a15.288,15.288,0,0,1,15.292-15.292H399.122a15.288,15.288,0,0,1,15.292,15.292h0A15.288,15.288,0,0,1,399.122,222.913Z" transform="translate(-56.153 -68.271)"/><path class="k" d="M385.37,206.937h-172a4,4,0,0,1-3.994-3.994h0a4,4,0,0,1,3.994-3.994h172a4,4,0,0,1,3.994,3.994h0A4,4,0,0,1,385.37,206.937Z" transform="translate(-48.818 -63.892)"/></g><g transform="translate(0 5)"><path class="i" d="M399.122,222.913H214.292A15.288,15.288,0,0,1,199,207.622h0a15.288,15.288,0,0,1,15.292-15.292H399.122a15.288,15.288,0,0,1,15.292,15.292h0A15.288,15.288,0,0,1,399.122,222.913Z" transform="translate(-56.153 -112.271)"/><path class="k" d="M385.37,206.937h-172a4,4,0,0,1-3.994-3.994h0a4,4,0,0,1,3.994-3.994h172a4,4,0,0,1,3.994,3.994h0A4,4,0,0,1,385.37,206.937Z" transform="translate(-48.818 -107.892)"/></g><g transform="translate(0 7.201)"><path class="i" d="M399.212,255.123H214.382a15.288,15.288,0,0,1-15.292-15.292h0a15.288,15.288,0,0,1,15.292-15.292h184.83A15.288,15.288,0,0,1,414.5,239.832h0A15.31,15.31,0,0,1,399.212,255.123Z" transform="translate(-56.089 -45.683)"/><path class="k" d="M212.474,239.307h0a4,4,0,0,1-3.994-3.994h0a4,4,0,0,1,3.994-3.994h0a4,4,0,0,1,3.994,3.994h0A4,4,0,0,1,212.474,239.307Zm15.855-3.994h0a4,4,0,0,0-3.994-3.994h0a4,4,0,0,0-3.994,3.994h0a4,4,0,0,0,3.994,3.994h0A4,4,0,0,0,228.328,235.314Zm11.878,0h0a4,4,0,0,0-3.994-3.994h0a4,4,0,0,0-3.994,3.994h0a4,4,0,0,0,3.994,3.994h0A4,4,0,0,0,240.207,235.314Zm11.861,0h0a4,4,0,0,0-3.994-3.994h0a4,4,0,0,0-3.994,3.994h0a4,4,0,0,0,3.994,3.994h0A4,4,0,0,0,252.068,235.314Zm11.861,0h0a4,4,0,0,0-3.994-3.994h0a4,4,0,0,0-3.994,3.994h0a4,4,0,0,0,3.994,3.994h0A3.988,3.988,0,0,0,263.929,235.314Zm11.878,0h0a4,4,0,0,0-3.994-3.994h0a4,4,0,0,0-3.994,3.994h0a4,4,0,0,0,3.994,3.994h0A4,4,0,0,0,275.807,235.314Zm11.861,0h0a4,4,0,0,0-3.994-3.994h0a4,4,0,0,0-3.994,3.994h0a4,4,0,0,0,3.994,3.994h0A4,4,0,0,0,287.669,235.314Z" transform="translate(-49.454 -40.892)"/></g><path class="l" d="M305.558,288.863h-52.5a15.288,15.288,0,0,1-15.292-15.292h0a15.288,15.288,0,0,1,15.292-15.292h52.5a15.288,15.288,0,0,1,15.292,15.292h0A15.288,15.288,0,0,1,305.558,288.863Z" transform="translate(-28.756 -22.221)"/></g></g><g transform="translate(136.113 224.61)"><g transform="translate(0 0)"><g transform="translate(56.695 452.357)"><path class="m" d="M182.075,454.46V439.851l-26.163-.171-.222,22.05,1.621.119c7.219.461,36.727,1.143,41.557-.358C204.278,459.836,182.075,454.46,182.075,454.46Z" transform="translate(-155.69 -439.68)"/><g transform="translate(0.085 20.019)"><path class="n" d="M199.464,451.854c0,.239-9.779.444-21.862.444-12.066,0-21.862-.2-21.862-.444s9.779-.444,21.862-.444C189.668,451.41,199.464,451.615,199.464,451.854Z" transform="translate(-155.74 -451.41)"/></g><g transform="translate(26.755 15.099)"><path class="n" d="M171.458,451.195c-.222-.119-.034-.887.529-1.638.563-.768,1.246-1.161,1.417-.99s-.188.819-.7,1.519C172.191,450.768,171.679,451.314,171.458,451.195Z" transform="translate(-171.367 -448.527)"/></g><g transform="translate(28.412 15.522)"><path class="n" d="M172.444,451.975c-.222-.085-.1-.956.41-1.86.512-.922,1.195-1.468,1.382-1.314s-.137.9-.614,1.741C173.144,451.395,172.666,452.06,172.444,451.975Z" transform="translate(-172.338 -448.775)"/></g><g transform="translate(0.423 15.266)"><path class="n" d="M163.485,453.753c-.1.068-.495-.307-1.058-.956a17.954,17.954,0,0,0-2.287-2.3,5.967,5.967,0,0,0-2.833-1.229c-.8-.1-1.314.017-1.365-.12-.051-.1.444-.461,1.382-.512a5.168,5.168,0,0,1,3.345,1.161,9.3,9.3,0,0,1,2.253,2.628C163.383,453.19,163.587,453.685,163.485,453.753Z" transform="translate(-155.938 -448.625)"/></g><g transform="translate(24.404 14.914)"><path class="n" d="M172.516,448.523c.137.2-.324.717-1.075.99s-1.417.188-1.451-.068c-.034-.239.495-.529,1.143-.768S172.38,448.318,172.516,448.523Z" transform="translate(-169.989 -448.419)"/></g><g transform="translate(23.398 13.175)"><path class="n" d="M172.523,447.827c.017.239-.666.461-1.553.461-.887.017-1.587-.171-1.57-.427.017-.239.717-.461,1.553-.461S172.489,447.588,172.523,447.827Z" transform="translate(-169.4 -447.4)"/></g></g><g transform="translate(121.121 452.357)"><path class="m" d="M219.825,454.46V439.851l-26.163-.171-.222,21.828,1.621.12c7.219.461,36.727,1.365,41.557-.12C242.028,459.836,219.825,454.46,219.825,454.46Z" transform="translate(-193.44 -439.68)"/><g transform="translate(0.085 20.053)"><path class="n" d="M237.214,451.874c0,.239-9.779.444-21.862.444-12.066,0-21.862-.2-21.862-.444s9.779-.444,21.862-.444S237.214,451.635,237.214,451.874Z" transform="translate(-193.49 -451.43)"/></g><g transform="translate(26.755 15.099)"><path class="n" d="M209.208,451.195c-.222-.119-.034-.887.529-1.638.563-.768,1.246-1.161,1.417-.99s-.188.819-.7,1.519C209.941,450.768,209.429,451.314,209.208,451.195Z" transform="translate(-209.117 -448.527)"/></g><g transform="translate(28.412 15.522)"><path class="n" d="M210.194,451.975c-.222-.085-.1-.956.41-1.86.512-.922,1.195-1.468,1.382-1.314s-.137.9-.614,1.741C210.894,451.395,210.433,452.06,210.194,451.975Z" transform="translate(-210.088 -448.775)"/></g><g transform="translate(0.423 15.266)"><path class="n" d="M201.235,453.753c-.1.068-.495-.307-1.058-.956a17.954,17.954,0,0,0-2.287-2.3,5.967,5.967,0,0,0-2.833-1.229c-.8-.1-1.314.017-1.365-.12-.051-.1.444-.461,1.382-.512a5.168,5.168,0,0,1,3.345,1.161,9.3,9.3,0,0,1,2.253,2.628C201.133,453.19,201.337,453.685,201.235,453.753Z" transform="translate(-193.688 -448.625)"/></g><g transform="translate(24.404 14.914)"><path class="n" d="M210.266,448.523c.119.2-.324.717-1.075.99s-1.417.188-1.451-.068c-.034-.239.495-.529,1.143-.768C209.55,448.438,210.13,448.318,210.266,448.523Z" transform="translate(-207.739 -448.419)"/></g><g transform="translate(23.398 13.175)"><path class="n" d="M210.273,447.827c.017.239-.666.461-1.553.461-.887.017-1.587-.171-1.57-.427.017-.239.717-.461,1.553-.461S210.239,447.588,210.273,447.827Z" transform="translate(-207.15 -447.4)"/></g></g><g transform="translate(0 10.812)"><path class="o" d="M366.368,203.966c-.683-.7-2.355-.375-2.355-.375a9.125,9.125,0,0,0-.017-2.953c-.307-.973-2.458-.785-2.458-.785a9.88,9.88,0,0,1,.051-2.423.842.842,0,0,0-.495-.853,7.927,7.927,0,0,0-3.208-.58c-1.314-.939,4.011-8.4,5.99-10.786,1.946-2.355,1.621-4.25-.137-4.25-1.195,0-7.424,7.168-9.318,9.574s-7,9.1-7.168,3.755-2.321-9.387-3.652-10.069c-1.348-.683-2.782.922-2.048,2.406a19.9,19.9,0,0,1,1.195,5.256,12.671,12.671,0,0,1-.2,4.318,48.2,48.2,0,0,1-2.3,7.714l-.137-.068s-37.256,35.72-39.936,38.263c-2.423,2.287-50.824-2.714-60.518-3.738a67.319,67.319,0,0,0-9.984-.683c-4.2.188-4.949.785-9.165.836a207.308,207.308,0,0,0-31.624,2.782,26.2,26.2,0,0,0-20.582,17.852c-9.779,30.549-31.931,102.86-35.874,143.478-3.106,5.837-6.588,12.663-7.987,16.5-2.748,7.475-2.082,7.714-1.161,7.9,2.475.461,5.325-12.953,6.383-9.711s-5.376,15.991-2.765,16.367c3.413.495,6.127-13.6,6.434-14.78.307-1.143,2.031-.751,1.69.29-.495,1.5-5.291,17.425-1.963,17.937,1.86.29,2.048-3.089,2.048-3.089s3.4-15.223,4.966-14.933c1.587.29-.1,9.3-.887,12.3-.785,2.97.324,4.54,1.911,3.789,1.092-.512,3.7-9.625,4.42-12.612.7-2.987,2.509-11.2,4.915-6.434s6.059,7.526,7.56,7.595c1.5.051,2.133-2.014.836-3.055a18.836,18.836,0,0,1-3.294-4.267,12.577,12.577,0,0,1-1.638-3.994,44.98,44.98,0,0,1-1.195-8.636l-.273-1.758c3.823-18.927,14.831-74.478,30.669-109.959l6.519,13.414,2.833,9.933-17.374,42.905,74.086-.973-11.042-42.564,13.414-44.373h0c14.524.324,51.831.87,58.094-1.929,7.816-3.5,48.264-54.476,48.264-54.476h0a96.87,96.87,0,0,0,7.56-6.554C365.429,207.447,367.853,205.5,366.368,203.966Z" transform="translate(-122.47 -180.96)"/></g><g transform="translate(26.248 64.094)"><path class="p" d="M160.958,304.7c2.15-7.339,13.192-43.622,13.192-43.622s5.427,29.576,3.994,33.143a62.081,62.081,0,0,1-4.659,8.806c-12.527,19.08-10.888,28.621-10.888,28.621l75.673-2.3c.188-10.581-6.076-35.191-7.39-39.116s3.038-16.793,3.038-16.793,8.55-8.687,8.226-13.158c-.666-9.011-1.485-11.912-1.485-11.912l46.046,1.69L285.254,218.8,219.07,212.18c-2.287,6.519-23.142,3.328-23.142,3.328-22.511.734-23.859,4.881-33.246,12.151s-24.832,69.665-24.832,69.665Z" transform="translate(-137.85 -212.18)"/><g transform="translate(40.857 82.376)"><path class="n" d="M188.789,263.2a16,16,0,0,1-3.994.2c-2.458-.017-5.871-.171-9.608-.546s-7.117-.9-9.523-1.382a16.427,16.427,0,0,1-3.874-.99,19.64,19.64,0,0,1,3.977.375c2.44.307,5.786.734,9.506,1.109s7.1.631,9.54.8A21.149,21.149,0,0,1,188.789,263.2Z" transform="translate(-161.79 -260.448)"/></g><g transform="translate(43.707 78.671)"><path class="n" d="M192.8,258.3a18.5,18.5,0,0,1-4.13,1.417,75.741,75.741,0,0,1-10.342,1.98,76.762,76.762,0,0,1-10.513.512,16.632,16.632,0,0,1-4.352-.41,26.665,26.665,0,0,1,4.352-.222c2.679-.085,6.366-.273,10.411-.768,4.045-.478,7.68-1.16,10.308-1.707A27.921,27.921,0,0,1,192.8,258.3Z" transform="translate(-163.46 -258.277)"/></g><g transform="translate(92.184 49.988)"><path class="n" d="M198.189,241.47a15.924,15.924,0,0,1-.512,3.857c-.444,2.355-1.126,5.6-2,9.165s-1.758,6.758-2.458,9.045a15.96,15.96,0,0,1-1.331,3.669,17.377,17.377,0,0,1,.717-3.823c.649-2.662,1.382-5.717,2.2-9.1.836-3.379,1.587-6.417,2.253-9.079A15.831,15.831,0,0,1,198.189,241.47Z" transform="translate(-191.864 -241.47)"/></g><g transform="translate(0.836 81.838)"><path class="n" d="M161.414,266.46c-.068.239-5.291-.973-11.656-2.714-6.383-1.741-11.486-3.345-11.418-3.584s5.291.99,11.656,2.714C156.363,264.617,161.482,266.221,161.414,266.46Z" transform="translate(-138.34 -260.133)"/></g><g transform="translate(82.537 1.788)"><path class="n" d="M207.3,247.228a6.212,6.212,0,0,1-1.963-.017,20.38,20.38,0,0,1-5.205-1.246,21.916,21.916,0,0,1-6.792-4.13,21.2,21.2,0,0,1-5.547-8,22.153,22.153,0,0,1-1.536-9.626,15.1,15.1,0,0,1,2.338-7.612,7.85,7.85,0,0,1,4.318-3.174,4.7,4.7,0,0,1,1.451-.188,1.51,1.51,0,0,1,.512.068c0,.085-.7.051-1.86.444a7.977,7.977,0,0,0-3.908,3.209c-2.321,3.652-2.97,10.325-.495,16.555a21.064,21.064,0,0,0,5.274,7.714,22.551,22.551,0,0,0,6.468,4.164C204.487,247.092,207.337,247.023,207.3,247.228Z" transform="translate(-186.212 -213.228)"/></g><g transform="translate(142.999 5.803)"><path class="n" d="M222.05,247.034c-.239,0-.427-7.048-.41-15.718.017-8.687.222-15.735.478-15.735.239,0,.427,7.048.41,15.735C222.511,239.985,222.306,247.034,222.05,247.034Z" transform="translate(-221.639 -215.58)"/></g></g><g transform="translate(37.069)"><g transform="translate(44.543 6.221)"><path class="o" d="M195.736,238.054c.188-3.806.58-8.107.58-8.107s9.421-1.041,9.984-10.769,0-32.17,0-32.17l-17.152-8.738-18.859,14.9,2.867,48.64,17.357,1.109A5.012,5.012,0,0,0,195.736,238.054Z" transform="translate(-170.29 -178.27)"/></g><g transform="translate(67.776 33.903)"><path class="q" d="M187.806,200.02c.034,0,.034.188-.154.427a1.312,1.312,0,0,1-1.075.478c-1.092-.051-2.15-1.263-2.526-2.731a4.919,4.919,0,0,1-.051-2.167,1.86,1.86,0,0,1,1.024-1.468.857.857,0,0,1,1.109.41c.119.29.034.461,0,.444-.034,0-.034-.154-.171-.341a.619.619,0,0,0-.8-.171,1.544,1.544,0,0,0-.7,1.212,4.39,4.39,0,0,0,.085,1.929c.341,1.314,1.263,2.406,2.065,2.509a1.219,1.219,0,0,0,.922-.256C187.7,200.139,187.772,200,187.806,200.02Z" transform="translate(-183.903 -194.49)"/></g><path class="n" d="M230.6,184.345c-1.314-4.471-6.076-6.707-10.411-7.936-6.6-1.877-13.756-2.7-20.19-.324-6.451,2.372-14.2,6.554-14.2,13.67-3.806-.307-5.973,3.021-7.492,7.151a27.356,27.356,0,0,0-1.621,7.851l-.068-.017c-.495,9.318-3.089,22.169-9.131,29.064-3.345,3.806-8.141,6.434-10.086,11.179-1.69,4.13-.819,8.994-2.406,13.158-1.417,3.669-4.54,6.28-6.775,9.472-4.881,6.963-5.205,16.793-1.621,24.559a31.191,31.191,0,0,0,18.568,16.06c7.885,2.611,16.486,2.321,24.508.222a40.811,40.811,0,0,0,16.418-8.141,27.408,27.408,0,0,0,9.421-15.906c1.195-6.98-.751-14.046-2.185-20.975-4.54-21.913-3.243-23.04,2.492-43.366.137-.358.2-.734.307-1.092.068-.273.154-.529.222-.8h-.017a12.858,12.858,0,0,0,.273-2.423,4.652,4.652,0,0,1-4.932-1.075,5.123,5.123,0,0,1-1.161-5.1,7.4,7.4,0,0,1,4.4-4.147c1.894-.8,3.925-1.195,5.786-2.082,3.942-1.877,6.673-5.768,8.533-9.847C230.512,190.625,231.485,187.365,230.6,184.345Z" transform="translate(-144.19 -174.625)"/><g transform="translate(69.411 39.842)"><path class="m" d="M187.812,197.97a8.845,8.845,0,0,1,.9,1.69c.512,1.075,1.195,2.594,1.946,4.352l.137.324-.358.034q-.845.077-1.741.154c-1.195.085-2.185.222-3.345.2a.608.608,0,0,1-.444-.393.947.947,0,0,1-.034-.478c.051-.273.1-.461.154-.7l.307-1.212a11.546,11.546,0,0,1,.717-2.355,11.388,11.388,0,0,1-.358,2.44l-.239,1.229c-.085.41-.239,1.024-.017.99.853-.034,2.065-.171,3.191-.256.6-.051,1.161-.085,1.741-.137l-.222.358c-.734-1.758-1.348-3.311-1.775-4.42A6.919,6.919,0,0,1,187.812,197.97Z" transform="translate(-184.861 -197.97)"/></g></g><g transform="translate(47.326 181.238)"><g transform="translate(0 0)"><path class="l" d="M153.869,283.124l75.673-2.3,32.9,128.579-6.059,147.489H216.333L221.3,412.539,192.03,323.025l4.506,239.58-40.431.6L151.838,338.01c-.171-6.263-2.236-20.377-1.468-26.59Z" transform="translate(-150.2 -280.82)"/></g><g transform="translate(27.153 39.02)"><path class="r" d="M190.874,308.695a14.151,14.151,0,0,1-3.7-.222c-2.27-.273-5.41-.751-8.84-1.434-3.43-.7-6.5-1.468-8.7-2.1a14.8,14.8,0,0,1-3.516-1.229c.068-.239,5.564,1.092,12.39,2.458S190.908,308.439,190.874,308.695Z" transform="translate(-166.11 -303.684)"/></g><g transform="translate(65.314 267.535)"><path class="r" d="M228.986,438.024c0,.239-9.062.444-20.258.444s-20.258-.2-20.258-.444,9.062-.444,20.258-.444S228.986,437.768,228.986,438.024Z" transform="translate(-188.47 -437.58)"/></g><g transform="translate(6.707 275.112)"><path class="r" d="M193.417,442.464c0,.239-8.789.444-19.644.444s-19.644-.2-19.644-.444,8.789-.444,19.644-.444C184.611,442.02,193.417,442.225,193.417,442.464Z" transform="translate(-154.13 -442.02)"/></g><g transform="translate(36.865 41.096)"><path class="r" d="M175.707,538.745c-.239,0-1.314-52.343-2.372-116.906-1.075-64.58-1.724-116.94-1.485-116.94s1.314,52.343,2.372,116.923C175.3,486.385,175.964,538.745,175.707,538.745Z" transform="translate(-171.801 -304.9)"/></g><g transform="translate(73.228 2.304)"><path class="r" d="M220.333,547.844a4.379,4.379,0,0,1-.017-.7c.017-.495.017-1.178.034-2.048.051-1.843.137-4.489.222-7.851.239-6.878.58-16.725,1.007-28.894.939-24.439,2.219-58.111,3.652-95.316.017-.341.034-.683.034-1.007l.017.12c-8.977-35.908-17.084-68.368-22.954-91.9-2.884-11.725-5.222-21.214-6.844-27.835-.785-3.26-1.382-5.8-1.809-7.578-.188-.836-.341-1.485-.444-1.98a2.948,2.948,0,0,1-.119-.683,3.779,3.779,0,0,1,.2.666c.137.478.307,1.126.529,1.946.461,1.775,1.126,4.3,1.98,7.543,1.69,6.6,4.13,16.077,7.117,27.767,5.939,23.518,14.131,55.961,23.211,91.852l.017.068v.068c-.017.307-.034.666-.034,1.007-1.519,37.188-2.9,70.877-3.908,95.3-.546,12.168-.973,22.016-1.28,28.877-.171,3.379-.307,6.007-.393,7.851-.051.87-.1,1.536-.119,2.048A3.808,3.808,0,0,1,220.333,547.844Z" transform="translate(-193.108 -282.17)"/></g><g transform="translate(69.222 129.098)"><path class="r" d="M208.936,356.525c.034.239-3.925,1.126-8.84,1.963-3.686.631-6.861,1.075-8.243,1.143v-.341c.461.119.717.222.7.29s-.273.085-.751.068l-1.041-.051,1.024-.307c1.331-.393,4.471-1.041,8.158-1.673C204.874,356.764,208.9,356.286,208.936,356.525Z" transform="translate(-190.76 -356.464)"/></g><g transform="translate(70.741 132.6)"><path class="r" d="M207.556,359.974c-.034.239-3.584-.034-7.97-.358-4.386-.341-7.936-.631-7.936-.87s3.584-.358,8-.017C204.057,359.069,207.573,359.735,207.556,359.974Z" transform="translate(-191.65 -358.516)"/></g><g transform="translate(3.345)"><path class="s" d="M152.16,285.838c1.826,2.577,4.437,3.482,7.475,3.976a33.79,33.79,0,0,0,9.182-.171c19.541-2.167,40.226-4.164,59.357-8.823-24.764,1.382-50.909.922-75.673,2.3,0,0-.2,1.707-.256,2.116" transform="translate(-152.16 -280.82)"/></g><g class="t" transform="translate(28.859 39.919)"><path d="M167.11,304.21l13.96,54.169L180.1,306.5Z" transform="translate(-167.11 -304.21)"/></g></g></g></g><g transform="translate(567.327 451.971)"><path class="l" d="M360.64,349.788c7.312-3.093,12.614-5.677,11.377-17.364-.6-5.545-2.563-9.389-6.539-12.747-3.225-2.717-4.86-3.711-5.854-8.218-1.5-6.826.4-12.437-2.872-18.689-3.49-6.672-11.046-6.009-14.558-12.216-3.026-5.39-4.418-11.355-11.289-13.454-6.075-1.856-9.764,3.336-7.688,8.638,1.193,3.071,3.756,5.722,4.529,8.991.751,3.225-.817,5.412-2.342,8.063-3.645,6.274-5.523,13.807,1.546,20.191,4.219,3.8,7.445,7.091,5.324,13.365-2.43,7.158-3.667,11.532,2.784,17.806,4.838,4.705,9.345,4.33,14.779,4.705,4.882.331,11.244,2.408,15.221-.862Z" transform="translate(-322.159 -244.244)"/><path class="l" d="M308.146,344.318c5.236,5.611,9.72,10.007,17.43,3.336,3.932-3.38,5.633-7.467,5.545-13.321-.088-4.595-.4-6.672,2.452-10.184,4.485-5.523,10.891-7.511,13.807-14.624,3.115-7.666-3.866-12.592-1.326-19.484,2.187-5.987,6.318-11.62,2.386-16.789-3.2-4.219-9.831-1.679-12.349,3.159-1.436,2.784-1.7,5.9-3.557,8.571-1.789,2.585-4.2,3.247-6.76,4.175-5.7,2.055-10.825,5.523-11.311,12.835-.287,4.529-.729,8.262-5.037,10.184-4.551,2.032-7.091,3.336-7.931,10.206-.663,5.3,1.06,8.306,2.85,12.548,1.7,4.065,3.137,10.427,6.826,12.747Z" transform="translate(-254.068 -238.929)"/><g transform="translate(9.431 34.498)"><path class="b" d="M352.969,335.672a3.568,3.568,0,0,0,.685-.044.53.53,0,0,0,.486-.6.5.5,0,0,0-.6-.486c-3.623.376-7.378-2.916-9.455-5.854-1.657-2.342-1.5-4.462-1.326-7.135l.133-2.209c.354-5.766.663-10.758-3.822-15.287-4.971-5.015-6.186-8.108-5.92-15.066.022-.574.044-1.171.088-1.767a28.8,28.8,0,0,0-.155-6.915,14.66,14.66,0,0,0-1.326-3.424,10.327,10.327,0,0,1-1.37-4.175.547.547,0,0,0-.552-.552h0a.561.561,0,0,0-.552.552,10.908,10.908,0,0,0,1.48,4.639A13.9,13.9,0,0,1,332,280.533a27.486,27.486,0,0,1,.133,6.627c-.044.619-.066,1.237-.088,1.812-.265,7.246,1.082,10.67,6.252,15.884,4.131,4.175,3.866,8.7,3.512,14.448l-.133,2.187c-.2,2.784-.376,5.191,1.524,7.842C345.414,332.447,349.1,335.672,352.969,335.672Z" transform="translate(-329.287 -272.16)"/></g><g transform="translate(6.123 63.73)"><path class="b" d="M348.829,304.341a2.976,2.976,0,0,0,2.3-1.193.549.549,0,0,0-.839-.707,1.751,1.751,0,0,1-1.856.751c-2.32-.574-4.838-5.545-5.258-7.4-1.215-5.479-2.651-8.284-8.019-10.361a.546.546,0,1,0-.4,1.016c5.147,1.988,6.23,4.551,7.334,9.565.354,1.657,2.96,7.467,6.053,8.24A3.411,3.411,0,0,0,348.829,304.341Z" transform="translate(-334.409 -285.392)"/></g><g transform="translate(50.872 43.293)"><path class="b" d="M307.938,335.343a6.315,6.315,0,0,0,2.916-.707c3.844-2.032,5.633-8,7.2-13.255a36.939,36.939,0,0,1,2.386-6.649,30.018,30.018,0,0,1,9.565-10.538c5.39-3.954,6.716-6.959,7.666-13.409.8-5.28,1.878-10.6,4.242-13.763a.552.552,0,0,0-.884-.663c-2.541,3.358-3.645,8.836-4.462,14.271-.928,6.23-2.121,8.925-7.246,12.68a31.646,31.646,0,0,0-9.875,10.891,39.586,39.586,0,0,0-2.474,6.87c-1.5,5.059-3.225,10.781-6.649,12.592a5.689,5.689,0,0,1-4.573.221.545.545,0,1,0-.331,1.038A8.118,8.118,0,0,0,307.938,335.343Z" transform="translate(-305.041 -276.141)"/></g><g transform="translate(69.239 56.269)"><path class="b" d="M313.3,301.069a.6.6,0,0,0,.331-.11.538.538,0,0,0,.088-.773c-1.613-2.1-.641-5.434.42-8.947.906-3.071,1.856-6.252,1.06-8.836a.545.545,0,0,0-1.038.331c.707,2.253-.2,5.28-1.06,8.174-1.082,3.645-2.209,7.4-.243,9.941A.516.516,0,0,0,313.3,301.069Z" transform="translate(-311.785 -282.015)"/></g><g transform="translate(64.687 67.297)"><path class="b" d="M305.211,302.5a.646.646,0,0,0,.2-.044,10.886,10.886,0,0,0,1.966-1.038,6.287,6.287,0,0,1,3.115-1.149,15.359,15.359,0,0,1,2.032.044,7.871,7.871,0,0,0,4.462-.641,24.345,24.345,0,0,0,7.511-6.583c.353-.442.817-1.127,1.281-1.856.685-1.038,1.966-3,2.452-3.115a.562.562,0,0,0-.2-1.1c-.862.155-1.767,1.458-3.181,3.6-.464.707-.906,1.37-1.215,1.767a24.47,24.47,0,0,1-7.135,6.3,6.75,6.75,0,0,1-3.888.53,14.165,14.165,0,0,0-2.187-.044,7.539,7.539,0,0,0-3.6,1.3,10.692,10.692,0,0,1-1.811.95.564.564,0,0,0,.2,1.083Z" transform="translate(-304.664 -287.007)"/></g><path class="u" d="M351.487,363.126c7.842-6.605,17.143-11.046,15.044-23.638-1.745-10.427-13.763-13.1-10.007-24.322,2.408-7.158,8.638-15.442,6.517-23.439-2.253-8.549-13.409-5.125-15.817-13.1-2.032-6.738,5.081-14.536-1.237-20.037-5.567-4.86-15.442-.243-18.424,5.324-3.822,7.135,2.5,12.415,1.458,19.374-.685,4.507-4.993,5.147-8.13,7.732-3.049,2.518-6.34,6.429-7.666,10.184-4.065,11.554,7.555,15.729,11.068,24.632,3.314,8.395-8,10.979-8.859,19.44-.95,9.345,9.057,16.7,17.1,18.225C338.056,364.539,346.539,367.3,351.487,363.126Z" transform="translate(-295.179 -256.544)"/><g transform="translate(41.385 18.161)"><path class="b" d="M328.845,355.9a.376.376,0,0,0,.155-.022.558.558,0,0,0,.376-.685c-.066-.221-6.318-21.649-.994-44.448,3.358-14.426.331-24.521-2.121-32.651-1.458-4.838-2.717-8.991-2.032-12.68a.55.55,0,1,0-1.082-.2c-.729,3.954.552,8.24,2.054,13.211,2.408,8,5.412,17.938,2.1,32.076-5.39,23.085.95,44.779,1.016,45A.544.544,0,0,0,328.845,355.9Z" transform="translate(-322.935 -264.765)"/></g><g transform="translate(27.434 40.212)"><path class="b" d="M342.247,298.546a.567.567,0,0,0,.552-.464.534.534,0,0,0-.464-.619c-4.573-.707-9.809-4.882-10.294-10.007-.066-.619-.088-1.281-.133-1.988-.2-3.358-.464-7.533-2.894-9.543a6,6,0,0,0-4.75-1.1.556.556,0,1,0,.133,1.1,4.912,4.912,0,0,1,3.91.862c2.077,1.723,2.3,5.633,2.5,8.77.044.707.088,1.392.155,2.032.552,5.81,6.274,10.228,11.244,10.979C342.181,298.524,342.2,298.546,342.247,298.546Z" transform="translate(-323.777 -274.747)"/></g><g transform="translate(46.052 38.43)"><path class="b" d="M319.667,299.654a8.288,8.288,0,0,0,5.457-1.944c2.231-1.944,3.358-5.368,3.247-9.853q-.033-.663-.066-1.524c-.155-3.181-.4-8,1.591-10.162a3.56,3.56,0,0,1,2.585-1.127.547.547,0,0,0,.53-.574.562.562,0,0,0-.574-.53h0a4.579,4.579,0,0,0-3.358,1.48c-2.3,2.5-2.032,7.6-1.878,10.957.022.552.044,1.06.066,1.5.11,4.153-.884,7.268-2.872,8.991-1.7,1.48-4.153,1.988-7.268,1.48a.559.559,0,0,0-.177,1.1A14.589,14.589,0,0,0,319.667,299.654Z" transform="translate(-316.479 -273.94)"/></g><g transform="translate(26.582 82.768)"><path class="b" d="M340.543,311.484a5.238,5.238,0,0,0,2.01-.376.562.562,0,0,0,.309-.729.554.554,0,0,0-.729-.309c-3.314,1.37-8.417-2.386-10.339-4.86a15.251,15.251,0,0,1-1.878-4.33c-.994-3.026-2.032-6.163-4.838-6.848a.529.529,0,0,0-.663.4.556.556,0,0,0,.4.663c2.209.552,3.137,3.38,4.043,6.119a15.7,15.7,0,0,0,2.077,4.661C332.634,308.126,336.832,311.484,340.543,311.484Z" transform="translate(-324.402 -294.01)"/></g><g transform="translate(44.508 73.654)"><path class="b" d="M319.654,316.251a6.737,6.737,0,0,0,2.143-.376c4.043-1.414,7.445-6.429,8.726-9.477.685-1.613.773-3.91.862-6.362.133-3.866.287-7.842,2.806-9.1a.558.558,0,1,0-.508-.994c-3.115,1.568-3.27,6.075-3.424,10.051-.088,2.32-.155,4.529-.773,5.965-1.171,2.739-4.374,7.577-8.063,8.859a4.827,4.827,0,0,1-4.065-.287.573.573,0,0,0-.751.221.552.552,0,0,0,.221.751A5.71,5.71,0,0,0,319.654,316.251Z" transform="translate(-316.535 -289.885)"/></g><g transform="translate(3.643 103.312)"><path class="p" d="M383.58,303.31a104.269,104.269,0,0,1,6.252,36.274c0,38.439-19.087,69.609-42.636,69.609s-42.636-31.171-42.636-69.609a103.67,103.67,0,0,1,6.252-36.274Z" transform="translate(-304.56 -303.31)"/><path class="l" d="M305.36,319.822a94.935,94.935,0,0,1,4.484-16.5h72.769a94.94,94.94,0,0,1,4.485,16.5Z" transform="translate(-303.593 -303.298)"/></g></g></g></svg>