<svg xmlns="http://www.w3.org/2000/svg" width="678.931" height="638.825" viewBox="0 0 678.931 638.825"><defs><style>.a{opacity:0.3;}.b{fill:#48bbc7;}</style></defs><g class="a" transform="translate(-238.831 139)"><path class="b" d="M939.328,663.04l129.017-73.99c17.36-9.958,17.36-26.1,0-36.05L939.328,479c-17.354-9.958-31.428-1.8-31.428,18.2V644.814C907.9,664.839,921.968,672.986,939.328,663.04Z" transform="translate(-390.098 -390.601)"/><path class="b" d="M1117.431,337.422c-.555-2.226-1.207-4.451-1.8-6.634C1104.217,303.8,1015.415,110.243,815.182,108.8c-77.814-.6-172.457,27.824-285.931,106.284,0,0,31.952,47.252,84.674,67.191a130.967,130.967,0,0,0,49.849,8.671h.652a128.25,128.25,0,0,0,33.428-4.079s52.5-20.543,112.175-21.1A233.175,233.175,0,0,1,846,268.121q5.433.8,10.83,1.921c.762.159,1.524.323,2.287.488,3.61.793,7.2,1.677,10.763,2.7,2.476.707,4.927,1.494,7.372,2.323,3.378,1.146,6.738,2.384,10.043,3.762a142.145,142.145,0,0,1,16.7,8.287c28.885,16.83,53.1,45.2,65.972,91.082,0,0,6.9,23.287,7.061,54.514.024,4.073-.073,8.281-.311,12.592q-.119,2.159-.287,4.342c-1.915,24.781-8.811,52.447-26.19,76.8q-1.537,2.149-3.177,4.262c-14.244,18.306-34.812,34.465-64.161,45.7q-6.769,2.588-14.177,4.823t-15.476,4.067q-8.067,1.838-16.836,3.25l-186.7,3.616-72.063,1.39a205.228,205.228,0,0,0-24.531,9.622c-14.47,6.641-33.343,16.946-50.965,31.6-1.018.835-1.994,1.713-3.012,2.6-28.056,24.342-52.026,59.959-48.368,109.76H853.1s65.887-7.61,133.285-49.563a305.477,305.477,0,0,0,65.527-54.392,281.756,281.756,0,0,0,32.4-43.648.006.006,0,0,1,.006-.006c19.287-31.946,33.983-70.661,40.849-117.541v-.006c.012-.079.024-.165.031-.244.079-.579.165-1.183.244-1.8a.046.046,0,0,1,.006-.03,351.918,351.918,0,0,0,3.89-52.185v-2.738A348.32,348.32,0,0,0,1117.431,337.422Z" transform="translate(-211.572 -247.794)"/></g></svg>