<svg xmlns="http://www.w3.org/2000/svg" width="77.06" height="52.056" viewBox="0 0 77.06 52.056"><defs><style>.a{fill:#2e2f30;}.b{fill:#cc3434;}.c{fill:#f5feff;}.d{fill:#ba2b2b;}.e{fill:#d9e2e1;}.f{fill:#a32323;}.g{fill:#c9d3d1;}.h{fill:#db9c00;}.i{fill:#996a00;}</style></defs><g transform="translate(0.211)"><path class="a" d="M0,304.01v10.163a7.173,7.173,0,0,0,7.437,7.189H69.409a7.173,7.173,0,0,0,7.437-7.189V304.01Z" transform="translate(0 -269.306)"/><path class="b" d="M69.409,80.01H7.437A7.173,7.173,0,0,0,0,87.2V97.362H76.845V87.2A7.173,7.173,0,0,0,69.409,80.01Z" transform="translate(0 -80.01)"/><rect class="c" width="77" height="18" transform="translate(-0.211 17)"/><path d="M335.527,321.362c4.09,0,7.685-2.975,7.685-7.189V304.01H315.2Z" transform="translate(-266.366 -269.306)"/><path class="d" d="M109.972,80.01H48L68.575,97.362h48.834V87.2A7.173,7.173,0,0,0,109.972,80.01Z" transform="translate(-40.563 -80.01)"/><path class="e" d="M201.07,209.362h27.887V192.01H180Z" transform="translate(-152.113 -174.658)"/><path class="f" d="M109.972,80.01H48l57.386,17.352h12.023V87.2A7.173,7.173,0,0,0,109.972,80.01Z" transform="translate(-40.563 -80.01)"/><path class="g" d="M427.042,195.48v-3.47H414.4Z" transform="translate(-350.197 -174.658)"/><path d="M76.845,368.134c.124,4.462-3.346,7.313-7.437,7.313H7.437A7.38,7.38,0,0,1,0,368.01" transform="translate(0 -323.39)"/><g transform="translate(32.225 17.476)"><path class="h" d="M220.394,207.435c-.124-1.735-.124-3.47-.248-5.206a13.471,13.471,0,0,0-.124-2.231,32.741,32.741,0,0,0-.248-3.594,1.028,1.028,0,0,0-.992-.372c-.992.124-1.859,1.116-2.851.992a3.967,3.967,0,0,1-.62-1.611v-.992a1.544,1.544,0,0,0-.5-1.363,2.96,2.96,0,0,0-1.115-.248c-.124,0-.248.124-.372.248-.5-.248-1.239-.372-1.115.372.5-.248.992.372.992.868a3.291,3.291,0,0,1-.744,2.6c-1.116,0-1.859-.868-2.851-.992-.868-.124-1.115.5-1.115,1.363a15,15,0,0,1-.124,2.355,13.471,13.471,0,0,1-.124,2.231V203.1c-.124.744,0,1.735-.124,2.479a7.623,7.623,0,0,1-.124,1.735,5.949,5.949,0,0,1,1.487,0c0,.124.124.124.124.372-.372.124-.372.372-.744.5.248.124.248.62.5.744,0,.248,0,.372.124.372.248.124.992.248,1.363.372a31.785,31.785,0,0,0,7.685-.124c.5-.124.744-.124.744-.62.248-.124.248-.5.5-.744a1.711,1.711,0,0,1-.5-.372c-.124-.124-.124,0-.248-.124,0-.124,0-.248.124-.248A4.132,4.132,0,0,1,220.394,207.435Zm-10.411-.248c-.124.124-.248.124-.372.248-.124-.248.124-.5.372-.5Zm6.321.5a5.973,5.973,0,0,1-1.487,0,.377.377,0,0,1,0-.5H216.3c.62-.124,1.363-.248,1.859-.372.124,0,.124.248.124.372a5.23,5.23,0,0,1-1.487.372C216.8,207.064,216.3,207.187,216.3,207.683Zm.5,0-.248.248a.384.384,0,0,0-.248-.124C216.3,207.311,216.8,207.187,216.8,207.683Zm-3.47-4.338c.124.124.248.248.372.248,0,.248-.124.5-.124.744C213.454,204.089,212.958,203.593,213.33,203.345Zm-.62.62a6.034,6.034,0,0,1-.124-1.487l.744.744A3.286,3.286,0,0,1,212.71,203.965Zm.992,2.851c.124-.62.124-1.363.248-1.983a9.381,9.381,0,0,1-.124,1.859c0,.248.248.248.248.5l.372-.372c0-.62-.124-1.363-.124-1.983a9.567,9.567,0,0,1,.248,1.859c.124.124.248.124.248.248.124,0,.124-.124.248-.124.124.124,0,.248.124.372h-.5c-.124,0-.124.124-.248.124H213.7c-.124-.248-.5-.124-.744-.124,0-.124,0-.248.124-.248,0-.124.124.124.248.124C213.454,206.94,213.577,206.94,213.7,206.816Zm1.983-2.851c-.248-.124-.372-.5-.62-.744l.744-.744h0C215.808,202.973,215.685,203.469,215.685,203.965Zm.5-2.231h0c.124.62.62,1.239.248,1.859-.248-.124-.372-.5-.62-.62A2.094,2.094,0,0,1,216.18,201.734Zm-.992,1.859c-.124.248-.248.62-.372.868-.124-.248-.124-.5-.248-.744.124-.124.248-.124.372-.372A.267.267,0,0,1,215.189,203.593Zm-1.239,4.462c-.124,0-.248-.124-.372-.248,0-.124.124-.124.124-.372C213.949,207.435,214.073,207.807,213.949,208.055Zm0-.62h.5c-.124.124-.124.372-.372.248C214.073,207.559,213.949,207.559,213.949,207.435Zm.62,0c.124,0,.124.248.248.372,0,.124-.248.124-.248.248C214.321,207.931,214.445,207.559,214.569,207.435Zm1.487-.62c.124,0,.248.248.248.372h-.372C215.932,207.064,216.056,206.94,216.056,206.816Zm.62.248a.644.644,0,0,1,.248-.5c.124.124.248.248.248.372C217.048,206.94,216.8,207.064,216.676,207.064Zm.62-.124c-.124-.124-.248-.372-.5-.62a1.762,1.762,0,0,0-.248.744h-.124a.94.94,0,0,1-.248-.5c-.124.124-.124.372-.248.62h-.372a1.729,1.729,0,0,1,0-1.363,1.237,1.237,0,0,1,.5.62c.124-.248.124-.5.248-.744a1.238,1.238,0,0,1,.5.62c.124-.248.248-.62.372-.868h.124l.372,1.487Zm-.5-.868c-.248-.124-.248-.372-.5-.62-.124.248-.124.5-.248.744-.248-.124-.372-.5-.62-.62a1.572,1.572,0,0,0-.124.744c-.124-.372-.248-.868-.372-1.363.124,0,.372.372.5.5.124-.372.124-.744.248-.992.248.124.248.372.372.5l.372-.744c.248.124.372.372.62.5C217.3,205.328,216.924,205.7,216.8,206.072Zm-.372-1.859c-.124.248-.124.372-.248.62-.248-.124-.248-.372-.372-.5a2.96,2.96,0,0,0-.248,1.116c-.248-.248-.62-.372-.62-.744,0-.124.124-.372.124-.5.124-.124.124-.248.248-.5.124.124.248.372.5.5a3.431,3.431,0,0,1,.124-1.115c.248.124.372.372.62.62a.455.455,0,0,0,.124-.372,2.825,2.825,0,0,1,.372,1.363C216.8,204.585,216.676,204.337,216.428,204.213Zm.248-1.859a11.94,11.94,0,0,1,0-2.107h.124c0,1.239.124,2.479.124,3.718A3.661,3.661,0,0,1,216.676,202.354Zm-2.479,1.487c-1.611-.992-2.6-2.727-2.6-5.33a4.067,4.067,0,0,0,2.6-.744l.744.372a4.139,4.139,0,0,0,1.859.372C216.8,201.114,215.808,202.849,214.2,203.841Zm-1.611-.868a1.493,1.493,0,0,1-.62.62c-.5-.5.124-1.239.124-1.859A1.437,1.437,0,0,1,212.586,202.973Zm-.992-2.727h0c.248.248.124.868.124,1.363a6.154,6.154,0,0,1-.248,2.231C211.47,202.725,211.594,201.362,211.594,200.247Zm.248,3.1c0,.124.124.248.124.372l.62-.62a3.077,3.077,0,0,1,.124,1.115c.124-.124.248-.372.5-.5.124.372.248.62.372.992-.124.372-.372.5-.62.744l-.372-1.116c-.248.124-.124.5-.372.5-.124-.248-.124-.372-.248-.62-.248.124-.372.372-.62.5,0-.124.124-.248.124-.372C211.594,203.965,211.594,203.593,211.842,203.345Zm0,.992a4.128,4.128,0,0,1,.372.744c.124-.124.124-.372.372-.5a8.543,8.543,0,0,0,.372.992l.5-.5a4.4,4.4,0,0,0-.248,1.239c-.124-.124-.124-.5-.124-.744-.248.124-.372.5-.62.62a1.762,1.762,0,0,1-.248-.744c-.248.124-.248.372-.5.62-.124-.372-.5-.744-.372-1.239C211.594,204.709,211.718,204.461,211.842,204.337Zm-.248,1.859a2.176,2.176,0,0,1,.5-.62,1.762,1.762,0,0,1,.248.744c.248-.124.372-.5.5-.62a1.736,1.736,0,0,1,0,1.363h-.372c-.124-.124-.124-.372-.248-.62-.124.124-.248.372-.372.5h-.124a1.762,1.762,0,0,1-.248-.744c-.124.124-.248.372-.372.5a.455.455,0,0,1-.372-.124,11.512,11.512,0,0,1,.5-1.611A7.7,7.7,0,0,0,211.594,206.2Zm.868.992h-.372c0-.124.124-.248.124-.372C212.338,206.816,212.338,207.064,212.462,207.187Zm-.744-.124c-.248,0-.372-.124-.5-.124,0-.248.248-.248.248-.5C211.594,206.692,211.718,206.816,211.718,207.064Zm0,.124a10.019,10.019,0,0,0,1.859.124c.124.124,0,.248,0,.5a5.972,5.972,0,0,1-1.487,0c0-.5-.372-.62-.372-.124-.5-.124-1.239-.124-1.239-.372v-.372c0-.124-.124-.124.124-.124A11.7,11.7,0,0,0,211.718,207.187Zm.248.5a.121.121,0,0,0-.124.124c-.248,0-.248-.62.124-.5Zm6.445-.744c.248,0,.372.248.372.5-.124,0-.248-.124-.372-.124Zm-.744-.124c-.248-.868-.5-1.611-.744-2.479.248.124.372.372.5.5,0-2.107-.248-4.338-.248-6.569a1.92,1.92,0,0,1-.992.248,3.578,3.578,0,0,1-2.107-.744,4.866,4.866,0,0,1-1.611.744,1.522,1.522,0,0,1-1.487-.248c-.124,2.231-.248,4.338-.248,6.569.248-.124.372-.372.62-.5-.248.868-.5,1.859-.744,2.6-.5-.124-1.115-.5-1.239.372h-.992c.124,0,.124-.248.372-.5.124-3.346.248-6.569.372-10.039a.947.947,0,0,0-.62.248c0-.5.248-.992.744-.992,1.115-.124,1.983.992,3.1.992,0,.124-.124.124-.248.248.248,0,.62,0,.744-.124,0,.124-.124.248-.248.372a1.108,1.108,0,0,0,.992-.5l.372.372.372-.372a1.571,1.571,0,0,0,1.115.5c0-.124-.248-.248-.248-.372a1.842,1.842,0,0,0,.744.124c0-.124-.248-.124-.248-.248,1.239,0,1.859-1.115,3.1-.992.5,0,.744.372.744.992-.248-.124-.372-.248-.62-.248.124,2.727.248,6.073.372,8.8,0,.372-.124.868,0,1.115s.5.372.62.62h-1.239C218.907,206.816,218.287,206.692,217.668,206.816Z" transform="translate(-208 -192.81)"/><g transform="translate(0.62 0)"><path class="i" d="M233.206,225.554a3.578,3.578,0,0,1-2.107-.744,4.865,4.865,0,0,1-1.611.744,1.522,1.522,0,0,1-1.487-.248v.5l.62.5v-.62a4.067,4.067,0,0,0,2.6-.744l.744.372a4.139,4.139,0,0,0,1.859.372,6.574,6.574,0,0,1-1.239,3.966h.124l.124-.124h0v.248h0a1.407,1.407,0,0,1,.372-.992h.124c0,.5.372,1.115.248,1.611h0v0l.124.124a3.077,3.077,0,0,1-.124-1.115,11.941,11.941,0,0,1,0-2.107h.124c0,1.115.124,2.355.124,3.47l.62.5c0-1.983-.124-3.966-.248-5.949A1.92,1.92,0,0,1,233.206,225.554Z" transform="translate(-225.521 -219.852)"/><path class="i" d="M223.527,202.23A13.471,13.471,0,0,0,223.4,200a32.741,32.741,0,0,0-.248-3.594,1.028,1.028,0,0,0-.992-.372c-.992.124-1.859,1.115-2.851.992a3.967,3.967,0,0,1-.62-1.611v-.992a1.544,1.544,0,0,0-.5-1.363,2.96,2.96,0,0,0-1.115-.248c-.124,0-.248.124-.372.248-.5-.248-1.239-.372-1.115.372.5-.248.992.372.992.868a3.291,3.291,0,0,1-.744,2.6c-1.116,0-1.859-.868-2.851-.992-.62,0-.868.248-.992.62h0a.837.837,0,0,1,.744-.5c1.115-.124,1.983.992,3.1.992,0,.124-.124.124-.248.248.248,0,.62,0,.744-.124,0,.124-.124.248-.248.372a1.108,1.108,0,0,0,.992-.5l.372.372.372-.372a1.571,1.571,0,0,0,1.115.5c0-.124-.248-.248-.248-.372a1.842,1.842,0,0,0,.744.124c0-.124-.248-.124-.248-.248,1.239,0,1.859-1.115,3.1-.992.5,0,.744.372.744.992-.248-.124-.372-.248-.62-.248.124,2.727.248,6.073.372,8.8v.372l.744.62A25.353,25.353,0,0,0,223.527,202.23Z" transform="translate(-212 -192.81)"/><path class="i" d="M213.972,218.782v-.372a.455.455,0,0,0-.372.124Z" transform="translate(-213.352 -214.444)"/></g><path class="h" d="M214.772,219.21c-.124,3.223-.248,6.445-.372,9.544.248-.124.5-.5.744-.62.124-2.975.248-5.454.372-8.3A3.286,3.286,0,0,0,214.772,219.21Z" transform="translate(-213.408 -215.12)"/><path class="i" d="M216.8,219.582l.744.62v-.372a3.286,3.286,0,0,0-.744-.62Z" transform="translate(-215.437 -215.12)"/><path class="h" d="M275.144,219.21c-.124.248-.62.372-.744.62v1.115c.248,2.231.124,4.71.248,7.065l.372.372c.124.124.248.372.372.248C275.392,225.655,275.268,222.061,275.144,219.21Z" transform="translate(-264.113 -215.12)"/><path class="i" d="M275.144,219.21c-.124.248-.62.372-.744.62v1.115c.124,1.983.124,4.214.248,6.445l.744.62C275.392,225.159,275.268,221.937,275.144,219.21Z" transform="translate(-264.113 -215.12)"/><path class="h" d="M220.8,231.942c.124-.248.5-.372.62-.62s0-.62,0-.992c.124-1.859.248-4.09.248-5.825-.248-.124-.372-.372-.62-.5C221.048,226.613,220.924,229.34,220.8,231.942Z" transform="translate(-218.817 -219.176)"/><path class="i" d="M222.4,224.382l.62.5v-.372c-.248-.124-.372-.372-.62-.5C222.524,224.134,222.4,224.258,222.4,224.382Z" transform="translate(-220.169 -219.176)"/><path class="h" d="M269.6,225.182c.124,2.231.124,4.586.248,6.817l.5.5.124.124c-.124-2.6-.248-5.454-.372-7.808C269.972,224.934,269.724,225.058,269.6,225.182Z" transform="translate(-260.056 -219.852)"/><path class="i" d="M270.1,224.01c-.124.124-.372.248-.5.5.124,2.107.124,4.214.248,6.321l.62.5C270.344,228.844,270.22,226.241,270.1,224.01Z" transform="translate(-260.056 -219.176)"/><path class="h" d="M232,226.354a5.908,5.908,0,0,0,2.479,4.958,5.539,5.539,0,0,0,2.355-4.958,3.355,3.355,0,0,1-2.355-.744A3.7,3.7,0,0,1,232,226.354Z" transform="translate(-228.282 -220.528)"/><path class="i" d="M232,226.354c0,.248.124.372.124.62l3.594,3.1a6.023,6.023,0,0,0,1.115-3.718,3.355,3.355,0,0,1-2.355-.744A3.7,3.7,0,0,1,232,226.354Z" transform="translate(-228.282 -220.528)"/><g transform="translate(2.231 14.172)"><path class="h" d="M222.4,284.366c.124,0,.248.124.372.124,0-.248-.248-.248-.372-.124Z" transform="translate(-222.4 -284.285)"/><path class="h" d="M271.2,284.49c.124,0,.248-.124.372-.124C271.572,284.242,271.2,284.242,271.2,284.49Z" transform="translate(-263.639 -284.285)"/><path class="h" d="M226.9,285.734c-.124-.124-.248-.124-.5-.124A.745.745,0,0,0,226.9,285.734Z" transform="translate(-225.78 -285.405)"/><path class="h" d="M266.4,285.734c.124,0,.5,0,.5-.124A1.282,1.282,0,0,0,266.4,285.734Z" transform="translate(-259.583 -285.405)"/><path class="h" d="M257.6,287h.5C258.1,286.748,257.724,286.748,257.6,287Z" transform="translate(-252.146 -286.419)"/><path class="h" d="M235.7,287.041c-.124,0-.5-.124-.5.124C235.324,287.041,235.7,287.165,235.7,287.041Z" transform="translate(-233.217 -286.588)"/><path class="h" d="M240.5,287.21c-.124,0-.5,0-.5.124A.745.745,0,0,0,240.5,287.21Z" transform="translate(-237.273 -286.757)"/><path class="h" d="M252.8,287.566a.937.937,0,0,1,.5.124C253.3,287.442,252.924,287.442,252.8,287.566Z" transform="translate(-248.09 -286.989)"/></g><g transform="translate(1.983 14.873)"><path class="c" d="M265.118,289.554c-.372,0-.248-.62-.5-.744a.455.455,0,0,0-.372.124c.372-.248.5.372.5.744-.124,0-.124-.124-.248-.124-.248,0-.248.248-.5.248,0-.124-.124-.124-.372-.124-.124-.124,0-.372-.124-.372,0,.124.124.248.124.372-.124.124-.124.124-.124.248h-.248c0-.124,0-.248-.124-.248,0,.124-.248.124-.124.248a.384.384,0,0,1,.248.124c0,.124-.124.124-.124.248.124,0,.124-.124.248-.248.248,0,.5-.124.62,0,.124,0,.124-.248.248-.248.248.248.5-.124.62-.124h.372v-.124C265.118,289.43,265.242,289.554,265.118,289.554Zm-2.107.372c0-.124,0-.124.124-.124v.124S263.135,290.049,263.011,289.925Zm.62,0v-.248c.124,0,.124.124,0,.248ZM264,289.8h-.124C263.63,289.678,264,289.554,264,289.8Zm-.124.124A.121.121,0,0,1,264,289.8C264,289.925,263.878,290.049,263.878,289.925Zm.372-.124c0-.248.248-.248.372-.124C264.622,289.8,264.374,289.8,264.25,289.8Z" transform="translate(-256.442 -288.81)"/><path class="c" d="M221.848,289.734h0c-.124-.124-.124-.124-.248-.124v.124Z" transform="translate(-221.476 -289.486)"/><path class="c" d="M221.048,291.21H220.8c.124.124.124.124.248,0Z" transform="translate(-220.8 -290.838)"/><path class="c" d="M253.724,292.934v-.124H253.6a.121.121,0,0,0,.124.124Z" transform="translate(-248.518 -292.19)"/><path class="c" d="M229.915,293.678c-.124-.124-.124-.248-.248-.372.248-.124.124-.5,0-.5s-.124.124-.248.124c0,.124.124.124.124.248-.124,0-.372.124-.5,0,0-.124,0-.248-.124-.248,0,.124.124.372-.124.5.124,0,.124-.124.248-.124.124.124.372,0,.5,0,.248.124.248.5.372.372.248,0,.248-.62.124-.868C230.039,293.058,230.287,293.678,229.915,293.678Zm-.5-.5c0-.372.5,0,.124.124Z" transform="translate(-227.561 -292.19)"/><path class="c" d="M238.9,293.554c0-.248.124-.62,0-.744C238.9,292.934,238.776,293.306,238.9,293.554Z" transform="translate(-236.049 -292.19)"/><path class="c" d="M255.02,292.382c-.124.124.124.124,0,.248,0,.124-.124.124-.248.124-.248-.124,0-.62-.124-.744,0,.124.124.372,0,.62-.124,0-.248,0-.248.124h.744S255.268,292.382,255.02,292.382Z" transform="translate(-249.194 -291.514)"/><path class="c" d="M254.059,294.11c0-.124-.124,0-.124,0C253.687,294.11,254.059,294.233,254.059,294.11Z" transform="translate(-248.73 -293.242)"/><path class="c" d="M260.611,294.41c-.124.124.124.248.124.372s-.124.124-.124.248C260.735,295.03,260.859,294.534,260.611,294.41Zm.124.372a.121.121,0,0,1-.124-.124C260.611,294.534,260.735,294.658,260.735,294.782Z" transform="translate(-254.413 -293.542)"/><path class="c" d="M275.2,294.91c.124,0,.248.124.248,0C275.324,294.91,275.2,294.786,275.2,294.91Z" transform="translate(-266.772 -293.918)"/><path class="c" d="M241.611,295.582h-.124c0-.124,0-.248-.124-.248a1.088,1.088,0,0,1-.868-.124c0,.124.124.248-.124.372-.124,0-.124-.248-.248-.248-.124.124.124.248.124.248,0,.124-.124.248-.248.372.124,0,.248-.248.372-.372h.744c0,.124.124.124.248.248.124,0,.124-.248.124-.248.248,0,.372,0,.5-.124C241.983,295.21,241.611,295.334,241.611,295.582Zm-.372.248c-.124,0-.124-.124-.124-.248h-.5c0-.5.5,0,.744-.248C241.487,295.582,241.363,295.706,241.239,295.83Zm.5-.248c-.124-.124.124-.248.124-.124S241.859,295.582,241.735,295.582Z" transform="translate(-237.025 -294.218)"/><path class="c" d="M221.724,296.633v-.124s0-.124-.124,0C221.6,296.386,221.6,296.51,221.724,296.633Z" transform="translate(-221.476 -295.27)"/><path class="c" d="M223.2,296.654c.124.124.248,0,.248-.124C223.324,296.406,223.2,296.53,223.2,296.654Z" transform="translate(-222.828 -295.291)"/><path class="c" d="M225.411,296.829h.124C225.535,296.581,225.287,296.705,225.411,296.829Z" transform="translate(-224.667 -295.466)"/><path class="c" d="M255.493,298.41c-.124,0-.124.248,0,.248Z" transform="translate(-250.039 -296.923)"/><path class="c" d="M256.8,298.631a.121.121,0,0,0,.124.124C257.172,298.631,256.8,298.384,256.8,298.631Z" transform="translate(-251.223 -297.02)"/><path class="c" d="M222.592,290.23c.248.372-.248.5-.372.248,0-.124.124-.124.124-.248-.124,0-.124.248-.124.248-.5,0-.124-.62-.124-.868h-.124a.682.682,0,0,1-.372.62c0,.248.248.248.5.372a.745.745,0,0,0,.5.124C222.592,290.478,222.839,290.23,222.592,290.23Z" transform="translate(-221.476 -289.486)"/></g></g></g></svg>