<svg xmlns="http://www.w3.org/2000/svg" xmlns:xlink="http://www.w3.org/1999/xlink" width="498.645" height="335.563" viewBox="0 0 498.645 335.563"><defs><style>.a{fill:#98c4f9;}.ab,.b,.h,.k{opacity:0.25;}.c{fill:#ff6643;}.d{fill:#092533;}.e{fill:url(#a);}.f{fill:url(#b);}.g{fill:#4d5aff;}.h,.i{fill:#52ade1;}.j{fill:url(#c);}.ab,.k{fill:none;stroke-miterlimit:10;stroke-width:0.46px;}.k{stroke:#fff;}.l{fill:#6c5be8;}.m{fill:#d2498b;}.n{fill:#ff9280;}.o{fill:#350909;}.p{fill:url(#d);}.q{fill:url(#e);}.r{fill:#12006d;}.s{fill:url(#f);}.t{fill:url(#g);}.u{fill:url(#h);}.v{fill:url(#i);}.w{fill:url(#j);}.x{fill:url(#k);}.y{fill:#c64200;}.z{fill:url(#l);}.aa{fill:url(#m);}.ab{stroke:#000;}</style><linearGradient id="a" x1="0.455" y1="0.975" x2="0.548" y2="-0.107" gradientUnits="objectBoundingBox"><stop offset="0" stop-color="#ffc5ae"/><stop offset="1" stop-color="#ea8b6a"/></linearGradient><linearGradient id="b" x1="1.58" y1="0.413" x2="-0.116" y2="0.541" xlink:href="#a"/><linearGradient id="c" x1="0.371" y1="1.049" x2="0.702" y2="-0.59" xlink:href="#a"/><linearGradient id="d" x1="0.482" y1="0.892" x2="0.533" y2="-0.461" xlink:href="#a"/><linearGradient id="e" x1="0.531" y1="1.067" x2="0.464" y2="-0.347" xlink:href="#a"/><linearGradient id="f" x1="0.046" y1="1.044" x2="0.878" y2="-0.385" xlink:href="#a"/><linearGradient id="g" x1="0.373" y1="0.108" x2="0.795" y2="1.415" xlink:href="#a"/><linearGradient id="h" x1="0.228" y1="0.036" x2="0.999" y2="0.869" xlink:href="#a"/><linearGradient id="i" x1="-0.531" y1="0.201" x2="1.14" y2="0.617" xlink:href="#a"/><linearGradient id="j" x1="0.074" y1="-0.037" x2="0.862" y2="0.848" xlink:href="#a"/><linearGradient id="k" x1="1.392" y1="-0.23" x2="-0.314" y2="1.025" xlink:href="#a"/><linearGradient id="l" x1="0.576" y1="1.11" x2="0.388" y2="-0.904" xlink:href="#a"/><linearGradient id="m" x1="0.423" y1="0.681" x2="0.616" y2="0.013" xlink:href="#a"/></defs><g transform="translate(-266.157 -217.775)"><g transform="translate(266.157 217.775)"><g transform="translate(344.355 77.446)"><path class="a" d="M580.749,331.794l-11.392-33.431-19.04,6.483L511.445,190.78l-43.336,14.763.136.384L454.263,266.27,434.38,352.111l11.6,25.622L486.9,363.788l14.9-5.082,16.586-5.652,13.536,39.741,43.336-14.763L561.722,338.29Zm-78.8-10.462-9.83,3.347L473.29,331.1l12.854-63.8,1.2-5.293,19.635,57.616Z" transform="translate(-434.38 -190.768)"/><path class="b" d="M557.866,338.28l13.549,39.741L543.81,366.207,499.693,207.244,483.5,262,476,293.01,450.42,266.273l13.97-60.343-.124-.384L507.6,190.77l38.873,114.066,19.028-6.483,11.4,33.444Z" transform="translate(-430.537 -190.77)"/></g><g transform="translate(0 110.454)"><g transform="translate(0 25.227)"><path class="c" d="M171.616,259.517a7.709,7.709,0,0,1-2.293-.211c-.421-.173-1.686-.707-12.743-20.441l1.983-1.116c4.128,7.375,10.388,18.1,11.726,19.474,1.2.2,7.822-.273,13.685-.855l.223,2.268C180.5,259.009,174.851,259.517,171.616,259.517Z" transform="translate(-156.58 -237.75)"/></g><path class="d" d="M210.4,264.953v.657s-.607,12.532-9.979,11.987h-.074c-5.8-.372-12.978-3.087-17.8-5.095-3.025-1.264-5.119-2.256-5.355-2.219-.607.1,7.1,32.192,7,34.026a3.749,3.749,0,0,1-.149.781c-.545,1.735-2.454,3.818-3.607,3.991-.124.012-.359-.211-.707-.632-3.483-4.339-17.292-29.527-17.676-37.745-.409-9.036,4.165-14.478,10.363-15.52,4.574-.769,17.937,1.078,24.63,2.095,2.38.36,3.9.62,3.9.62Z" transform="translate(-155.274 -208.39)"/><g transform="translate(18.923 48.878)"><path class="b" d="M181.842,301.864a3.752,3.752,0,0,1-.149.781c-.545,1.735-2.454,3.818-3.607,3.991-.124.012-.359-.211-.707-.632,4.909-6.942-7.921-40.7-5.132-40.794,1.376-.05,4.425,2.293,7.958,4.859-3.025-1.264-5.119-2.256-5.355-2.219C174.231,267.937,181.953,300.03,181.842,301.864Z" transform="translate(-171.846 -254.823)"/><path class="b" d="M203.628,264.515v.657s-.607,12.532-9.979,11.987c1.847-1.475,2.194-4.078,2.058-7.214-.161-3.644-3.533-9.879-5.417-13.115,2.38.359,3.9.62,3.9.62Z" transform="translate(-167.427 -256.83)"/></g><path class="d" d="M188.884,232.821a2.717,2.717,0,0,0-.521,1.215.275.275,0,0,1-.037-.062c-.112-.2-.5-.868-1-1.661-.855-1.326-2.033-2.963-2.752-3.161-1.14-.31-4.19,3.545-8.318,3.843a6.158,6.158,0,0,1-.831.012c-4.537-.211-9.346-6.644-5.479-14.218a4.994,4.994,0,0,0,4.128,2.839,2.4,2.4,0,0,1-1.76-2.442c4.946.88,7.512-2.839,11.776-1.488s3.991,3.929,3.991,3.929,3.248-1.289,4.264,2.777C193.173,227.664,190.136,230.874,188.884,232.821Z" transform="translate(-153.717 -217.399)"/><path class="e" d="M186.833,231.7a8.57,8.57,0,0,1-1.587,3.049,4.517,4.517,0,0,1-3.458,1.884c-2.888-.074-5.752-3.942-7.028-5.9,4.115-.31,7.165-4.165,8.318-3.843.707.2,1.9,1.847,2.752,3.161C186.338,230.836,186.734,231.5,186.833,231.7Z" transform="translate(-152.225 -215.129)"/><path class="f" d="M188.972,231.387s-2.169,4.946-2.975,3.867a5.256,5.256,0,0,0-2.777-1.2A8.57,8.57,0,0,0,184.807,231a.641.641,0,0,1,.037.062,2.718,2.718,0,0,1,.521-1.215A9.883,9.883,0,0,0,188.972,231.387Z" transform="translate(-150.198 -214.416)"/><path class="g" d="M203.6,273.009c-3.458-.508-12.792-10.66-12.792-15.036a14.064,14.064,0,0,0-.186-2.045c-.719-4.549-3.347-11.218-4.438-15.929-1.277-5.479.558-7.537.558-7.537,4.252-7.313,13.871,7.177,19.362,18.8h0c1.847,3.917,3.062,7.549,3.186,9.979C209.69,269.488,207.062,273.517,203.6,273.009Z" transform="translate(-149.595 -214.264)"/><path class="h" d="M202.663,271.9c-3.458-.508-12.792-10.66-12.792-15.036a14.063,14.063,0,0,0-.186-2.045l-.025-1.946,3.384-17.738s4.673,5.553,5.417,15.507,11.7,12.111,6.706-.483c1.847,3.917,3.062,7.549,3.186,9.979C208.749,268.375,206.122,272.4,202.663,271.9Z" transform="translate(-148.655 -213.151)"/><path class="i" d="M196.275,250.555a1.142,1.142,0,0,1-.459.2,27.562,27.562,0,0,1-8.206,0,3.157,3.157,0,0,1-.669-.2c-1.277-.607,0-2.107-.409-4.735s-1.413-10.363,2.5-12.73c4.1-2.479,7.1,6.9,7.239,11.578S197.155,249.8,196.275,250.555Z" transform="translate(-149.506 -213.738)"/><path class="j" d="M199.156,247.265s-.186,11.417-2.368,16.8v.012c-.682,1.673-1.549,2.764-2.678,2.739-4.723-.1-15.334-11.317-16.3-11.739s-5.789.31-5.64-.409,2.033-2.281,4.066-3.049,1.673-.31,14.726,5.69c-.174-1.153-.1-6.136-.05-8.95,0-.421.012-.806.025-1.116A26.874,26.874,0,0,0,199.156,247.265Z" transform="translate(-152.846 -210.25)"/><path class="g" d="M185.494,302.349c.335,2.033-13.338,15.941-12.619,12.3s4.971-15.234,4.971-15.234c1.14-.174,3.049-2.256,3.607-3.991C182.569,297.341,185.221,300.651,185.494,302.349Z" transform="translate(-152.683 -198.707)"/><path class="k" d="M198.256,267.056s-21.941-4.115-26.267-2.132,7.933,36.654,7.933,36.654" transform="translate(-153.111 -206.142)"/><path class="b" d="M193.166,264.059c.421-2.293.731-8.95-.421-11.59-.781-1.773-3.657-3.31-5.454-4.1,0-.421.012-.806.025-1.116a27.155,27.155,0,0,0,8.206,0C195.533,247.262,195.335,258.679,193.166,264.059Z" transform="translate(-149.223 -210.247)"/></g><g transform="translate(353.286 36.439)"><path class="l" d="M486.774,200.37a64.02,64.02,0,0,1-2.343,6.855c-1.636,4.227-4.115,9.979-7.772,18-.087,4.078-1.388,30.072-1.748,36.047-.05.731-.074,1.165-.087,1.215-.05.26-.992.768-2.02,1.016-.967.248-2.008.285-2.454-.31-.917-1.215-7.115-25.8-7.413-31.584s-.607-4.462,6.5-27.519c-1.723.806-12.916.508-12.916.508s2.058,28.238,2.058,28.436a.524.524,0,0,1-.062.2,5.286,5.286,0,0,1-.992,1.686.665.665,0,0,1-.6.26,3.113,3.113,0,0,1-.756-.669A75.526,75.526,0,0,1,444.938,217.4c-3.756-8.429-4.673-14.317-1.116-20.205s21.569-6.347,21.569-6.347c1.14.322,3.756.632,6.359,1.252a21.314,21.314,0,0,1,2.244.632c3.942,1.314,11.466,2.975,13.078,2.045C487.455,196.019,487.53,197.494,486.774,200.37Z" transform="translate(-441.585 -149.744)"/><path class="m" d="M498.408,185.869c-.707.409-8.987.1-14.578-2.033.025.992.149,2.541.3,4.3.223,2.777.483,6.074.421,8.479-.037,1.711-.235,2.975-.707,3.273a.043.043,0,0,1-.025.012c-.855.5-3.384.26-6.148-.273-1.785-.347-3.682-.806-5.293-1.264-.583-.174-1.14-.347-1.636-.508-3.173-1.066-7.128-1.463-8.6-1.872-.372-.1-.583-.2-.6-.31-.05-.558,1.376-1.822,2.045-3.149.074-.161.186-.409.31-.719a54.7,54.7,0,0,0,1.8-5.677c.248-.992.335-1.636.124-1.525-.657.359-4.574,7.661-5.02,7.661a8.663,8.663,0,0,1-1.884-1.078c-1.574-1.066-3.545-2.628-3.595-3.384a.3.3,0,0,1,.087-.26c.917-.868,7.921-12.644,10.462-15.16a10.36,10.36,0,0,1,3.743-2.318,9.881,9.881,0,0,1,2.256-.583,16.339,16.339,0,0,1,4.512.521c5.033,1.264,9.656,4.438,12.3,6.012,3.4,2.033,5.739,1.475,6.595,1.983S499.115,185.447,498.408,185.869Z" transform="translate(-438.295 -154.866)"/><path class="n" d="M482.884,193.387c-4.686.062-15.1-.359-20.664-4.81a54.711,54.711,0,0,0,1.8-5.677s11,3.334,18.445,2.008C482.7,187.685,482.946,190.982,482.884,193.387Z" transform="translate(-436.642 -151.649)"/><path class="b" d="M473.606,170c-.186,1.946-.868,4.041-2.987,3.88a4,4,0,0,1-3.768-3.818,9.88,9.88,0,0,1,2.256-.583A15.51,15.51,0,0,1,473.606,170Z" transform="translate(-435.532 -154.866)"/><path class="o" d="M473.4,168.574a8.342,8.342,0,0,0-1.525-3.149c-.831,1.339-4.016,2.033-6.471,2.206a9.63,9.63,0,0,1-2.677-.074,7.544,7.544,0,0,1,6.656-9.855c2.987-.211,5.69,2.021,4.872,5.429C476.955,165.785,473.4,168.574,473.4,168.574Z" transform="translate(-436.6 -157.689)"/><path class="p" d="M472.815,167.076a11.146,11.146,0,0,1-.806,1.959h0c-.669,1.215-1.8,2.293-3.756,1.5-.074-.025-.136-.062-.2-.087a5.775,5.775,0,0,1-2.938-3.347,7.979,7.979,0,0,1-.3-.954c2.454-.174,5.64-.868,6.471-2.206.05.05.087.1.136.149A8.692,8.692,0,0,1,472.815,167.076Z" transform="translate(-436.019 -156.191)"/><path class="q" d="M471.942,171.273c-.3,1.884-3.4,1.773-3.744.558-.174-.632-.372-1.24-.533-1.686-.136-.421-.236-.682-.236-.682h0a1.373,1.373,0,0,0,.2.087c1.959.793,3.087-.285,3.756-1.5h0c-.211.421.347.954.545,1.946A3.629,3.629,0,0,1,471.942,171.273Z" transform="translate(-435.393 -155.207)"/><path class="r" d="M460.435,232.066c-.3,2.33-12.383,11.478-12.185,9.855s6.359-15.606,6.359-15.606a2.834,2.834,0,0,0,.756.669c.607.174,1.388-1.376,1.574-1.934C458.564,227.083,460.708,229.971,460.435,232.066Z" transform="translate(-439.989 -141.551)"/><path class="r" d="M465.044,268.629c-2.839-6.1,0-19.028,0-19.028.917,1.215,4.363-.211,4.463-.707.012-.062.037-.5.087-1.215,0,0,.459,6.2.992,11.441C471.142,264.352,467.895,274.715,465.044,268.629Z" transform="translate(-436.267 -136.129)"/><path class="b" d="M467.159,202.521c-1.723.806-12.916.508-12.916.508s2.058,28.238,2.058,28.436a.524.524,0,0,1-.062.2,5.284,5.284,0,0,1-.992,1.686c-2.058-9.656-6.173-28.176-2.9-31.361,4.2-4.066,15.569-5.144,15.743-4.252S467.159,202.521,467.159,202.521Z" transform="translate(-439.3 -148.164)"/><path class="s" d="M458.743,192.342a1.4,1.4,0,0,0-.2.818c.248.942-1.054,12.792-.583,14.007a22.922,22.922,0,0,1,.471,7.512c-.273,2.442-5.355,3.929-5.355,1.835s.607-7.041.818-8.937-1.7-15.606-1.19-17.5a21.793,21.793,0,0,1,2.442-4.636c.446-.707.781-1.178.781-1.178.074,1.19,5.057,4.462,5.479,4.462A23.039,23.039,0,0,0,458.743,192.342Z" transform="translate(-438.941 -151.323)"/><path class="b" d="M480.939,200.128a10.486,10.486,0,0,1-6.508-2.9c-2.045-2.045-5.442-3.929-8.491-5.367a21.308,21.308,0,0,1,2.244.632c3.942,1.314,11.466,2.975,13.078,2.045C481.621,195.777,481.695,197.252,480.939,200.128Z" transform="translate(-435.75 -149.502)"/><path class="b" d="M478.4,204.06c-1.636,4.227-4.115,9.979-7.772,18-.087,4.078-1.388,30.072-1.748,36.047-.05.731-.074,1.165-.087,1.215-.05.26-.992.769-2.02,1.016.236-8.764-.074-27.841,1.413-33.518C469.956,220.038,477.9,204.99,478.4,204.06Z" transform="translate(-435.552 -146.579)"/><path class="b" d="M471.672,196.837c-.583-.174-1.14-.347-1.636-.508-3.173-1.066-7.128-1.463-8.6-1.872-.372-.1-.583-.2-.6-.31-.05-.558,1.376-1.822,2.045-3.149s2.888-8.28,2.231-7.921-4.574,7.661-5.02,7.661a8.666,8.666,0,0,1-1.884-1.078c.1-.161.211-.335.322-.508,2.43-3.595,6.433-8.057,7.1-11.912.545-2.839,1.351-1.215,1.215,2.442C466.726,182.954,466.552,193.007,471.672,196.837Z" transform="translate(-437.602 -153.351)"/><path class="b" d="M479.513,197.479a.043.043,0,0,1-.025.012c-.855.5-3.384.26-6.148-.273,4.958-4.958,2.256-18.408,3.025-17.714a20.348,20.348,0,0,0,3.149,1.921C479.612,185.1,481.087,196.512,479.513,197.479Z" transform="translate(-433.977 -152.468)"/><path class="b" d="M460.932,188.712a22.664,22.664,0,0,0-2.677,3.62,7.955,7.955,0,0,0-.074-.831c-.149-1.45-2.417-4.611-3.52-6.074.446-.707.781-1.178.781-1.178C455.528,185.452,460.523,188.712,460.932,188.712Z" transform="translate(-438.453 -151.325)"/><path class="b" d="M471.427,164.079c-1.215,2.69-4.81,3.012-6.309,3.012a7.98,7.98,0,0,1-.3-.954c2.454-.174,5.64-.868,6.471-2.206A1.486,1.486,0,0,1,471.427,164.079Z" transform="translate(-436.019 -156.194)"/><path class="b" d="M471.93,170a2.1,2.1,0,0,1-.855.384,5.271,5.271,0,0,1-3.409-.236c-.136-.421-.236-.682-.236-.682h0a1.37,1.37,0,0,0,.2.087c1.959.793,3.087-.285,3.756-1.5h0C471.186,168.471,471.744,169,471.93,170Z" transform="translate(-435.393 -155.207)"/><path class="t" d="M495.339,183.544c-.012.074-.025.136-.037.2-.669,3.062-3.124,3.384-3.582,3.186s-1.686-1.6-2.752-6.545c-.025-.1-.037-.2-.062-.3,0,0-2.306-5.9-3.384-8.739-2.677-1.587-3.186-.942-3.558-2.764s.818-4.19,1.487-4.537,3.719,2.5,4.128,3.558S495.946,180.3,495.339,183.544Z" transform="translate(-431.928 -156.173)"/><path class="b" d="M493.934,180.579c-.669,3.062-3.124,3.384-3.582,3.186s-1.686-1.6-2.752-6.545a10.585,10.585,0,0,0,2.863,3.892A2.486,2.486,0,0,0,493.934,180.579Z" transform="translate(-430.561 -153.01)"/></g><g transform="translate(189.976 124.076)"><path class="m" d="M446.789,328.313l-6.533-33.357q-7.251-37-27.952-54t-51.17-11.02q-30.456,5.969-43.187,29.366t-5.467,60.541l6.557,33.481q7.214,36.871,27.928,53.86a53.913,53.913,0,0,0,19.251,10.251q14.373,4.221,32.043.756a76.651,76.651,0,0,0,16.709-5.169,54.454,54.454,0,0,0,26.366-24.172Q454.053,365.444,446.789,328.313Zm-40.77,44.773q-3.347,10.264-14.168,12.383-11.212,2.194-18.222-6.3-4.779-5.783-8.181-17.181v-.012a.046.046,0,0,0-.012-.037q-1.58-5.281-2.839-11.776l-9.173-46.831q-3.217-18.445-.025-28.486t14.156-12.173q8.349-1.636,14.4,2.814h0a20.667,20.667,0,0,1,3.855,3.743q7.065,8.739,10.933,28.51l8.875,45.307Q409.378,362.816,406.019,373.086Z" transform="translate(-309.839 -228.388)"/></g><g transform="translate(243.857)"><path class="r" d="M413.66,149.213s-4.314-11.838-3.967-12.743,5.095-2.64,5.442-2.132,3.347,9.693,2.839,10.363C417.478,145.345,413.66,149.213,413.66,149.213Z" transform="translate(-339.802 -126.866)"/><path class="u" d="M354.97,134.7a7.709,7.709,0,0,1,3.806,3.942c1.165,2.839.719-7.413.719-7.413l-1.264-1.165Z" transform="translate(-352.907 -127.869)"/><path class="v" d="M353.89,135.014a37.8,37.8,0,0,0,3.855,2.616c.558.149,1.636-6.3,1.153-7.313s-2.281-2.033-3.446-1.376S353.345,134.618,353.89,135.014Z" transform="translate(-353.204 -128.187)"/><path class="w" d="M362.346,135.851s-2.628-6.1-3.781-7.165-3.285.31-3.434.868,2.554.967,3.434,1.884-1.5,7.673.781,10.053S362.346,135.851,362.346,135.851Z" transform="translate(-352.87 -128.292)"/><path class="x" d="M410.272,149.11a14.331,14.331,0,0,0,2.839-1.934c.508-.657-.409-3.148,1.066-5.429s4.624-1.624,5.38,1.116-1.215,6.2-2.132,7.264-7.165,5.541-7.165,5.541" transform="translate(-339.661 -125.4)"/><path class="i" d="M424.49,156.015a5.5,5.5,0,0,1-1.289,2.045c-2.963,3.471-11.131,10.251-25.845,18-.285,1.19-.521,2.392-.694,3.607a59.87,59.87,0,0,0-.359,11.255c.05.9.1,1.773.161,2.615.273,3.694.632,6.743.533,8.5a2.367,2.367,0,0,1-.446,1.537,8.769,8.769,0,0,1-1.041.781c-7.351,4.723-20.738-2.33-22.895-4.45a.975.975,0,0,1-.3-.4c-.372-1.426,1.078-2.95,1.9-5.38a16.952,16.952,0,0,0,.409-2.616c.384-3.756.719-10.474.843-15.532a48.214,48.214,0,0,0-.1-6.446v-.025c-.409-1.661-12.73-20.279-16.424-26.886A7.824,7.824,0,0,1,357.9,140.4c.136-1.488,2.975-6.768,3.595-6.706a5.724,5.724,0,0,1,1.054,1.277c2.851,3.967,10.536,15.953,11.95,17.478,1.326,1.426,8.057,8.516,10.933,11.553.818.843,1.326,1.388,1.326,1.388a33.578,33.578,0,0,0,4.7-.421c13.859-2.132,27.469-11.838,31.027-14.528l.9-.694S424.8,154.106,424.49,156.015Z" transform="translate(-352.206 -126.999)"/><path class="y" d="M384.613,165.652c-4.723.769-4.735-5.38-4.487-7.512.818.843,1.326,1.388,1.326,1.388a33.579,33.579,0,0,0,4.7-.421C386.733,161.536,386.262,165.392,384.613,165.652Z" transform="translate(-346.9 -121.142)"/><path class="r" d="M389.95,155.625a4.577,4.577,0,0,1-3.644.347,13.561,13.561,0,0,1-4.153-2.033,7.535,7.535,0,0,0-1.364,4.314c-3.347-2.9-4.165-5.789-1.326-6.855-1.165-5.082,1.326-6.148,5.479-6.4s5.132,4.016,7.623,3.9C392.727,151.188,392.082,154.373,389.95,155.625Z" transform="translate(-347.453 -124.292)"/><path class="z" d="M389.36,153.9c-.05.409-.112.88-.211,1.388-.558,2.975-2.021,7.115-4.215,6.88a.982.982,0,0,1-.359-.074c-1.983-.62-3.173-2.541-3.793-3.954a10.7,10.7,0,0,1-.583-1.624,9.411,9.411,0,0,1,.372-2.268,6.55,6.55,0,0,1,.992-2.058,13.428,13.428,0,0,0,4.153,2.033A4.478,4.478,0,0,0,389.36,153.9Z" transform="translate(-346.863 -122.567)"/><path class="aa" d="M384.828,162.776c-.025,1.078-.174,1.921-.892,1.971-1.45.1-3.384-1.8-3.285-3.855.037-.707.05-1.45.05-2.132s-.012-1.314-.025-1.76c.62,1.413,1.81,3.334,3.793,3.954a2.065,2.065,0,0,0,.359.074C384.828,161.624,384.84,162.231,384.828,162.776Z" transform="translate(-346.756 -121.415)"/><path class="y" d="M412.008,152.91a5.5,5.5,0,0,1-1.289,2.045,56.248,56.248,0,0,0-.719-7.611l.9-.694S412.318,151,412.008,152.91Z" transform="translate(-339.723 -123.894)"/><path class="y" d="M362.536,134.967c-2.169,1.847-3.223,5.888-3.595,7.661A7.826,7.826,0,0,1,357.9,140.4c.136-1.487,2.975-6.768,3.595-6.706A6.247,6.247,0,0,1,362.536,134.967Z" transform="translate(-352.206 -126.999)"/><path class="m" d="M393.241,185.362c-4.847.707-13.958,1.326-21.841-2.021.384-3.756.719-10.474.843-15.532,3.9,1.649,12.334,4.6,21.184,3.669A64.719,64.719,0,0,0,393.241,185.362Z" transform="translate(-348.971 -118.825)"/><path class="b" d="M392.744,197.43c-7.921,5.082-22.845-3.5-23.193-4.847-.372-1.426,1.078-2.95,1.9-5.38a16.956,16.956,0,0,0,.409-2.616c.384-3.756.719-10.474.843-15.532a48.207,48.207,0,0,0-.1-6.446,139.907,139.907,0,0,1,4.227,17.28c1.426,8.528,1.116,12.594,5.281,15.334C384.551,196.822,389,197.665,392.744,197.43Z" transform="translate(-349.428 -120.071)"/><path class="a" d="M413.554,215.01c0,3.52-12.73,23.031-15.371,27.035-.3.459-.471.719-.471.719a16.787,16.787,0,0,1-2.987-.645c-.942-.322-1.748-.769-1.748-1.388a4.531,4.531,0,0,1,.062-.57c.446-2.715,3.248-12.557,6.842-25.56-1.9-2.306-15.16-11.107-15.16-11.107a.1.1,0,0,1-.012.037c-.57,1.326-19,43.931-21.085,47.91a1.253,1.253,0,0,1-.161.273c-.942,1.215-4.872,1.351-5.144-1.215v-.012c-1.128-10.772,8.156-43.249,12.483-57.616.781-2.578,1.388-4.574,1.76-5.752,2.169,2.12,15.544,9.173,22.895,4.45a10.362,10.362,0,0,0,1.041-.781,2.368,2.368,0,0,0,.446-1.537c.136.149.285.31.421.483C402.484,195.586,413.554,211.626,413.554,215.01Z" transform="translate(-352.128 -114.199)"/><path class="r" d="M366.079,245.157c-.508,2.541-13.92,10.053-12.693,5.5.992-3.681,4.723-10.115,6.086-12.421v.012c.273,2.566,4.2,2.442,5.144,1.215a1.706,1.706,0,0,0,.161-.273C365.471,241.153,366.413,243.508,366.079,245.157Z" transform="translate(-353.306 -101.951)"/><path class="r" d="M396.7,244.919c-1.017.508-14.218-4.574-13.921-6.3s4.363-8.7,4.363-8.7a4.775,4.775,0,0,0-.062.57c0,1.487,4.735,2.033,4.735,2.033s.174-.26.471-.719C392.883,237.072,397.656,244.435,396.7,244.919Z" transform="translate(-346.246 -103.945)"/><path class="ab" d="M382.086,199.16s-14.627,28.721-20.106,48.43" transform="translate(-351.228 -111.314)"/><path class="ab" d="M380.98,199.16s16.251,10.66,16.858,12.4-8.429,25.734-8.429,25.734" transform="translate(-346.676 -111.314)"/><path class="b" d="M394.927,189.726c-1.785,7.152-12.148,5.206-17.453,3.83a31.687,31.687,0,0,0-9.123-.694c.781-2.578,1.388-4.574,1.76-5.752,2.169,2.12,15.544,9.173,22.895,4.45a10.362,10.362,0,0,0,1.041-.781,2.368,2.368,0,0,0,.446-1.537A5.469,5.469,0,0,1,394.927,189.726Z" transform="translate(-349.702 -114.201)"/><path class="b" d="M389.593,239.726c-.942-.322-1.748-.769-1.748-1.388a4.541,4.541,0,0,1,.062-.57c.446-2.715,3.248-12.557,6.842-25.56-1.9-2.306-15.16-11.107-15.16-11.107s1.078-3.657,2.306-3.929,15.3,11.85,16.858,14.354C400.117,213.732,390.536,231.718,389.593,239.726Z" transform="translate(-347.009 -111.792)"/><path class="b" d="M389.289,153.9c-.05.409-.112.88-.211,1.388-3.545,1.81-7.028-2.268-7.45-2.206-.236.025-.731.645-1.128,1.19a6.548,6.548,0,0,1,.992-2.058,13.429,13.429,0,0,0,4.153,2.033A4.57,4.57,0,0,0,389.289,153.9Z" transform="translate(-346.791 -122.562)"/><path class="b" d="M384.823,162.776c-2.343-.57-3.632-2.913-4.128-4.016,0-.694-.012-1.314-.025-1.76.62,1.413,1.81,3.334,3.793,3.954a2.065,2.065,0,0,0,.359.074C384.823,161.624,384.835,162.231,384.823,162.776Z" transform="translate(-346.75 -121.415)"/><path class="b" d="M389.473,171.467a59.87,59.87,0,0,0-.359,11.255c-.917-3.892-1.735-8.07-.781-10.5,1.624-4.177,1.81-4.363,1.835-4.363A36.269,36.269,0,0,0,389.473,171.467Z" transform="translate(-345.017 -118.813)"/></g><g transform="translate(31.547 83.978)"><path class="i" d="M324.767,203.577l-43.844-7.537-.074.4L184.026,305.457l-2,27.246,13.883,2.392,24.035,4.128,32.266,5.541,3.062.521-2.306,13.449-1.066,6.223-3.533,20.54,28.535,4.909,15.309,2.628,6.9-40.2,19.263,3.31,5.814-33.828-19.263-3.31ZM270.04,259.444,261.1,311.469l-10.7-1.847-23.391-4.016,12.954-15.457,2.963-3.545,24.7-29.477,3.5-3.954Z" transform="translate(-182.03 -196.04)"/><path class="b" d="M286.607,317.537l19.263,3.31-5.814,33.828-19.263-3.3-6.9,40.2-15.309-2.628,26.9-167.876,20.949-18.953Z" transform="translate(-163.69 -194.583)"/></g><g transform="translate(68.598 34.618)"><path class="m" d="M339.552,164.141a7.921,7.921,0,1,1-7.921-7.921A7.919,7.919,0,0,1,339.552,164.141Z" transform="translate(-185.138 -156.22)"/><path class="i" d="M561.912,245.361a7.921,7.921,0,1,1-7.921-7.921A7.919,7.919,0,0,1,561.912,245.361Z" transform="translate(-131.865 -136.762)"/><path class="a" d="M227.762,198.691a7.921,7.921,0,1,1-7.921-7.921A7.919,7.919,0,0,1,227.762,198.691Z" transform="translate(-211.92 -147.943)"/><path class="m" d="M333.162,394.141a7.921,7.921,0,1,1-7.921-7.921A7.919,7.919,0,0,1,333.162,394.141Z" transform="translate(-186.669 -101.117)"/><circle class="m" cx="3.049" cy="3.049" r="3.049" transform="translate(373.794 28.721)"/><circle class="a" cx="3.049" cy="3.049" r="3.049" transform="translate(140.395 76.296)"/><path class="l" d="M257.539,187.439a3.049,3.049,0,1,1-3.049-3.049A3.047,3.047,0,0,1,257.539,187.439Z" transform="translate(-202.452 -149.471)"/></g></g></g></svg>